<svg fill="none" height="495" viewBox="0 0 945 495" width="945" xmlns="http://www.w3.org/2000/svg" xmlns:xlink="http://www.w3.org/1999/xlink"><linearGradient id="lg1"><stop offset="0" stop-color="#77a7ff"/><stop offset="1" stop-color="#bdd4ff"/></linearGradient><linearGradient id="paint0_linear_240_3820" gradientUnits="userSpaceOnUse" x1="477.02" x2="473.93" xlink:href="#lg1" y1="-18.2671" y2="460.239"/><linearGradient id="lg2"><stop offset="0" stop-color="#bdd4ff"/><stop offset="1" stop-color="#edf3ff"/></linearGradient><linearGradient id="paint1_linear_240_3820" gradientUnits="userSpaceOnUse" x1="709.44" x2="700.291" xlink:href="#lg2" y1="12.5531" y2="308.097"/><linearGradient id="paint2_linear_240_3820" gradientUnits="userSpaceOnUse" x1="255.266" x2="246.118" xlink:href="#lg2" y1="12.5531" y2="308.097"/><linearGradient id="paint3_linear_240_3820" gradientUnits="userSpaceOnUse" x1="430.938" x2="454.856" xlink:href="#lg1" y1="-53.752" y2="59.3768"/><linearGradient id="paint4_linear_240_3820" gradientUnits="userSpaceOnUse" x1="493.392" x2="475.506" y1="194.153" y2="144.482"><stop offset="0" stop-color="#ffffff"/><stop offset="1" stop-color="#e7efff"/></linearGradient><radialGradient id="paint5_radial_240_3820" cx="0" cy="0" gradientTransform="matrix(412.86104604 2.0225286 -.97853083 199.7486032 459.667 256.971)" gradientUnits="userSpaceOnUse" r="1"><stop offset="0" stop-color="#bdd4ff" stop-opacity=".7"/><stop offset=".8621" stop-color="#edf3ff" stop-opacity="0"/></radialGradient><linearGradient id="lg3"><stop offset="0" stop-color="#ed6d7f"/><stop offset=".9987" stop-color="#f7d2d5"/></linearGradient><linearGradient id="paint6_linear_240_3820" gradientUnits="userSpaceOnUse" x1="416.205" x2="488.971" xlink:href="#lg3" y1="444.977" y2="53.1181"/><linearGradient id="paint7_linear_240_3820" gradientUnits="userSpaceOnUse" x1="513.314" x2="497.182" xlink:href="#lg3" y1="436.091" y2="159.727"/><radialGradient id="paint8_radial_240_3820" cx="0" cy="0" gradientTransform="matrix(-37.3733 0 0 -87.9559 538.701 306.71)" gradientUnits="userSpaceOnUse" r="1"><stop offset="0" stop-color="#ed6d7f"/><stop offset="1" stop-color="#ed7081" stop-opacity="0"/></radialGradient><linearGradient id="paint9_linear_240_3820" gradientUnits="userSpaceOnUse" x1="601.032" x2="483.397" xlink:href="#lg3" y1="560.605" y2="137.809"/><linearGradient id="paint10_linear_240_3820" gradientUnits="userSpaceOnUse" x1="507.163" x2="499.264" y1="190.262" y2="170.112"><stop offset="0" stop-color="#bf8e80"/><stop offset="1" stop-color="#855d53"/></linearGradient><linearGradient id="paint11_linear_240_3820" gradientUnits="userSpaceOnUse" x1="471.759" x2="499.32" y1="178.789" y2="97.0116"><stop offset="0" stop-color="#bf8e80"/><stop offset=".5358" stop-color="#855d53"/></linearGradient><radialGradient id="paint12_radial_240_3820" cx="0" cy="0" gradientTransform="matrix(74.39582538 -13.17315776 13.18442118 74.45943588 525.308 109.785)" gradientUnits="userSpaceOnUse" r="1"><stop offset="0" stop-color="#393944"/><stop offset="1" stop-color="#0e1b33"/></radialGradient><linearGradient id="lg4"><stop offset="0" stop-color="#b8d4ff"/><stop offset="1" stop-color="#ecf3ff"/></linearGradient><linearGradient id="paint13_linear_240_3820" gradientUnits="userSpaceOnUse" x1="454.002" x2="455.855" xlink:href="#lg4" y1="161.142" y2="418.523"/><linearGradient id="paint14_linear_240_3820" gradientUnits="userSpaceOnUse" x1="454.753" x2="456.606" xlink:href="#lg4" y1="265.569" y2="522.949"/><linearGradient id="paint15_linear_240_3820" gradientUnits="userSpaceOnUse" x1="489.016" x2="520.798" y1="362.694" y2="362.421"><stop offset="0" stop-color="#f6cfbe"/><stop offset="1" stop-color="#ffe8e1"/></linearGradient><linearGradient id="paint16_linear_240_3820" gradientUnits="userSpaceOnUse" x1="478.058" x2="500.066" y1="359.074" y2="343.469"><stop offset="0" stop-color="#bdd4ff"/><stop offset=".1683" stop-color="#a9c7ff"/><stop offset=".5303" stop-color="#82b0ff"/><stop offset=".8203" stop-color="#6aa1ff"/><stop offset="1" stop-color="#629cff"/></linearGradient><linearGradient id="paint17_linear_240_3820" gradientUnits="userSpaceOnUse" x1="460.775" x2="521.696" y1="359.834" y2="359.834"><stop offset="0" stop-color="#629cff"/><stop offset="1" stop-color="#b8d4ff"/></linearGradient><linearGradient id="paint18_linear_240_3820" gradientUnits="userSpaceOnUse" x1="547.135" x2="504.874" xlink:href="#lg3" y1="412.463" y2="260.568"/><linearGradient id="paint19_linear_240_3820" gradientUnits="userSpaceOnUse" x1="492.984" x2="436.183" xlink:href="#lg4" y1="325.084" y2="321.03"/><linearGradient id="lg5"><stop offset="0" stop-color="#6da5ff"/><stop offset="1" stop-color="#b8d3ff"/></linearGradient><linearGradient id="paint20_linear_240_3820" gradientUnits="userSpaceOnUse" x1="474.575" x2="264.212" xlink:href="#lg5" y1="326.23" y2="301.45"/><linearGradient id="lg6"><stop offset="0" stop-color="#00b14a"/><stop offset=".9987" stop-color="#d4e9dc"/></linearGradient><linearGradient id="paint21_linear_240_3820" gradientUnits="userSpaceOnUse" x1="405.958" x2="407.141" xlink:href="#lg6" y1="303.069" y2="203.36"/><linearGradient id="paint22_linear_240_3820" gradientUnits="userSpaceOnUse" x1="599.289" x2="609.939" xlink:href="#lg6" y1="346.421" y2="262.084"/><radialGradient id="paint23_radial_240_3820" cx="0" cy="0" gradientTransform="matrix(46.06380977 -3.0031224 .96819366 14.85077285 286.403 369.393)" gradientUnits="userSpaceOnUse" r="1"><stop offset="0" stop-color="#305eb2" stop-opacity=".3"/><stop offset=".102" stop-color="#3461b3" stop-opacity=".2553"/><stop offset=".1978" stop-color="#3f6ab8" stop-opacity=".2133"/><stop offset=".2913" stop-color="#5279bf" stop-opacity=".1724"/><stop offset=".3832" stop-color="#6d8dc9" stop-opacity=".1321"/><stop offset=".474" stop-color="#8fa8d5" stop-opacity=".092333"/><stop offset=".564" stop-color="#b9c9e5" stop-opacity=".052895"/><stop offset=".6518" stop-color="#ebeff7" stop-opacity=".014454"/><stop offset=".6848" stop-color="#ffffff" stop-opacity="0"/></radialGradient><linearGradient id="paint24_linear_240_3820" gradientUnits="userSpaceOnUse" x1="291.444" x2="291.444" xlink:href="#lg2" y1="375.878" y2="317.325"/><linearGradient id="paint25_linear_240_3820" gradientUnits="userSpaceOnUse" x1="284.552" x2="284.552" xlink:href="#lg2" y1="383.755" y2="327.314"/><linearGradient id="paint26_linear_240_3820" gradientUnits="userSpaceOnUse" x1="313.171" x2="348.757" y1="351.343" y2="351.343"><stop offset="0" stop-color="#bdd4ff"/><stop offset="1" stop-color="#e7efff"/></linearGradient><linearGradient id="paint27_linear_240_3820" gradientUnits="userSpaceOnUse" x1="284.552" x2="284.552" xlink:href="#lg1" y1="307.082" y2="368.023"/><linearGradient id="paint28_linear_240_3820" gradientUnits="userSpaceOnUse" x1="271.429" x2="314.282" xlink:href="#lg1" y1="320.009" y2="284.083"/><linearGradient id="paint29_linear_240_3820" gradientUnits="userSpaceOnUse" x1="262.863" x2="262.863" xlink:href="#lg1" y1="338.92" y2="261.106"/><linearGradient id="paint30_linear_240_3820" gradientUnits="userSpaceOnUse" x1="284.82" x2="284.82" xlink:href="#lg1" y1="363.512" y2="274.741"/><linearGradient id="paint31_linear_240_3820" gradientUnits="userSpaceOnUse" x1="578.332" x2="741.486" xlink:href="#lg5" y1="357.643" y2="392.946"/><radialGradient id="paint32_radial_240_3820" cx="0" cy="0" gradientTransform="matrix(29.71925896 -33.96800773 4.56946763 3.99791454 666.485 382.521)" gradientUnits="userSpaceOnUse" r="1"><stop offset="0" stop-color="#ffffff"/><stop offset="1" stop-color="#ffffff" stop-opacity="0"/></radialGradient><linearGradient id="paint33_linear_240_3820" gradientUnits="userSpaceOnUse" x1="593.421" x2="593.733" xlink:href="#lg5" y1="366.63" y2="386.867"/><linearGradient id="paint34_linear_240_3820" gradientUnits="userSpaceOnUse" x1="593.525" x2="593.525" y1="398.947" y2="364.118"><stop offset="0" stop-color="#77a7ff"/><stop offset="1" stop-color="#4687ff"/></linearGradient><radialGradient id="paint35_radial_240_3820" cx="0" cy="0" gradientTransform="matrix(3.47887051 5.0054014 -4.90965563 3.41232497 657.505 390.528)" gradientUnits="userSpaceOnUse" r="1"><stop offset="0" stop-color="#ffd4d8"/><stop offset="1" stop-color="#fb94a1"/></radialGradient><radialGradient id="paint36_radial_240_3820" cx="0" cy="0" gradientTransform="matrix(3.48861657 4.17239779 -2.78227108 2.32630671 561.904 383.08)" gradientUnits="userSpaceOnUse" r="1"><stop offset=".5295" stop-color="#9ed9b0"/><stop offset="1" stop-color="#78cb93"/></radialGradient><linearGradient id="paint37_linear_240_3820" gradientUnits="userSpaceOnUse" x1="575.095" x2="564.989" xlink:href="#lg5" y1="364.183" y2="310.877"/><linearGradient id="paint38_linear_240_3820" gradientUnits="userSpaceOnUse" x1="550.585" x2="559.646" xlink:href="#lg1" y1="313.408" y2="285.409"/><linearGradient id="paint39_linear_240_3820" gradientUnits="userSpaceOnUse" x1="640.601" x2="644.799" xlink:href="#lg5" y1="335.84" y2="313.697"/><linearGradient id="paint40_linear_240_3820" gradientUnits="userSpaceOnUse" x1="658.49" x2="649.429" xlink:href="#lg1" y1="320.051" y2="292.052"/><clipPath id="clip0_240_3820"><path d="M0 0H945V495H0Z"/></clipPath><g clip-path="url(#clip0_240_3820)"><path d="M952.481-3.86224H-1.89062V497.522H952.481V-3.86224Z" fill="url(#paint0_linear_240_3820)"/><g opacity=".5"><path d="M825.456 68.0231H584.166V258.535H825.456V68.0231Z" fill="url(#paint1_linear_240_3820)" opacity=".5"/><g fill="#ffffff" opacity=".5"><path d="M650.632 65.9738H641.182V258.456H650.632V65.9738Z" opacity=".5"/><path d="M768.442 65.9738H758.992V258.456H768.442V65.9738Z" opacity=".5"/><path d="M707.095 65.9738H702.527V258.456H707.095V65.9738Z" opacity=".5"/><path d="M766.315 167.496H644.174V173.408H766.315V167.496Z" opacity=".5"/></g></g><g opacity=".5"><path d="M371.306 68.0231H130.016V258.535H371.306V68.0231Z" fill="url(#paint2_linear_240_3820)" opacity=".5"/><g fill="#ffffff" opacity=".5"><path d="M196.481 65.9738H187.031V258.456H196.481V65.9738Z" opacity=".5"/><path d="M314.212 65.9738H304.762V258.456H314.212V65.9738Z" opacity=".5"/><path d="M252.944 65.9738H248.377V258.456H252.944V65.9738Z" opacity=".5"/><path d="M312.165 167.496H190.023V173.408H312.165V167.496Z" opacity=".5"/></g></g><g opacity=".44"><path d="M424.934 71.7277H512.74V179.95H424.934V71.7277Z" fill="url(#paint3_linear_240_3820)" opacity=".44"/><path d="M428.793 75.6688H508.882V176.009H428.793V75.6688Z" fill="url(#paint4_linear_240_3820)" opacity=".44"/><path d="M445.179 150.879 492.508 150.879 492.508 100.749 445.179 100.749 445.179 150.879Z" fill="#ffffff" opacity=".44"/></g><path d="M841.443 277.689H124.188V396.079H841.443V277.689Z" fill="url(#paint5_radial_240_3820)"/><path d="M419.502 335.938C436.276 348.549 447.537 347.919 451.238 337.83 454.309 329.317 484.392 185.783 484.392 185.783 475.178 186.807 464.311 191.064 452.419 197.606 445.962 202.256 438.559 214.237 434.228 239.381 429.897 264.526 429.188 300.783 429.188 300.783" fill="url(#paint6_linear_240_3820)"/><path d="M570.465 230.711C570.465 230.711 562.118 270.516 562.59 308.902 563.063 347.288 567.236 378.344 567.236 378.344L478.485 382.6 441 380.709C441 380.709 446.985 356.195 447.458 333.494 447.93 310.794 447.3 269.885 444.701 241.825 442.181 215.183 452.734 199.104 470.846 190.039 472.421 189.251 477.067 187.123 478.879 186.729 509.985 180.817 554.243 178.452 570.465 230.711Z" fill="url(#paint7_linear_240_3820)"/><path d="M570.465 223.775C570.465 223.775 562.118 263.58 562.59 301.966 563.063 340.352 567.236 371.408 567.236 371.408 567.236 371.408 510.851 400.099 477.067 390.877 443.284 381.655 441 373.772 441 373.772 441 373.772 446.985 349.259 447.458 326.558 447.93 303.858 447.3 262.949 444.701 234.889 442.181 208.247 452.734 192.167 470.846 183.103 472.421 182.315 477.067 180.186 478.879 179.792 509.985 173.802 554.243 171.516 570.465 223.775Z" fill="url(#paint8_radial_240_3820)" opacity=".5"/><path d="M520.38 184.679C530.303 186.019 574.954 194.374 575.899 241.115 576.687 278.24 574.403 308.035 573.222 321.119 572.828 325.533 569.835 329.238 565.662 330.657L491.322 365.023C489.274 365.733 487.069 364.629 486.282 362.58L475.65 346.027C474.942 344.057 475.887 341.928 477.698 341.061L544.872 304.015 542.273 254.594C541.407 222.75 543.69 196.975 520.38 184.679Z" fill="url(#paint9_linear_240_3820)"/><path d="M515.105 186.098C515.105 186.098 512.034 160.402 514.397 146.687 516.68 132.972 481.873 173.565 481.873 173.565 481.873 173.565 483.527 177.191 481.794 185.94 480.062 194.689 490.378 197.527 503.214 194.374 511.562 192.325 515.105 186.098 515.105 186.098Z" fill="url(#paint10_linear_240_3820)"/><path d="M513.058 129.819C512.664 129.898 512.27 129.977 511.955 130.135 509.278 131.317 509.829 97.1872 473.367 102.626 454.625 105.463 453.68 130.135 453.837 132.026 454.546 138.884 456.2 146.135 458.878 154.727 464.39 172.698 468.958 190.433 485.338 183.891 495.181 179.95 506.521 171.358 510.774 163.003 513.373 157.88 512.585 150.234 512.585 150.234 514.869 151.101 518.806 149.052 518.885 143.928 518.964 141.17 519.043 136.283 517.94 133.76 516.995 131.79 514.948 129.425 513.058 129.819Z" fill="url(#paint11_linear_240_3820)"/><path d="M507.859 139.041C507.859 139.041 503.527 131.79 501.874 127.77 500.299 123.75 499.354 115.553 495.416 116.814 491.085 118.311 483.446 131.553 454.151 127.297L455.726 143.85C455.726 143.85 422.651 100.025 461.396 96.3989 476.595 94.9801 490.376 84.891 499.747 95.4531 499.747 95.4531 523.687 97.1871 515.812 130.844L515.34 130.45C514.474 129.819 513.214 129.74 512.269 130.292 509.906 131.947 508.804 135.416 507.859 139.041Z" fill="url(#paint12_radial_240_3820)"/><path clip-rule="evenodd" d="M765.371 362.737 676.856 455.116 146.002 403.252 145.451 385.359 287.674 336.253 765.45 341.377 765.371 362.737Z" fill="url(#paint13_linear_240_3820)" fill-rule="evenodd"/><path clip-rule="evenodd" d="M765.45 341.377 674.179 436.436 145.451 385.359 284.996 317.573 765.45 341.377Z" fill="url(#paint14_linear_240_3820)" fill-rule="evenodd"/><path d="M475.963 368.491 475.176 368.649C475.491 368.334 482.815 360.688 485.728 358.954 487.225 358.087 491.713 356.905 491.95 356.826L492.028 357.22C491.95 357.22 487.382 358.402 485.964 359.269 483.208 361.003 476.042 368.412 475.963 368.491Z" fill="url(#paint15_linear_240_3820)"/><path d="M521.404 354.146 492.424 377.162 446.591 360.215 444.465 354.54 460.924 350.993C465.334 351.623 510.3 350.756 520.931 352.096 521.876 352.333 522.191 353.515 521.404 354.146Z" fill="url(#paint16_linear_240_3820)"/><path d="M460.766 344.214C465.176 344.845 510.142 349.259 520.694 350.52 521.639 350.678 522.033 351.86 521.246 352.49L492.581 375.349" fill="url(#paint17_linear_240_3820)"/><path d="M544.871 304.015 477.934 327.11 482.659 351.623C482.659 351.623 566.606 333.416 570.465 327.819 574.402 322.223 544.871 304.015 544.871 304.015Z" fill="url(#paint18_linear_240_3820)"/><path d="M351.461 365.26 492.109 377.319C492.502 377.319 492.817 377.004 492.817 376.61L479.587 273.432C479.43 272.486 478.721 271.777 477.776 271.777L336.892 262.476C335.632 262.397 334.845 263.501 335.002 264.683L351.461 365.26Z" fill="url(#paint19_linear_240_3820)"/><path d="M351.066 365.181 491.399 377.24 477.854 274.615C477.696 273.669 476.988 272.959 476.043 272.959L336.813 263.816C335.553 263.737 334.608 264.762 334.765 266.023L351.066 365.181Z" fill="url(#paint20_linear_240_3820)"/><path d="M397.607 331.445C396.032 329.238 394.93 326.558 394.694 323.721 394.142 316.469 399.182 310.715 406.112 310.951 413.042 311.188 419.027 317.494 419.5 324.824 419.657 327.74 418.949 330.342 417.531 332.47L410.916 321.908 410.365 322.932 411.152 325.849 406.585 318.203 404.38 322.696 405.167 325.612 402.805 321.592 397.607 331.445Z" fill="#ffffff"/><path d="M424.069 223.538 407.453 218.572C407.217 218.494 406.98 218.494 406.744 218.572L390.128 223.538C389.577 223.696 389.262 224.169 389.262 224.721V243.086C389.262 245.451 390.207 247.894 392.097 250.338 393.514 252.229 395.562 254.042 398.082 255.855 402.334 258.929 406.429 260.821 406.665 260.9 406.823 260.979 406.98 260.979 407.138 260.979 407.295 260.979 407.453 260.979 407.61 260.9 407.768 260.821 411.942 258.929 416.194 255.855 418.714 254.042 420.683 252.151 422.179 250.338 424.069 247.894 425.014 245.451 425.014 243.086V224.721C424.935 224.169 424.62 223.696 424.069 223.538ZM405.327 245.135 398.554 238.514 401.232 235.834 405.405 239.776 414.304 231.105 416.982 233.785 405.327 245.135Z" fill="url(#paint21_linear_240_3820)"/><path d="M628.819 277.846 612.203 272.881C611.967 272.802 611.731 272.802 611.494 272.881L594.878 277.846C594.327 278.004 594.012 278.477 594.012 279.029V297.394C594.012 299.759 594.957 302.202 596.847 304.646 598.264 306.537 600.312 308.35 602.832 310.163 607.084 313.237 611.179 315.129 611.416 315.208 611.573 315.287 611.731 315.287 611.888 315.287 612.046 315.287 612.203 315.287 612.36 315.208 612.518 315.129 616.692 313.237 620.944 310.163 623.464 308.35 625.433 306.459 626.929 304.646 628.819 302.202 629.764 299.759 629.764 297.394V279.029C629.686 278.477 629.292 278.004 628.819 277.846ZM610.077 299.522 603.304 292.901 605.982 290.221 610.155 294.162 619.054 285.492 621.732 288.172 610.077 299.522Z" fill="url(#paint22_linear_240_3820)"/><path d="M332.482 366.127C333.034 374.324 312.795 382.285 287.359 384.019 261.922 385.753 240.896 380.393 240.345 372.196 239.794 363.998 260.032 356.037 285.469 354.303 310.905 352.569 331.931 357.929 332.482 366.127Z" fill="url(#paint23_radial_240_3820)" opacity=".8"/><path d="M290.273 375.112C300.825 374.403 309.251 365.417 309.251 355.013V326.795C303.896 339.012 292.399 360.767 273.656 375.349 275.467 375.743 277.436 375.979 279.405 375.822L290.273 375.112Z" fill="url(#paint24_linear_240_3820)"/><path d="M309.251 326.795 309.172 320.331C306.022 327.189 262.789 326.795 259.875 319.78V357.929C259.875 366.521 265.702 373.457 273.656 375.349 292.399 360.767 303.896 339.012 309.251 326.795Z" fill="url(#paint25_linear_240_3820)"/><path d="M290.273 375.112C300.825 374.403 309.251 365.417 309.251 355.013V326.795C303.896 339.012 292.399 360.767 273.656 375.349 275.467 375.743 277.436 375.979 279.405 375.822L290.273 375.112Z" fill="url(#paint26_linear_240_3820)"/><path d="M284.524 327.819C298.137 327.819 309.173 324.643 309.173 320.725 309.173 316.807 298.137 313.631 284.524 313.631 270.911 313.631 259.875 316.807 259.875 320.725 259.875 324.643 270.911 327.819 284.524 327.819Z" fill="url(#paint27_linear_240_3820)"/><path d="M284.524 328.213C298.137 328.213 309.173 325.037 309.173 321.119 309.173 317.202 298.137 314.026 284.524 314.026 270.911 314.026 259.875 317.202 259.875 321.119 259.875 325.037 270.911 328.213 284.524 328.213Z" stroke="#ffffff" stroke-miterlimit="10" stroke-width="1.4666"/><path d="M297.045 282.576C297.045 282.576 306.259 269.018 310.669 264.92 310.905 264.683 311.299 264.841 311.377 265.156 312.322 269.334 316.654 291.561 308.464 305.67 299.407 321.356 296.1 321.356 293.107 321.986 290.194 322.696 286.729 322.775 284.996 320.725L297.045 282.576Z" fill="url(#paint28_linear_240_3820)"/><path d="M249.558 243.007C249.558 242.771 249.795 242.613 250.031 242.613 252.157 243.007 261.292 245.135 268.773 256.013 275.231 265.393 276.412 278.319 276.412 278.319L274.68 320.489 270.9 319.228C270.9 319.228 259.402 307.326 254.756 291.088 247.984 267.757 249.322 246.318 249.558 243.007Z" fill="url(#paint29_linear_240_3820)"/><path d="M292.24 235.834C292.634 235.44 293.422 235.598 293.5 236.15 294.918 242.692 300.509 271.304 295.942 290.379 290.823 312.134 284.995 320.647 284.995 320.647 283.342 325.849 275.309 325.297 274.679 320.41 274.679 320.41 271.135 289.985 271.923 282.024 273.34 267.994 277.357 251.284 292.24 235.834Z" fill="url(#paint30_linear_240_3820)"/><path d="M514.709 367.073C515.339 366.836 539.437 355.17 548.493 350.756 550.698 349.653 553.218 349.18 555.659 349.338L683.864 356.589C687.88 356.826 691.109 360.136 691.188 364.156L691.424 376.137C691.503 378.896 690.637 381.576 688.983 383.862L675.359 402.779 514.709 367.073Z" fill="url(#paint31_linear_240_3820)"/><path d="M696.306 348.549C698.826 350.756 687.565 367.782 671.185 386.541 654.805 405.301 639.449 418.701 636.929 416.494 634.409 414.287 645.67 397.261 662.05 378.502 678.43 359.742 693.786 346.342 696.306 348.549Z" fill="url(#paint32_radial_240_3820)" opacity=".25"/><path d="M517.78 366.205 668.35 376.925C672.918 377.24 676.698 381.26 676.698 385.911V398.286C676.698 402.936 672.918 406.326 668.35 405.932L517.78 392.926C513.922 392.611 510.771 388.906 510.771 384.65V373.378C510.771 369.122 513.843 365.89 517.78 366.205Z" fill="url(#paint33_linear_240_3820)"/><path d="M518.095 368.255 667.877 379.053C671.499 379.29 674.492 382.522 674.492 386.147V397.577C674.492 401.202 671.578 403.961 667.877 403.646L518.095 390.955C515.023 390.719 512.582 387.803 512.582 384.413V373.93C512.582 370.541 515.023 368.018 518.095 368.255Z" fill="url(#paint34_linear_240_3820)"/><path d="M657.484 384.413C660.87 384.65 663.547 387.645 663.547 391.034 663.547 394.424 660.791 396.946 657.484 396.709 654.176 396.473 651.42 393.478 651.42 390.088 651.42 386.699 654.097 384.177 657.484 384.413Z" fill="url(#paint35_radial_240_3820)"/><path d="M657.483 385.753C660.082 385.99 662.287 388.275 662.287 390.955 662.287 393.635 660.16 395.606 657.483 395.369 654.884 395.133 652.758 392.847 652.758 390.167 652.758 387.487 654.805 385.517 657.483 385.753Z" fill="#ffffff" opacity=".31"/><path d="M657.483 387.487C659.137 387.645 660.475 389.064 660.475 390.798 660.475 392.532 659.137 393.714 657.483 393.635 655.829 393.478 654.49 392.059 654.49 390.325 654.49 388.591 655.829 387.33 657.483 387.487Z" fill="#ffffff" opacity=".61"/><path d="M561.801 377.24C564.793 377.477 567.235 380.236 567.235 383.467 567.235 386.699 564.793 389.064 561.801 388.827 558.808 388.591 556.367 385.753 556.367 382.6 556.367 379.369 558.808 377.004 561.801 377.24Z" fill="url(#paint36_radial_240_3820)"/><path d="M561.801 378.423C564.164 378.58 566.133 380.787 566.133 383.31 566.133 385.832 564.243 387.724 561.801 387.566 559.439 387.408 557.549 385.201 557.549 382.679 557.549 380.157 559.439 378.265 561.801 378.423Z" fill="#e7efff" opacity=".31"/><path d="M561.801 380.078C563.297 380.157 564.557 381.576 564.557 383.231 564.557 384.807 563.297 386.069 561.801 385.911 560.305 385.753 559.045 384.413 559.045 382.758 559.045 381.103 560.305 379.999 561.801 380.078Z" fill="#ffffff" opacity=".61"/><g opacity=".61"><path d="M523.293 375.506 525.498 375.664V378.108L523.293 377.871V375.506Z" fill="#ffffff" opacity=".61"/><path d="M579.52 379.842 581.882 379.999V382.443L579.52 382.285V379.842Z" fill="#ffffff" opacity=".61"/><path d="M611.572 382.206 613.935 382.443V384.965L611.572 384.729V382.206Z" fill="#b7dabf" opacity=".83"/><path d="M536.523 376.531 538.807 376.689V379.132L536.523 378.896V376.531Z" fill="#b7dabf" opacity=".83"/><path d="M593.617 380.866 595.98 381.024V383.546L593.617 383.389V380.866Z" fill="#b7dabf" opacity=".83"/><path d="M626.141 383.389 628.582 383.546V386.069L626.141 385.911V383.389Z" fill="#ffffff" opacity=".61"/><path d="M618.816 382.758 621.258 382.994V385.517L618.816 385.28V382.758Z" fill="#ffffff" opacity=".61"/><path d="M543.217 377.004 545.501 377.241V379.605L543.217 379.447V377.004Z" fill="#b7dabf" opacity=".83"/><path d="M600.783 381.418 603.146 381.576V384.098L600.783 383.94V381.418Z" fill="#ffffff" opacity=".61"/><path d="M526.6 375.743 528.805 375.979V378.344L526.6 378.186V375.743Z" fill="#ffffff" opacity=".61"/><path d="M583.064 380.078 585.427 380.236V382.679L583.064 382.522V380.078Z" fill="#b7dabf" opacity=".83"/><path d="M615.193 382.522 617.635 382.679V385.202L615.193 385.044V382.522Z" fill="#b7dabf" opacity=".83"/><path d="M539.91 376.768 542.115 376.925V379.369L539.91 379.211V376.768Z" fill="#b7dabf" opacity=".83"/><path d="M622.439 383.073 624.959 383.231V385.753L622.439 385.596V383.073Z" fill="#ffffff" opacity=".61"/><path d="M611.572 385.99 613.935 386.147V388.67L611.572 388.512V385.99Z" fill="#ffffff" opacity=".61"/><path d="M593.617 384.571 595.98 384.807V387.251L593.617 387.093V384.571Z" fill="#ffffff" opacity=".61"/><path d="M626.141 387.172 628.582 387.33V389.852L626.141 389.615V387.172Z" fill="#b7dabf" opacity=".83"/><path d="M529.908 379.605 532.113 379.763V382.206L529.908 381.97V379.605Z" fill="#ffffff" opacity=".61"/><path d="M586.529 384.019 588.892 384.256V386.699L586.529 386.541V384.019Z" fill="#b7dabf" opacity=".83"/><g fill="#ffffff"><path d="M543.217 380.63 545.501 380.866V383.231L543.217 383.073V380.63Z" opacity=".61"/><path d="M633.543 387.724 635.984 387.881V390.404L633.543 390.246V387.724Z" opacity=".61"/><path d="M615.193 386.305 617.635 386.463V388.985L615.193 388.749V386.305Z" opacity=".61"/><path d="M539.91 380.393 542.115 380.551V382.994L539.91 382.758V380.393Z" opacity=".61"/><path d="M629.842 387.409 632.283 387.645V390.167L629.842 389.931V387.409Z" opacity=".61"/></g><path d="M533.215 379.842 535.42 380.078V382.443L533.215 382.285V379.842Z" fill="#b7dabf" opacity=".83"/><path d="M590.072 384.334 592.435 384.492V386.936L590.072 386.778V384.334Z" fill="#ffffff" opacity=".61"/><path d="M604.326 385.438 606.767 385.596V388.118L604.326 387.881V385.438Z" fill="#ffffff" opacity=".61"/><path d="M637.244 388.039 639.764 388.197V390.719L637.244 390.561V388.039Z" fill="#ffffff" opacity=".61"/><path d="M523.293 382.679 525.498 382.837V385.202L523.293 385.044V382.679Z" fill="#b7dabf" opacity=".83"/><path d="M579.52 387.172 581.882 387.33V389.852L579.52 389.615V387.172Z" fill="#b7dabf" opacity=".83"/><path d="M536.523 383.704 538.807 383.94V386.305L536.523 386.147V383.704Z" fill="#b7dabf" opacity=".83"/><path d="M529.908 383.231 532.113 383.389V385.753L529.908 385.596V383.231Z" fill="#ffffff" opacity=".61"/><path d="M618.816 390.325 621.258 390.561V393.005L618.816 392.847V390.325Z" fill="#ffffff" opacity=".61"/><path d="M600.783 388.906 603.146 389.064V391.586L600.783 391.35V388.906Z" fill="#b7dabf" opacity=".83"/><path d="M633.543 391.507 635.984 391.744V394.266L633.543 394.03V391.507Z" fill="#ffffff" opacity=".61"/><path d="M526.6 382.916 528.805 383.073V385.517L526.6 385.28V382.916Z" fill="#b7dabf" opacity=".83"/><path d="M583.064 387.487 585.427 387.645V390.088L583.064 389.931V387.487Z" fill="#ffffff" opacity=".61"/><path d="M539.91 384.019 542.115 384.177V386.62L539.91 386.384V384.019Z" fill="#ffffff" opacity=".61"/><path d="M597.16 388.591 599.601 388.748V391.271L597.16 391.034V388.591Z" fill="#ffffff" opacity=".61"/><path d="M629.842 391.192 632.283 391.428V393.951L629.842 393.714V391.192Z" fill="#b7dabf" opacity=".83"/><path d="M533.215 383.467 535.42 383.625V386.069L533.215 385.832V383.467Z" fill="#ffffff" opacity=".61"/><path d="M590.072 388.039 592.435 388.197V390.719L590.072 390.483V388.039Z" fill="#ffffff" opacity=".61"/><path d="M622.439 390.64 624.959 390.798V393.32L622.439 393.162V390.64Z" fill="#ffffff" opacity=".61"/><path d="M604.326 389.143 606.767 389.379V391.823L604.326 391.665V389.143Z" fill="#ffffff" opacity=".61"/></g><path d="M591.412 364.787C591.57 363.841 592.436 362.816 593.932 361.791 597.397 359.506 603.618 358.087 608.343 358.323 613.462 358.639 616.14 360.767 613.698 363.447 612.596 364.629 610.706 365.733 608.343 366.6L607.477 361.87 606.611 362.186 605.902 363.289 605.745 360.373 601.886 361.791 601.02 362.895 601.177 361.397 591.412 364.787Z" fill="#ffffff"/><path d="M579.994 358.56C577.632 349.18 572.749 332.706 570.387 323.248 569.914 321.356 569.442 319.543 568.969 317.651 568.89 317.415 568.89 317.178 568.812 316.942 568.812 316.863 568.812 316.784 568.733 316.784 568.733 316.784 568.733 316.784 568.733 316.705 568.733 316.627 568.733 316.548 568.654 316.469 568.575 316.154 568.418 315.917 568.26 315.681 568.103 315.444 567.945 315.208 567.709 314.971 567.473 314.735 567.237 314.577 567 314.42 566.843 314.341 566.607 314.183 566.37 314.104 566.37 314.104 566.37 314.104 566.37 314.183 566.449 314.42 566.528 314.656 566.528 314.971 566.528 315.05 566.528 315.129 566.528 315.287 566.528 315.366 566.528 315.366 566.528 315.444V315.523 315.602 315.681C566.528 315.76 566.449 315.76 566.449 315.838 566.449 315.917 566.37 315.996 566.292 315.996L566.213 316.075C566.134 316.154 566.055 316.233 566.055 316.233L565.977 316.311C565.898 316.311 565.898 316.39 565.819 316.39 565.74 316.39 565.74 316.469 565.662 316.469 565.583 316.469 565.583 316.548 565.504 316.548 565.425 316.548 565.425 316.627 565.347 316.627 565.268 316.705 565.11 316.705 565.032 316.784 564.874 316.863 564.717 316.942 564.559 316.942 564.559 316.942 564.559 316.942 564.48 316.942H564.402C564.323 316.942 564.165 317.021 564.087 317.021 564.008 317.021 563.929 317.021 563.85 317.021 563.772 317.021 563.693 317.021 563.535 317.021 563.457 317.021 563.457 317.021 563.378 317.021 563.299 317.021 563.22 317.021 563.22 317.021H563.142C563.063 317.021 562.984 317.021 562.905 317.021 562.827 317.021 562.748 317.021 562.59 316.942 562.512 316.942 562.433 316.942 562.433 316.863 562.354 316.863 562.275 316.784 562.197 316.784 562.118 316.784 562.118 316.705 562.039 316.705L561.96 316.627C561.96 316.627 561.882 316.548 561.803 316.548 561.645 316.39 561.567 316.233 561.488 316.075 561.409 315.838 561.33 315.602 561.33 315.366V315.287C561.173 315.444 561.094 315.602 560.937 315.76 560.779 315.996 560.622 316.233 560.543 316.548 560.464 316.863 560.385 317.1 560.307 317.415 560.307 317.73 560.307 317.967 560.307 318.282 560.307 318.361 560.307 318.44 560.385 318.518V318.597C560.385 318.597 560.385 318.597 560.385 318.676 560.385 318.755 560.385 318.755 560.464 318.834 560.543 319.07 560.543 319.307 560.622 319.543 561.094 321.435 561.567 323.248 562.039 325.139 564.795 336.174 567.552 347.288 570.387 358.323L570.465 358.245C571.332 361.791 580.939 362.028 579.994 358.56Z" fill="url(#paint37_linear_240_3820)"/><path d="M566.37 314.341C566.37 314.262 566.37 314.262 566.37 314.341 562.669 299.68 559.046 285.177 555.424 270.595 555.187 269.649 554.951 268.703 554.715 267.836 554.636 267.363 554.479 266.89 554.4 266.417 554.4 266.338 554.321 266.181 554.321 266.102V266.023C554.321 266.023 554.321 266.023 554.321 265.944V265.865C554.242 265.708 554.242 265.629 554.164 265.471 554.006 265.235 553.849 264.92 553.612 264.762 553.376 264.604 553.14 264.368 552.904 264.289 552.746 264.21 552.667 264.21 552.51 264.131 552.274 264.053 551.88 263.974 551.644 264.053 551.407 264.053 551.092 264.131 550.856 264.21 550.541 264.289 550.384 264.447 550.147 264.604 549.911 264.762 549.675 264.998 549.517 265.235 549.36 265.471 549.202 265.787 549.124 266.102 549.045 266.417 549.045 266.654 549.045 266.969 549.045 267.127 549.045 267.284 549.124 267.442V267.521C549.124 267.6 549.202 267.757 549.202 267.836 549.281 268.309 549.439 268.782 549.517 269.255 549.754 270.201 549.99 271.147 550.226 272.014 553.849 286.596 557.55 301.178 561.172 315.76V315.838C561.251 316.075 561.33 316.311 561.33 316.548 561.409 316.705 561.487 316.863 561.645 317.021 561.724 317.1 561.802 317.178 561.881 317.178 561.96 317.178 561.96 317.257 562.039 317.257 562.117 317.257 562.196 317.336 562.275 317.336 562.354 317.336 562.432 317.415 562.432 317.415 562.511 317.415 562.59 317.494 562.747 317.494 562.826 317.494 562.826 317.494 562.905 317.494 562.984 317.494 563.062 317.494 563.062 317.494 563.141 317.494 563.22 317.494 563.22 317.494 563.299 317.494 563.377 317.494 563.377 317.494 563.456 317.494 563.535 317.494 563.692 317.494 563.771 317.494 563.85 317.494 563.929 317.494 564.007 317.494 564.165 317.494 564.244 317.415H564.322C564.322 317.415 564.322 317.415 564.401 317.415 564.559 317.336 564.716 317.336 564.874 317.257 564.952 317.178 565.11 317.178 565.189 317.1 565.267 317.1 565.267 317.021 565.346 317.021 565.425 317.021 565.425 316.942 565.504 316.942 565.582 316.942 565.582 316.863 565.661 316.863 565.74 316.863 565.74 316.784 565.819 316.784L565.897 316.705C565.976 316.627 566.055 316.627 566.055 316.548L566.134 316.469C566.212 316.39 566.212 316.39 566.291 316.311 566.291 316.233 566.37 316.233 566.37 316.154 566.37 316.075 566.37 316.075 566.449 315.996V315.917C566.449 315.838 566.449 315.838 566.449 315.76 566.449 315.681 566.449 315.602 566.449 315.444 566.527 314.814 566.449 314.577 566.37 314.341Z" fill="url(#paint38_linear_240_3820)"/><path d="M638.898 365.023C638.898 365.023 638.977 365.102 638.898 365.023 641.733 354.067 644.489 342.953 647.324 331.918 647.797 330.026 648.269 328.213 648.742 326.322 648.821 326.085 648.821 325.849 648.899 325.612 648.899 325.534 648.899 325.455 648.978 325.455 648.978 325.455 648.978 325.455 648.978 325.376V325.297C648.978 325.218 648.978 325.139 649.057 325.061 649.136 324.745 649.136 324.509 649.057 324.194 649.057 323.878 648.978 323.642 648.821 323.327 648.742 323.011 648.584 322.775 648.427 322.538 648.269 322.381 648.191 322.223 648.033 322.065V322.144C647.954 322.381 647.876 322.617 647.876 322.854 647.797 323.011 647.718 323.169 647.561 323.327 647.482 323.327 647.482 323.405 647.403 323.405L647.324 323.484C647.246 323.484 647.246 323.563 647.167 323.563 647.088 323.563 647.009 323.642 646.931 323.642 646.852 323.642 646.773 323.721 646.773 323.721 646.694 323.721 646.616 323.721 646.458 323.799 646.379 323.799 646.301 323.799 646.222 323.799H646.143C646.064 323.799 645.986 323.799 645.986 323.799 645.907 323.799 645.907 323.799 645.828 323.799 645.749 323.799 645.671 323.799 645.513 323.799 645.434 323.799 645.356 323.799 645.277 323.799 645.198 323.799 645.041 323.799 644.962 323.721H644.883C644.883 323.721 644.883 323.721 644.804 323.721 644.647 323.642 644.489 323.642 644.332 323.563 644.253 323.484 644.096 323.484 644.017 323.405 643.938 323.405 643.938 323.327 643.859 323.327 643.781 323.327 643.781 323.248 643.702 323.248 643.623 323.248 643.623 323.169 643.544 323.169 643.466 323.169 643.466 323.09 643.387 323.09L643.308 323.011C643.229 322.932 643.151 322.932 643.151 322.854L643.072 322.775C642.993 322.696 642.993 322.696 642.914 322.617 642.914 322.538 642.836 322.538 642.836 322.459V322.381C642.836 322.381 642.836 322.381 642.836 322.302V322.223C642.836 322.144 642.836 322.144 642.836 322.065 642.836 321.987 642.836 321.908 642.836 321.75 642.914 321.514 642.993 321.277 642.993 320.962 642.993 320.962 642.993 320.962 642.993 320.883 642.757 320.962 642.521 321.041 642.363 321.198 642.048 321.356 641.891 321.514 641.654 321.75 641.418 321.987 641.261 322.144 641.103 322.459 640.946 322.696 640.788 322.932 640.709 323.248 640.709 323.327 640.631 323.405 640.631 323.484 640.631 323.484 640.631 323.484 640.631 323.563 640.631 323.642 640.631 323.642 640.552 323.721 640.473 323.957 640.473 324.194 640.394 324.43 639.922 326.322 639.449 328.135 638.977 330.026 636.615 339.406 631.732 355.959 629.37 365.338 628.11 368.649 637.717 368.413 638.898 365.023Z" fill="url(#paint39_linear_240_3820)"/><path d="M642.441 321.75C642.441 321.829 642.441 321.908 642.441 322.065 642.441 322.144 642.441 322.144 642.441 322.223V322.302C642.441 322.381 642.441 322.381 642.52 322.459 642.52 322.538 642.599 322.538 642.599 322.617 642.599 322.696 642.678 322.775 642.756 322.775L642.835 322.854C642.914 322.932 642.993 323.011 642.993 323.011L643.071 323.09C643.15 323.09 643.15 323.169 643.229 323.169 643.308 323.169 643.308 323.248 643.386 323.248 643.465 323.248 643.465 323.326 643.544 323.326 643.623 323.326 643.623 323.405 643.701 323.405 643.78 323.484 643.938 323.484 644.016 323.563 644.174 323.642 644.331 323.721 644.489 323.721 644.489 323.721 644.489 323.721 644.568 323.721H644.646C644.725 323.721 644.883 323.799 644.961 323.799 645.04 323.799 645.119 323.799 645.198 323.799 645.276 323.799 645.355 323.799 645.513 323.799 645.591 323.799 645.591 323.799 645.67 323.799 645.749 323.799 645.828 323.799 645.828 323.799 645.906 323.799 645.985 323.799 645.985 323.799 646.064 323.799 646.064 323.799 646.143 323.799 646.221 323.799 646.3 323.799 646.458 323.721 646.536 323.721 646.615 323.721 646.615 323.642 646.694 323.642 646.773 323.563 646.851 323.563 646.93 323.563 646.93 323.484 647.009 323.484 647.088 323.405 647.166 323.405 647.245 323.326 647.403 323.169 647.481 323.011 647.56 322.854 647.639 322.617 647.718 322.381 647.718 322.144V322.065C651.34 307.483 655.041 292.901 658.664 278.319 658.9 277.373 659.136 276.428 659.373 275.561 659.451 275.088 659.609 274.615 659.688 274.142 659.688 273.984 659.766 273.905 659.766 273.826V273.748C659.766 273.59 659.845 273.432 659.845 273.275 659.845 272.959 659.845 272.644 659.766 272.408 659.688 272.092 659.53 271.856 659.373 271.541 659.215 271.304 658.979 271.068 658.743 270.91 658.506 270.752 658.27 270.595 658.034 270.516 657.798 270.437 657.483 270.358 657.246 270.358 657.01 270.358 656.616 270.437 656.38 270.437 656.223 270.437 656.065 270.516 655.986 270.595 655.75 270.674 655.514 270.91 655.278 271.068 655.041 271.304 654.884 271.541 654.726 271.777 654.648 271.935 654.569 272.014 654.569 272.171V272.25C654.569 272.25 654.569 272.25 654.569 272.329V272.408C654.569 272.565 654.49 272.644 654.49 272.723 654.411 273.196 654.254 273.669 654.175 274.142 653.939 275.088 653.703 276.033 653.466 276.901 649.844 291.483 646.143 306.065 642.52 320.647 642.52 320.647 642.52 320.647 642.52 320.725 642.599 321.198 642.52 321.435 642.441 321.75Z" fill="url(#paint40_linear_240_3820)"/></g></svg>