<svg width="555" height="555" viewBox="0 0 555 555" fill="none" xmlns="http://www.w3.org/2000/svg"><g clip-path="url(#clip0_5464_182617)"><path d="M277.604 61c-132.772 0-240.5 109.097-240.5 243.632 0 74.559 33.115 141.361 85.272 186.034 1.862 1.654 3.932 2.783 5.795 4.334 8.609 5.577 20.014 11 43.031 15 27.801 5.676 65.522 9 106.402 9 70.784 0 127.77-8.5 150.287-23.5 1.966-1.551 3.641-2.845 5.504-4.5 52.157-44.673 84.709-111.809 84.709-186.368C518.104 170.097 410.479 61 277.604 61z" fill="url(#paint0_linear_5464_182617)"/><path fill-rule="evenodd" clip-rule="evenodd" d="M427.01 492.109c1.714-1.686 2.233-3.053 2.233-4.109s-.519-2.423-2.233-4.109c-1.72-1.692-4.416-3.468-8.158-5.249-7.47-3.555-18.471-6.836-32.307-9.621-27.621-5.56-65.913-9.021-108.302-9.021-42.389 0-80.681 3.461-108.303 9.021-13.835 2.785-24.836 6.066-32.306 9.621-3.742 1.781-6.439 3.557-8.159 5.249-1.714 1.686-1.732 2.053-1.732 3.109s.018 1.814 1.732 3.5c1.72 1.692 4.417 2.719 8.159 4.5 7.47 3.555 18.471 7.215 32.306 10 27.622 5.56 65.914 9 108.303 9 42.389 0 80.681-2.94 108.302-8.5 13.836-2.785 24.837-5.445 32.307-9 3.742-1.781 6.438-2.699 8.158-4.391zM278.243 519c85.052 0 154-13.879 154-31 0-17.121-68.948-31-154-31s-154 13.879-154 31c0 17.121 68.948 31 154 31z" fill="url(#paint1_linear_5464_182617)"/><path d="M379.3 271.3c-1.8-6.3-5.1-12-9.8-16.6-4.2-4-9.5-7.2-17.3-7.2H194.4c-7.8 0-13.2 3.1-17.3 7.2-4.7 4.5-8 10.3-9.8 16.6l-13.6 47s1.8.2 3.2.2h7c3.3 0 6.5 1.8 7.9 5.1 2.6 6.7 13.2 41.8 36.7 41.8h129.6c23.5 0 34.1-35.1 36.7-41.8 1.4-3.4 4.6-5.1 7.9-5.1h7c1.4 0 3.2-.2 3.2-.2l-13.6-47z" fill="url(#paint2_linear_5464_182617)"/><path d="M416.3 318.3h-23.4c.5.8.1 3.5-.4 5.2L381 366.4c-1.7 5.4-5.1 16.6-16.6 16.6H182.2c-11.5 0-14.9-11.2-16.6-16.6l-11.4-42.9c-.5-1.7-.9-4.4-.4-5.2h-23.4c-12.2 0-15.2 9.8-13.4 17.4l15.6 73.2c3.8 14.3 12.1 14 23.4 14h234.6c11.2 0 19.5.3 23.4-14l15.6-73.2c1.8-7.6-1.1-17.4-13.3-17.4z" fill="url(#paint3_linear_5464_182617)"/><path d="M392.8 318.3s-1.8.2-3.2.2h-7c-3.3 0-6.5 1.8-7.9 5.1-2.6 6.7-13.2 41.8-36.7 41.8H208.4c-23.5 0-34.1-35.1-36.7-41.8-1.4-3.4-4.6-5.1-7.9-5.1h-7c-1.4 0-3.2-.2-3.2-.2-.5.8-.1 3.5.4 5.2l11.4 42.9c1.7 5.4 5.1 16.6 16.6 16.6h182.2c11.5 0 14.9-11.2 16.6-16.6l11.4-42.9c.8-1.7 1.1-4.3.6-5.2z" fill="url(#paint4_linear_5464_182617)"/><path d="M432.404 54.27c-11.2-6.4-23.8-5.5-28.1 2-.6 1.1-1 2.2-1.2 3.4v.2c-.2.9-.2 1.8-.2 2.7l-4.1 52.599 42.1-31.6c1.6-1 3-2.3 4-4 4.2-7.5-1.3-18.8-12.5-25.3z" fill="url(#paint5_linear_5464_182617)"/><path d="M152.404 57.57c-8.2 2.5-13.4 9.1-11.7 14.6.2.8.6 1.5 1.1 2.1l.1.1c.4.5.8.9 1.2 1.3l23.8 25.699 3.6-34.7c.2-1.3.2-2.5-.2-3.7-1.7-5.5-9.7-8-17.9-5.4z" fill="url(#paint6_linear_5464_182617)"/><path opacity=".26" d="M274.198 459.028c-77.721 0-140.708 11.32-140.708 18.575 0 .398.225.797.562 1.195 1.688 1.037 3.375 2.073 5.174 3.03 17.097 6.935 71.086 15.146 135.085 15.146 63.887 0 117.876-8.131 135.085-15.146 1.799-.957 3.486-1.993 5.173-3.03.338-.398.563-.797.563-1.195-.113-7.255-63.212-18.575-140.934-18.575z" fill="url(#paint7_radial_5464_182617)"/><path opacity=".2" d="M197.164 481.123c-27.341 0-49.499 6.821-49.499 11.192 0 .24.08.48.198.72.594.625 1.187 1.249 1.82 1.826 6.015 4.179 25.007 9.126 47.521 9.126 22.474 0 41.466-4.899 47.52-9.126.633-.577 1.227-1.201 1.82-1.826.119-.24.198-.48.198-.72-.04-4.371-22.237-11.192-49.578-11.192z" fill="url(#paint8_radial_5464_182617)"/><path d="M180.271 419.1l-24.3 61.3c-2.1 5.6 2.8 6.5 5.7 1.6l33-62.9h-14.4z" fill="url(#paint9_linear_5464_182617)"/><path d="M366.469 423l24.171 57.504c2.089 5.253-2.785 6.097-5.67 1.501L352.146 423h14.323z" fill="url(#paint10_linear_5464_182617)"/><path d="M257.59 222.733l-23.409 6.131c-8.026 2.118-14.38 8.249-16.721 16.164l-16.052 52.168s-6.911 14.157 27.088 37.455l5.842-14.64 73.77 4.077 4.215 10.563c33.999-23.298 27.088-37.455 27.088-37.455l-16.052-52.168c-2.341-7.915-8.695-14.046-16.721-16.164l-23.409-6.131H257.59z" fill="url(#paint11_linear_5464_182617)"/><path d="M326.368 426.504s-6.019 16.72-5.796 20.065c.223 3.344-14.826-12.374-14.826-12.374s5.016-4.347 6.911-12.485c1.895-8.137 13.711 4.794 13.711 4.794z" fill="url(#paint12_linear_5464_182617)"/><path d="M322.132 444.228c0 8.249.669 28.09 3.01 33.664 1.338 3.121-6.8 5.351-14.157 0-3.567-2.675-5.128-10.032-6.8-15.94-1.783-6.131-4.793-11.705-6.131-13.6-5.016-7.803 8.807-16.275 8.807-16.275 1.895 5.016 4.013 7.915 9.475 9.698 1.56.558 5.796.781 5.796 2.453z" fill="url(#paint13_linear_5464_182617)"/><path d="M237.079 265.093l-6.354 16.609h4.905l1.449-16.609z" fill="url(#paint14_linear_5464_182617)"/><path d="M304.185 265.093l6.466 16.609h-4.905l-1.561-16.609z" fill="url(#paint15_linear_5464_182617)"/><path d="M193.828 335.097s42.694-6.912 46.596-10.144c3.901-3.233 100.659 6.019 100.659 6.019l-8.918 35.56-60.529 1.114-74.798-21.737-3.01-10.812z" fill="url(#paint16_linear_5464_182617)"/><path d="M302.625 362.296l32.55 3.79-3.679 12.485-31.658-1.561 2.787-14.714z" fill="url(#paint17_linear_5464_182617)"/><path d="M345.764 366.309s14.157-4.125 16.944-2.453c2.787 1.673 7.58 10.144 6.577 13.934-.446 1.673-21.737 0-21.737 0l-1.784-11.481z" fill="url(#paint18_linear_5464_182617)"/><path d="M315.444 340.113h-90.181l-7.58-58.077c-.334-2.229 1.45-4.236 3.679-4.236h97.872c2.23 0 4.013 2.007 3.79 4.236l-7.58 58.077z" fill="url(#paint19_linear_5464_182617)"/><path d="M315.221 342.342h-89.623l-7.58-58.522c-.223-2.007 1.337-3.79 3.344-3.79h97.649c2.23 0 4.013 2.006 3.679 4.235l-7.469 58.077z" fill="url(#paint20_linear_5464_182617)"/><path d="M313.995 346.021h-87.171a1.237 1.237 0 01-1.226-1.226v-2.453h89.623v2.453c0 .669-.557 1.226-1.226 1.226z" fill="url(#paint21_linear_5464_182617)"/><path d="M322.021 280.921c-.669-.78-1.561-1.226-2.564-1.226h-98.318c-1.003 0-1.895.446-2.564 1.226s-.78 1.895-.669 2.898v-.111c.223-1.338.558-1.784 1.115-2.341.557-.669 1.449-.892 2.229-.892h98.207c.78 0 1.561.223 2.23.892.557.557.891 1.115 1.114 2.341v.111c.112-1.003-.111-2.229-.78-2.898z" fill="url(#paint22_linear_5464_182617)"/><path d="M315.221 342.342h-89.623l-7.58-58.522c-.223-2.007 1.337-3.79 3.344-3.79h97.649c2.23 0 4.013 2.006 3.679 4.235l-7.469 58.077z" fill="url(#paint23_linear_5464_182617)"/><path d="M270.41 317.707a6.466 6.466 0 10-.002-12.932 6.466 6.466 0 00.002 12.932z" fill="url(#paint24_linear_5464_182617)"/><path d="M269.072 348.473c15.383-8.806 59.303-23.52 70.673-23.52 14.603 0 24.747 13.154 18.95 32.996-7.357 25.192-22.963 58.299-29.317 70.896-1.003 2.006-3.233 2.675-5.685 2.452-3.01-.112-5.797-1.449-7.915-3.456l-6.019-5.016s8.137-52.169 18.727-66.883l-4.459 8.695-20.176-2.341.111-1.672-34.89-12.151z" fill="url(#paint25_linear_5464_182617)"/><path d="M328.709 356.165l-12.596 6.019-.223 1.561 8.36 1.003 4.459-8.583z" fill="url(#paint26_linear_5464_182617)"/><path d="M304.185 360.735s-40.687-14.714-49.27-16.609c-8.583-1.895-57.408-14.492-67.775-7.803-10.367 6.688-25.304 31.435 38.235 38.123 63.539 6.688 77.361 3.679 77.361 3.679l1.449-17.39z" fill="url(#paint27_linear_5464_182617)"/><path d="M278.212 235.552a17.478 17.478 0 01-15.94 0c-3.79-1.895-6.019-5.908-5.685-10.032l1.226-14.937h24.97l1.226 14.937c.334 4.236-2.006 8.137-5.797 10.032z" fill="url(#paint28_linear_5464_182617)"/><path d="M200.381 374.472s-20.251 15.468-49.151 15.061l-3.257 62.177s-3.46 17.096 12.822 28.595l16.282 11.398 24.22-9.77 2.544-1.221s10.278-5.8 13.941-14.145c3.664-8.344 24.322-70.114 24.322-70.114l-3.46-3.155c-2.239-.509-6.004 1.221-9.464 0-8.65-2.951-20.047-8.548-28.799-18.826z" fill="url(#paint29_linear_5464_182617)"/><path d="M196.625 374.472s-19.161 14.635-46.506 14.25l-3.081 58.831s-3.274 16.176 12.132 27.056c15.406 10.88 15.406 10.784 15.406 10.784l22.916-9.243 2.407-1.156s9.725-5.488 13.191-13.384c3.466-7.895 23.012-66.341 23.012-66.341s-23.878-2.599-39.477-20.797z" fill="url(#paint30_linear_5464_182617)"/><path d="M196.005 378.949c11.906 11.703 25.136 17.198 33.582 19.234-7.53 22.387-18.928 56.681-21.37 62.38-2.239 5.19-8.752 9.769-11.296 11.296l-2.137 1.017-21.167 8.548-12.923-9.158c-12.823-8.955-10.584-22.083-10.482-22.592l.102-.407v-.407l2.951-56.681c20.149-1.12 35.515-8.854 42.74-13.23zm.916-7.632s-19.64 15.061-47.93 15.061h-1.323l-3.256 62.177s-3.46 17.096 12.822 28.595l16.282 11.398 24.219-9.769 2.544-1.222s10.278-5.8 13.942-14.145c3.663-8.344 24.321-70.114 24.321-70.114s-25.135-2.748-41.621-21.981z" fill="url(#paint31_linear_5464_182617)"/><path d="M164.221 441.317c-1.342-3.828-1.37-8.511.038-13.643 3.637-12.733 15.383-22.96 26.325-22.778 10.941.181 16.944 10.59 13.311 23.424-1.412 5.031-4.174 9.695-7.632 13.464l-4.45-18.192-1.398 1.772-.52 5.004-2.848-13.15-6.347 7.928-.517 5.106-1.545-6.877-14.417 17.942z" fill="#fff"/><g clip-path="url(#clip1_5464_182617)"><path d="M292.481 193.639c-.223-.446-.669-.668-1.115-.78-1.784-.557-3.01-.223-3.344-3.79 0-.78-.223-1.784-.446-2.675v-2.899c0-3.901-1.672-7.357-4.236-9.921-1.895-4.681-3.79-8.137-3.79-8.137l-9.475 2.564-9.475-2.564s-1.784 3.456-3.79 8.137c-2.564 2.564-4.125 6.131-4.236 9.921v2.899c-.112.891-.335 1.895-.446 2.675-.223 3.456-1.449 3.121-3.344 3.79-.446.112-.78.446-1.115.78-3.01 4.459 2.118 13.266 3.902 11.928.446-.335.668-.446 1.114-.446.112 1.672 4.236 18.17 17.278 18.17 13.043 0 17.167-16.498 17.279-18.17.445 0 .668 0 1.114.446 2.007 1.338 7.134-7.469 4.125-11.928z" fill="url(#paint32_linear_5464_182617)"/><path d="M288.356 201.776c.892-4.793 1.115-8.472 1.115-8.472s1.115-1.226 2.452-.557c0 0 9.587-38.569-15.829-37.009-5.35.335-10.366 1.338-12.15 1.561-.557 0-1.003.111-1.449.223-.558 0-1.115.111-1.784.223-12.707 1.449-15.94.557-17.612-.223 0 0-.558 4.905 2.675 8.026 0 0-1.226 1.449-4.124-.781 0 0-3.79 7.915 5.239 11.482-.558 8.583 1.783 16.721 1.895 16.721 1.337-.669 2.452.557 2.452.557l.446 7.915c1.895 0 3.344-1.672 3.01-3.456-.669-4.124-.78-8.695-.892-11.816-.223-4.793.557-6.911 1.895-8.026 12.708 1.115 19.731-2.006 23.521-2.452.557 0 1.114.223 1.56.446 3.456 1.783 6.8 3.232 6.354 12.373-.111 2.898-.334 6.577-.892 9.921-.446 1.338.558 2.898 2.118 3.344z" fill="url(#paint33_linear_5464_182617)"/></g><path fill-rule="evenodd" clip-rule="evenodd" d="M124.46 488.276l.022.019c.775.688 1.617 1.289 2.6 1.972l.257.178c.837.58 1.788 1.239 2.708 1.991 8.184 5.28 19.178 10.526 41.698 14.439l.046.008.046.01c27.533 5.621 65.03 8.936 105.767 8.936 35.279 0 67.053-2.119 92.76-6.088 25.755-3.977 44.997-9.751 55.665-16.811l.568-.448c1.692-1.332 3.118-2.455 4.692-3.853l.021-.019.022-.019c51.46-44.076 83.6-110.336 83.6-183.959 0-132.823-106.244-240.46-237.328-240.46-130.982 0-237.329 107.638-237.329 240.46 0 73.602 32.687 139.535 84.164 183.625l.021.019zm303.431 7.224c-22.517 15-79.503 23.5-150.287 23.5-40.88 0-78.601-3.324-106.402-9-23.017-4-34.422-9.423-43.031-15-.854-.711-1.751-1.333-2.651-1.957-1.065-.739-2.135-1.481-3.144-2.377-52.157-44.673-85.272-111.475-85.272-186.034C37.104 170.097 144.832 61 277.604 61c132.875 0 240.5 109.097 240.5 243.632 0 74.559-32.552 141.695-84.709 186.368-1.648 1.464-3.15 2.646-4.836 3.973l-.668.527z" fill="url(#paint34_radial_5464_182617)" fill-opacity=".4"/><path d="M304.903 98.023c19.7-.2 54.6 0 107.7 40 30.8 23.2 65 85.3 60.6 114.4-.6 4.1-.7 8.2-4.6 9.5-3.2 1.1-6.8-.2-8.6-3.1-14.6-23.3-70.3-113.2-161.2-141.2-14.6-4.6-15.8-19.4 6.1-19.6z" fill="#fff"/><g filter="url(#filter0_f_5464_182617)"><path d="M425.192 420.024c-5.698-2.698-8.465-8.676-8.133-16.37.332-7.677 3.756-16.931 10.237-25.919 6.482-8.987 14.749-15.948 22.841-19.951 8.108-4.011 15.894-4.992 21.591-2.294 5.698 2.698 8.465 8.675 8.133 16.369-.331 7.677-3.756 16.931-10.237 25.919s-14.749 15.948-22.84 19.951c-8.109 4.011-15.894 4.993-21.592 2.295z" stroke="#BDD4FF" stroke-width="1.5"/></g><g filter="url(#filter1_f_5464_182617)"><path d="M436.434 405.445c-2.914-1.379-4.385-4.466-4.209-8.55.175-4.068 1.993-8.994 5.453-13.792 3.459-4.798 7.864-8.5 12.151-10.62 4.304-2.13 8.345-2.606 11.259-1.226 2.914 1.38 4.386 4.466 4.209 8.55-.175 4.068-1.993 8.994-5.453 13.792-3.459 4.798-7.864 8.5-12.151 10.621-4.304 2.129-8.345 2.605-11.259 1.225z" stroke="#77A7FF" stroke-width="1.5"/></g><g filter="url(#filter2_f_5464_182617)"><path d="M445.491 393.502c-.586-.277-.974-.946-.928-2.011.045-1.049.519-2.357 1.452-3.651.933-1.294 2.106-2.27 3.212-2.817 1.123-.555 2.032-.609 2.618-.332.586.278.974.946.928 2.012-.045 1.049-.519 2.356-1.452 3.65-.933 1.294-2.106 2.27-3.212 2.817-1.123.556-2.032.61-2.618.332z" stroke="#427FF0" stroke-width="1.5"/></g><g filter="url(#filter3_f_5464_182617)"><path d="M145.429 443.223c-3.216 3.97-8.639 5.612-14.949 4.904-6.301-.707-13.386-3.755-19.728-9.014-6.342-5.26-10.687-11.691-12.61-17.804-1.924-6.121-1.398-11.824 1.818-15.794 3.216-3.97 8.638-5.611 14.948-4.904 6.302.707 13.387 3.755 19.729 9.015 6.342 5.259 10.687 11.69 12.609 17.803 1.925 6.122 1.399 11.824-1.817 15.794z" stroke="#BDD4FF" stroke-width="1.5"/></g><g filter="url(#filter4_f_5464_182617)"><path d="M135.218 434.117c-1.634 2.017-4.42 2.889-7.746 2.516-3.318-.372-7.072-1.982-10.443-4.777-3.371-2.796-5.667-6.204-6.679-9.423-1.015-3.227-.717-6.162.917-8.179 1.634-2.017 4.419-2.888 7.746-2.515 3.318.372 7.071 1.981 10.442 4.777 3.371 2.795 5.668 6.204 6.68 9.422 1.015 3.227.717 6.162-.917 8.179z" stroke="#77A7FF" stroke-width="1.5"/></g><g filter="url(#filter5_f_5464_182617)"><path d="M126.826 426.769c-.311.384-.891.612-1.722.518-.823-.092-1.791-.498-2.677-1.233-.887-.735-1.47-1.616-1.721-2.414-.253-.806-.147-1.427.164-1.81.311-.384.892-.612 1.722-.519.823.093 1.791.499 2.677 1.234.887.735 1.47 1.616 1.721 2.414.254.806.147 1.427-.164 1.81z" stroke="#427FF0" stroke-width="1.5"/></g><g filter="url(#filter6_f_5464_182617)"><path d="M149.905 163.647c7.138 3.171 10.716 10.479 10.535 19.945-.179 9.45-4.115 20.918-11.805 32.143-7.691 11.226-17.639 20.022-27.469 25.184-9.848 5.17-19.432 6.63-26.57 3.458-7.137-3.171-10.714-10.479-10.534-19.945.18-9.45 4.115-20.918 11.805-32.143 7.691-11.226 17.639-20.022 27.469-25.184 9.848-5.17 19.432-6.63 26.569-3.458z" stroke="#BDD4FF" stroke-width="1.5"/></g><g filter="url(#filter7_f_5464_182617)"><path d="M136.56 181.842c3.688 1.639 5.593 5.441 5.497 10.48-.096 5.022-2.189 11.14-6.301 17.143-4.112 6.002-9.423 10.691-14.647 13.434-5.242 2.752-10.252 3.482-13.94 1.844-3.688-1.639-5.592-5.442-5.496-10.481.095-5.022 2.189-11.14 6.301-17.142 4.112-6.002 9.422-10.691 14.647-13.434 5.241-2.752 10.252-3.483 13.939-1.844z" stroke="#77A7FF" stroke-width="1.5"/></g><g filter="url(#filter8_f_5464_182617)"><path d="M125.815 196.745c.803.356 1.309 1.228 1.283 2.564-.025 1.319-.579 2.963-1.698 4.597-1.119 1.634-2.551 2.888-3.923 3.609-1.39.729-2.576.849-3.378.493-.803-.357-1.309-1.229-1.283-2.564.025-1.32.579-2.964 1.698-4.598 1.119-1.633 2.551-2.888 3.923-3.608 1.39-.73 2.576-.85 3.378-.493z" stroke="#427FF0" stroke-width="1.5"/></g><path d="M123.242 424.8l-74.4 35.4 51 37.4 23.4-72.8z" fill="url(#paint35_linear_5464_182617)"/><path d="M43.642 464.5c-7.4 9.7-1.5 26.7 13.2 37.9s32.6 12.3 40 2.6c7.4-9.7 1.5-26.7-13.2-37.9-14.7-11.1-32.6-12.3-40-2.6z" fill="url(#paint36_linear_5464_182617)"/><path d="M123.004 200.206l-35.8-66.2-41.4 45.4 77.2 20.8z" fill="url(#paint37_linear_5464_182617)"/><path d="M84.004 129.606c9 9 6.1 26.5-6.4 39-12.6 12.6-30 15.4-39 6.4s-6.1-26.5 6.4-39 30-15.4 39-6.4z" fill="url(#paint38_linear_5464_182617)"/><path d="M448.104 385.906l74.4 35.4-51 37.4-23.4-72.8z" fill="url(#paint39_linear_5464_182617)"/><path d="M527.704 425.606c7.4 9.7 1.5 26.7-13.2 37.9s-32.6 12.3-40 2.6c-7.4-9.7-1.5-26.7 13.2-37.9 14.7-11.1 32.6-12.3 40-2.6z" fill="url(#paint40_linear_5464_182617)"/></g><defs><linearGradient id="paint26_linear_5464_182617" x1="315.956" y1="360.459" x2="328.734" y2="360.459" gradientUnits="userSpaceOnUse"><stop offset=".149" stop-color="#0E1B33"/><stop offset="1" stop-color="#233B67"/></linearGradient><linearGradient id="paint19_linear_5464_182617" x1="323.043" y1="256.094" x2="323.043" y2="356.833" gradientUnits="userSpaceOnUse"><stop stop-color="#BDD4FF"/><stop offset="1" stop-color="#E7EFFF"/></linearGradient><linearGradient id="paint1_linear_5464_182617" x1="272.822" y1="564.704" x2="272.822" y2="494.634" gradientUnits="userSpaceOnUse"><stop stop-color="#DDE9FF"/><stop offset=".474" stop-color="#CEDFFF"/><stop offset="1" stop-color="#BDD4FF"/></linearGradient><linearGradient id="paint2_linear_5464_182617" x1="223.083" y1="361.141" x2="226.009" y2="247.5" gradientUnits="userSpaceOnUse"><stop stop-color="#E7EFFF"/><stop offset="1" stop-color="#fff"/></linearGradient><linearGradient id="paint3_linear_5464_182617" x1="207.475" y1="419.122" x2="209.232" y2="318.264" gradientUnits="userSpaceOnUse"><stop stop-color="#E7EFFF"/><stop offset="1" stop-color="#fff"/></linearGradient><linearGradient id="paint4_linear_5464_182617" x1="232.404" y1="418.687" x2="224.729" y2="306.348" gradientUnits="userSpaceOnUse"><stop stop-color="#BDD4FF"/><stop offset="1" stop-color="#E7EFFF"/></linearGradient><linearGradient id="paint5_linear_5464_182617" x1="443.257" y1="102.544" x2="406.989" y2="79.185" gradientUnits="userSpaceOnUse"><stop stop-color="#F86E80"/><stop offset=".999" stop-color="#FFD4D8"/></linearGradient><linearGradient id="paint6_linear_5464_182617" x1="180.79" y1="73.936" x2="153.124" y2="81.089" gradientUnits="userSpaceOnUse"><stop stop-color="#F86E80"/><stop offset=".999" stop-color="#FFD4D8"/></linearGradient><linearGradient id="paint40_linear_5464_182617" x1="475.468" y1="422.077" x2="514.777" y2="458.504" gradientUnits="userSpaceOnUse"><stop stop-color="#F86E80"/><stop offset=".999" stop-color="#FFD4D8"/></linearGradient><linearGradient id="paint39_linear_5464_182617" x1="461.467" y1="446.264" x2="484.267" y2="405.383" gradientUnits="userSpaceOnUse"><stop stop-color="#F86E80"/><stop offset=".999" stop-color="#FFD4D8"/></linearGradient><linearGradient id="paint9_linear_5464_182617" x1="158.095" y1="429.526" x2="176.804" y2="469.859" gradientUnits="userSpaceOnUse"><stop stop-color="#BDD4FF"/><stop offset="1" stop-color="#E7EFFF"/></linearGradient><linearGradient id="paint10_linear_5464_182617" x1="354.763" y1="432.78" x2="371.646" y2="471.371" gradientUnits="userSpaceOnUse"><stop stop-color="#BDD4FF"/><stop offset="1" stop-color="#E7EFFF"/></linearGradient><linearGradient id="paint11_linear_5464_182617" x1="321.249" y1="328.425" x2="319.912" y2="246.23" gradientUnits="userSpaceOnUse"><stop stop-color="#4687FF"/><stop offset=".999" stop-color="#77A7FF"/></linearGradient><linearGradient id="paint12_linear_5464_182617" x1="305.746" y1="432.973" x2="326.393" y2="432.973" gradientUnits="userSpaceOnUse"><stop stop-color="#F6CFBE"/><stop offset="1" stop-color="#FFE8E1"/></linearGradient><linearGradient id="paint13_linear_5464_182617" x1="297.105" y1="456.615" x2="325.343" y2="456.615" gradientUnits="userSpaceOnUse"><stop offset=".149" stop-color="#0E1B33"/><stop offset="1" stop-color="#233B67"/></linearGradient><linearGradient id="paint14_linear_5464_182617" x1="237.079" y1="261.235" x2="236.267" y2="244.253" gradientUnits="userSpaceOnUse"><stop stop-color="#4687FF"/><stop offset=".999" stop-color="#77A7FF"/></linearGradient><linearGradient id="paint15_linear_5464_182617" x1="310.651" y1="261.235" x2="309.852" y2="244.251" gradientUnits="userSpaceOnUse"><stop stop-color="#4687FF"/><stop offset=".999" stop-color="#77A7FF"/></linearGradient><linearGradient id="paint16_linear_5464_182617" x1="194.59" y1="345.97" x2="341.368" y2="345.97" gradientUnits="userSpaceOnUse"><stop offset=".149" stop-color="#0E1B33"/><stop offset="1" stop-color="#233B67"/></linearGradient><linearGradient id="paint18_linear_5464_182617" x1="345.775" y1="370.987" x2="369.385" y2="370.987" gradientUnits="userSpaceOnUse"><stop stop-color="#0E1B33"/><stop offset=".998" stop-color="#233B67"/></linearGradient><linearGradient id="paint0_linear_5464_182617" x1="155.707" y1="758.516" x2="163.746" y2="-100.268" gradientUnits="userSpaceOnUse"><stop stop-color="#BDD4FF"/><stop offset="1" stop-color="#E7EFFF"/></linearGradient><linearGradient id="paint20_linear_5464_182617" x1="270.344" y1="342.742" x2="270.344" y2="259.546" gradientUnits="userSpaceOnUse"><stop offset=".144" stop-color="#E5EAF9"/><stop offset="1" stop-color="#EBEEF5"/></linearGradient><linearGradient id="paint21_linear_5464_182617" x1="297.698" y1="366.769" x2="225.567" y2="306.244" gradientUnits="userSpaceOnUse"><stop offset=".144" stop-color="#E5EAF9"/><stop offset="1" stop-color="#DCDFEA"/></linearGradient><linearGradient id="paint22_linear_5464_182617" x1="217.914" y1="281.738" x2="322.8" y2="281.738" gradientUnits="userSpaceOnUse"><stop stop-color="#fff"/><stop offset=".465" stop-color="#EFF4FF" stop-opacity="0"/><stop offset="1" stop-color="#fff"/></linearGradient><linearGradient id="paint23_linear_5464_182617" x1="248.376" y1="340.091" x2="250.242" y2="280.048" gradientUnits="userSpaceOnUse"><stop stop-color="#E7EFFF"/><stop offset="1" stop-color="#fff"/></linearGradient><linearGradient id="paint24_linear_5464_182617" x1="276.875" y1="304.776" x2="276.875" y2="321.177" gradientUnits="userSpaceOnUse"><stop stop-color="#BDD4FF"/><stop offset="1" stop-color="#E7EFFF"/></linearGradient><linearGradient id="paint25_linear_5464_182617" x1="269.544" y1="378.178" x2="360.53" y2="378.178" gradientUnits="userSpaceOnUse"><stop offset=".149" stop-color="#0E1B33"/><stop offset="1" stop-color="#233B67"/></linearGradient><linearGradient id="paint17_linear_5464_182617" x1="317.517" y1="378.543" x2="317.517" y2="362.245" gradientUnits="userSpaceOnUse"><stop stop-color="#F6CFBE"/><stop offset="1" stop-color="#FFE8E1"/></linearGradient><linearGradient id="paint27_linear_5464_182617" x1="178.461" y1="356.605" x2="304.431" y2="356.605" gradientUnits="userSpaceOnUse"><stop offset=".149" stop-color="#0E1B33"/><stop offset="1" stop-color="#233B67"/></linearGradient><linearGradient id="paint28_linear_5464_182617" x1="249.834" y1="227.733" x2="266.754" y2="223.617" gradientUnits="userSpaceOnUse"><stop stop-color="#FFE8E1"/><stop offset=".838" stop-color="#F6CFBE"/></linearGradient><linearGradient id="paint29_linear_5464_182617" x1="250.852" y1="251.226" x2="186.623" y2="491.703" gradientUnits="userSpaceOnUse"><stop stop-color="#BDD4FF"/><stop offset=".23" stop-color="#B1CCFF"/><stop offset=".65" stop-color="#92B9FF"/><stop offset=".96" stop-color="#77A7FF"/></linearGradient><linearGradient id="paint30_linear_5464_182617" x1="181.247" y1="485.393" x2="188.794" y2="382.713" gradientUnits="userSpaceOnUse"><stop stop-color="#4687FF"/><stop offset=".999" stop-color="#77A7FF"/></linearGradient><linearGradient id="paint31_linear_5464_182617" x1="221.428" y1="362.739" x2="183.061" y2="488.548" gradientUnits="userSpaceOnUse"><stop stop-color="#BDD4FF"/><stop offset=".23" stop-color="#B1CCFF"/><stop offset=".65" stop-color="#92B9FF"/><stop offset=".96" stop-color="#77A7FF"/></linearGradient><linearGradient id="paint32_linear_5464_182617" x1="270.203" y1="208" x2="270.203" y2="176.767" gradientUnits="userSpaceOnUse"><stop stop-color="#FFE8E1"/><stop offset=".468" stop-color="#FADACD"/><stop offset=".838" stop-color="#F6CFBE"/></linearGradient><linearGradient id="paint33_linear_5464_182617" x1="271" y1="199.5" x2="243" y2="156" gradientUnits="userSpaceOnUse"><stop stop-color="#0E1B33"/><stop offset="1" stop-color="#233B67"/></linearGradient><linearGradient id="paint38_linear_5464_182617" x1="101.636" y1="180.881" x2="46.915" y2="142.223" gradientUnits="userSpaceOnUse"><stop stop-color="#F86E80"/><stop offset=".999" stop-color="#FFD4D8"/></linearGradient><linearGradient id="paint35_linear_5464_182617" x1="109.879" y1="485.158" x2="87.079" y2="444.277" gradientUnits="userSpaceOnUse"><stop stop-color="#F86E80"/><stop offset=".999" stop-color="#FFD4D8"/></linearGradient><linearGradient id="paint36_linear_5464_182617" x1="95.878" y1="460.971" x2="56.569" y2="497.398" gradientUnits="userSpaceOnUse"><stop stop-color="#F86E80"/><stop offset=".999" stop-color="#FFD4D8"/></linearGradient><linearGradient id="paint37_linear_5464_182617" x1="77.608" y1="205.61" x2="97.071" y2="160.378" gradientUnits="userSpaceOnUse"><stop stop-color="#F86E80"/><stop offset=".999" stop-color="#FFD4D8"/></linearGradient><filter id="filter2_f_5464_182617" x="439.752" y="379.839" width="17.832" height="18.515" filterUnits="userSpaceOnUse" color-interpolation-filters="sRGB"><feFlood flood-opacity="0" result="BackgroundImageFix"/><feBlend in="SourceGraphic" in2="BackgroundImageFix" result="shape"/><feGaussianBlur stdDeviation="2" result="effect1_foregroundBlur_5464_182617"/></filter><filter id="filter4_f_5464_182617" x="105.018" y="406.901" width="36.45" height="34.57" filterUnits="userSpaceOnUse" color-interpolation-filters="sRGB"><feFlood flood-opacity="0" result="BackgroundImageFix"/><feBlend in="SourceGraphic" in2="BackgroundImageFix" result="shape"/><feGaussianBlur stdDeviation="2" result="effect1_foregroundBlur_5464_182617"/></filter><filter id="filter6_f_5464_182617" x="79.249" y="157.288" width="86.003" height="93.447" filterUnits="userSpaceOnUse" color-interpolation-filters="sRGB"><feFlood flood-opacity="0" result="BackgroundImageFix"/><feBlend in="SourceGraphic" in2="BackgroundImageFix" result="shape"/><feGaussianBlur stdDeviation="2" result="effect1_foregroundBlur_5464_182617"/></filter><filter id="filter7_f_5464_182617" x="96.863" y="176.286" width="50.003" height="54.012" filterUnits="userSpaceOnUse" color-interpolation-filters="sRGB"><feFlood flood-opacity="0" result="BackgroundImageFix"/><feBlend in="SourceGraphic" in2="BackgroundImageFix" result="shape"/><feGaussianBlur stdDeviation="2" result="effect1_foregroundBlur_5464_182617"/></filter><filter id="filter8_f_5464_182617" x="112.009" y="191.861" width="19.896" height="21.031" filterUnits="userSpaceOnUse" color-interpolation-filters="sRGB"><feFlood flood-opacity="0" result="BackgroundImageFix"/><feBlend in="SourceGraphic" in2="BackgroundImageFix" result="shape"/><feGaussianBlur stdDeviation="2" result="effect1_foregroundBlur_5464_182617"/></filter><filter id="filter0_f_5464_182617" x="412.225" y="349.284" width="72.469" height="76.946" filterUnits="userSpaceOnUse" color-interpolation-filters="sRGB"><feFlood flood-opacity="0" result="BackgroundImageFix"/><feBlend in="SourceGraphic" in2="BackgroundImageFix" result="shape"/><feGaussianBlur stdDeviation="2" result="effect1_foregroundBlur_5464_182617"/></filter><filter id="filter1_f_5464_182617" x="427.403" y="365.788" width="42.715" height="45.126" filterUnits="userSpaceOnUse" color-interpolation-filters="sRGB"><feFlood flood-opacity="0" result="BackgroundImageFix"/><feBlend in="SourceGraphic" in2="BackgroundImageFix" result="shape"/><feGaussianBlur stdDeviation="2" result="effect1_foregroundBlur_5464_182617"/></filter><filter id="filter5_f_5464_182617" x="115.819" y="416.537" width="16.058" height="15.525" filterUnits="userSpaceOnUse" color-interpolation-filters="sRGB"><feFlood flood-opacity="0" result="BackgroundImageFix"/><feBlend in="SourceGraphic" in2="BackgroundImageFix" result="shape"/><feGaussianBlur stdDeviation="2" result="effect1_foregroundBlur_5464_182617"/></filter><filter id="filter3_f_5464_182617" x="92.278" y="395.697" width="60.834" height="57.343" filterUnits="userSpaceOnUse" color-interpolation-filters="sRGB"><feFlood flood-opacity="0" result="BackgroundImageFix"/><feBlend in="SourceGraphic" in2="BackgroundImageFix" result="shape"/><feGaussianBlur stdDeviation="2" result="effect1_foregroundBlur_5464_182617"/></filter><radialGradient id="paint34_radial_5464_182617" cx="0" cy="0" r="1" gradientUnits="userSpaceOnUse" gradientTransform="rotate(89.168 172.673 113.95) scale(1033.25 1109.62)"><stop stop-color="#E7EFFF"/><stop offset="1" stop-color="#BDD4FF"/></radialGradient><radialGradient id="paint8_radial_5464_182617" cx="0" cy="0" r="1" gradientUnits="userSpaceOnUse" gradientTransform="matrix(49.5647 0 0 10.0289 197.177 492.555)"><stop stop-color="#4873C4" stop-opacity=".9"/><stop offset=".375" stop-color="#4771C0" stop-opacity=".867"/><stop offset=".714" stop-color="#2D4A80" stop-opacity=".278"/><stop offset="1" stop-color="#233B67" stop-opacity="0"/></radialGradient><radialGradient id="paint7_radial_5464_182617" cx="0" cy="0" r="1" gradientUnits="userSpaceOnUse" gradientTransform="matrix(160.61392 .15872 -.01864 18.8625 274.236 478.001)"><stop stop-color="#4873C4" stop-opacity=".9"/><stop offset=".375" stop-color="#4771C0" stop-opacity=".867"/><stop offset=".714" stop-color="#2D4A80" stop-opacity=".278"/><stop offset="1" stop-color="#233B67" stop-opacity="0"/></radialGradient><clipPath id="clip0_5464_182617"><path fill="#fff" d="M0 0h555v555H0z"/></clipPath><clipPath id="clip1_5464_182617"><path fill="#fff" transform="translate(240.869 155.85)" d="M0 0h52.838v67.44H0z"/></clipPath></defs></svg>