<svg fill="none" height="495" viewBox="0 0 945 495" width="945" xmlns="http://www.w3.org/2000/svg" xmlns:xlink="http://www.w3.org/1999/xlink"><linearGradient id="lg1"><stop offset="0" stop-color="#edf3ff"/><stop offset="1" stop-color="#bdd4ff"/></linearGradient><linearGradient id="paint0_linear_445_306" gradientUnits="userSpaceOnUse" x1="188.5" x2="609" xlink:href="#lg1" y1="247" y2="432"/><linearGradient id="lg2"><stop offset="0" stop-color="#233b67"/><stop offset="1" stop-color="#0e1b33"/></linearGradient><linearGradient id="paint1_linear_445_306" gradientUnits="userSpaceOnUse" x1="674.31" x2="911.252" xlink:href="#lg2" y1="305.188" y2="181.27"/><radialGradient id="paint2_radial_445_306" cx="0" cy="0" gradientTransform="matrix(-689.04363737 2.15267535 -.66224774 -211.97696552 471.248 397.089)" gradientUnits="userSpaceOnUse" r="1"><stop offset="0" stop-color="#4687ff"/><stop offset=".0783" stop-color="#4687ff" stop-opacity=".9217"/><stop offset="1" stop-color="#4687ff" stop-opacity="0"/></radialGradient><linearGradient id="lg3"><stop offset="0" stop-color="#305eb2"/><stop offset="1" stop-color="#233b67"/></linearGradient><linearGradient id="paint3_linear_445_306" gradientUnits="userSpaceOnUse" x1="404.246" x2="404.034" xlink:href="#lg3" y1="452.163" y2="466.36"/><linearGradient id="paint4_linear_445_306" gradientUnits="userSpaceOnUse" x1="183.926" x2="636.524" xlink:href="#lg2" y1="438.998" y2="438.998"/><linearGradient id="paint5_linear_445_306" gradientUnits="userSpaceOnUse" x1="74.472" x2="59.7753" xlink:href="#lg3" y1="397.855" y2="463.99"/><radialGradient id="paint6_radial_445_306" cx="127.759" cy="252.818" gradientUnits="userSpaceOnUse" r="155.329" xlink:href="#lg1"/><linearGradient id="paint7_linear_445_306" gradientUnits="userSpaceOnUse" x1="271.256" x2="271.467" xlink:href="#lg3" y1="443.015" y2="429.242"/><linearGradient id="paint8_linear_445_306" gradientUnits="userSpaceOnUse" x1="299.701" x2="299.912" xlink:href="#lg3" y1="443.453" y2="429.68"/><linearGradient id="paint9_linear_445_306" gradientUnits="userSpaceOnUse" x1="328.144" x2="328.356" xlink:href="#lg3" y1="443.89" y2="430.117"/><linearGradient id="paint10_linear_445_306" gradientUnits="userSpaceOnUse" x1="359.373" x2="359.585" xlink:href="#lg3" y1="444.371" y2="430.598"/><linearGradient id="paint11_linear_445_306" gradientUnits="userSpaceOnUse" x1="387.816" x2="388.028" xlink:href="#lg3" y1="444.808" y2="431.035"/><linearGradient id="paint12_linear_445_306" gradientUnits="userSpaceOnUse" x1="416.26" x2="416.472" xlink:href="#lg3" y1="445.246" y2="431.473"/><linearGradient id="lg4"><stop offset="0" stop-color="#77a7ff"/><stop offset="1" stop-color="#4687ff"/></linearGradient><linearGradient id="paint13_linear_445_306" gradientUnits="userSpaceOnUse" x1="350.411" x2="609.315" xlink:href="#lg4" y1="14.7215" y2="332.526"/><linearGradient id="lg5"><stop offset="0" stop-color="#ffe4e8"/><stop offset="1" stop-color="#f64f64"/></linearGradient><linearGradient id="paint14_linear_445_306" gradientUnits="userSpaceOnUse" x1="133.709" x2="327.799" xlink:href="#lg5" y1="272.556" y2="235.293"/><linearGradient id="lg6"><stop offset="0" stop-color="#e9f9ee"/><stop offset="1" stop-color="#27be56"/></linearGradient><linearGradient id="paint15_linear_445_306" gradientUnits="userSpaceOnUse" x1="625.052" x2="638.46" xlink:href="#lg6" y1="295.158" y2="218.925"/><linearGradient id="paint16_linear_445_306" gradientUnits="userSpaceOnUse" x1="676.299" x2="549.142" xlink:href="#lg6" y1="142.715" y2="221.992"/><linearGradient id="paint17_linear_445_306" gradientUnits="userSpaceOnUse" x1="312.456" x2="-72.1387" xlink:href="#lg5" y1="322.645" y2="97.2286"/><linearGradient id="paint18_linear_445_306" gradientUnits="userSpaceOnUse" x1="869.317" x2="826.931" y1="155.834" y2="195.865"><stop offset="0" stop-color="#fff5c8"/><stop offset="1" stop-color="#f9dc5c"/></linearGradient><linearGradient id="paint19_linear_445_306" gradientUnits="userSpaceOnUse" x1="640.364" x2="712.183" xlink:href="#lg4" y1="270.313" y2="268.215"/><linearGradient id="paint20_linear_445_306" gradientUnits="userSpaceOnUse" x1="609.275" x2="603.912" xlink:href="#lg6" y1="180.874" y2="200.411"/><linearGradient id="lg7"><stop offset="0" stop-color="#bdd4ff"/><stop offset="1" stop-color="#77a7ff"/></linearGradient><linearGradient id="paint21_linear_445_306" gradientUnits="userSpaceOnUse" x1="211.056" x2="573.668" xlink:href="#lg7" y1="247.097" y2="236.504"/><linearGradient id="paint22_linear_445_306" gradientUnits="userSpaceOnUse" x1="629.41" x2="782.79" xlink:href="#lg7" y1="257.462" y2="252.981"/><linearGradient id="paint23_linear_445_306" gradientUnits="userSpaceOnUse" x1="36.2961" x2="855.095" xlink:href="#lg5" y1="300.483" y2="76.5496"/><linearGradient id="paint24_linear_445_306" gradientUnits="userSpaceOnUse" x1="22.8236" x2="316.17" xlink:href="#lg5" y1="259.603" y2="289.563"/><radialGradient id="paint25_radial_445_306" cx="126.893" cy="272.33" gradientUnits="userSpaceOnUse" r="362.957"><stop offset=".000167927" stop-color="#ffffff"/><stop offset=".9998" stop-color="#ffffff" stop-opacity="0"/></radialGradient><linearGradient id="paint26_linear_445_306" gradientUnits="userSpaceOnUse" x1="143.242" x2="488.22" y1="357.873" y2="177.453"><stop offset=".000167927" stop-color="#ffffff" stop-opacity=".7"/><stop offset=".9998" stop-color="#ffffff" stop-opacity="0"/></linearGradient><linearGradient id="lg8"><stop offset="0" stop-color="#f6cfbe"/><stop offset="1" stop-color="#ffe8e1"/></linearGradient><linearGradient id="paint27_linear_445_306" gradientUnits="userSpaceOnUse" x1="576.839" x2="388.237" xlink:href="#lg8" y1="207.052" y2="373.746"/><linearGradient id="lg9"><stop offset="0" stop-color="#f6cfbe"/><stop offset="1" stop-color="#bf8e80"/></linearGradient><linearGradient id="paint28_linear_445_306" gradientUnits="userSpaceOnUse" x1="517.672" x2="464.015" xlink:href="#lg9" y1="219.034" y2="215.376"/><linearGradient id="paint29_linear_445_306" gradientUnits="userSpaceOnUse" x1="550.87" x2="550.464" xlink:href="#lg8" y1="174.3" y2="182.901"/><linearGradient id="paint30_linear_445_306" gradientUnits="userSpaceOnUse" x1="539.006" x2="538.799" xlink:href="#lg8" y1="180.598" y2="184.98"/><linearGradient id="paint31_linear_445_306" gradientUnits="userSpaceOnUse" x1="436.092" x2="659.844" xlink:href="#lg9" y1="219.503" y2="216.949"/><linearGradient id="paint32_linear_445_306" gradientUnits="userSpaceOnUse" x1="577.562" x2="489.916" xlink:href="#lg1" y1="199.59" y2="237.804"/><linearGradient id="paint33_linear_445_306" gradientUnits="userSpaceOnUse" x1="540.618" x2="549.889" xlink:href="#lg4" y1="259.44" y2="259.44"/><linearGradient id="paint34_linear_445_306" gradientUnits="userSpaceOnUse" x1="544.007" x2="553.278" xlink:href="#lg4" y1="243.092" y2="243.092"/><linearGradient id="paint35_linear_445_306" gradientUnits="userSpaceOnUse" x1="547.5" x2="556.771" xlink:href="#lg4" y1="226.263" y2="226.263"/><linearGradient id="paint36_linear_445_306" gradientUnits="userSpaceOnUse" x1="550.894" x2="560.165" xlink:href="#lg4" y1="209.915" y2="209.915"/><linearGradient id="paint37_linear_445_306" gradientUnits="userSpaceOnUse" x1="554.283" x2="563.554" xlink:href="#lg4" y1="193.428" y2="193.428"/><linearGradient id="paint38_linear_445_306" gradientUnits="userSpaceOnUse" x1="557.727" x2="566.998" xlink:href="#lg4" y1="176.669" y2="176.669"/><linearGradient id="paint39_linear_445_306" gradientUnits="userSpaceOnUse" x1="561.119" x2="570.39" xlink:href="#lg4" y1="160.321" y2="160.321"/><linearGradient id="paint40_linear_445_306" gradientUnits="userSpaceOnUse" x1="519.975" x2="490.572" xlink:href="#lg1" y1="160.149" y2="164.546"/><linearGradient id="paint41_linear_445_306" gradientUnits="userSpaceOnUse" x1="522.194" x2="531.465" xlink:href="#lg4" y1="208.501" y2="208.501"/><linearGradient id="paint42_linear_445_306" gradientUnits="userSpaceOnUse" x1="516.153" x2="525.424" xlink:href="#lg4" y1="193.315" y2="193.315"/><linearGradient id="paint43_linear_445_306" gradientUnits="userSpaceOnUse" x1="509.95" x2="519.222" xlink:href="#lg4" y1="177.786" y2="177.786"/><linearGradient id="paint44_linear_445_306" gradientUnits="userSpaceOnUse" x1="503.97" x2="513.241" xlink:href="#lg4" y1="162.6" y2="162.6"/><linearGradient id="paint45_linear_445_306" gradientUnits="userSpaceOnUse" x1="497.878" x2="507.149" xlink:href="#lg4" y1="147.277" y2="147.277"/><linearGradient id="paint46_linear_445_306" gradientUnits="userSpaceOnUse" x1="491.679" x2="500.95" xlink:href="#lg4" y1="131.749" y2="131.749"/><linearGradient id="paint47_linear_445_306" gradientUnits="userSpaceOnUse" x1="485.638" x2="494.909" xlink:href="#lg4" y1="116.564" y2="116.564"/><linearGradient id="paint48_linear_445_306" gradientUnits="userSpaceOnUse" x1="539.833" x2="503.606" xlink:href="#lg1" y1="184.412" y2="132.305"/><linearGradient id="paint49_linear_445_306" gradientUnits="userSpaceOnUse" x1="535.813" x2="544.236" xlink:href="#lg4" y1="236.718" y2="236.718"/><linearGradient id="paint50_linear_445_306" gradientUnits="userSpaceOnUse" x1="536.498" x2="544.921" xlink:href="#lg4" y1="220.78" y2="220.78"/><linearGradient id="paint51_linear_445_306" gradientUnits="userSpaceOnUse" x1="537.239" x2="545.663" xlink:href="#lg4" y1="204.5" y2="204.5"/><linearGradient id="paint52_linear_445_306" gradientUnits="userSpaceOnUse" x1="537.928" x2="546.351" xlink:href="#lg4" y1="188.56" y2="188.56"/><linearGradient id="paint53_linear_445_306" gradientUnits="userSpaceOnUse" x1="538.618" x2="547.042" xlink:href="#lg4" y1="172.553" y2="172.553"/><linearGradient id="paint54_linear_445_306" gradientUnits="userSpaceOnUse" x1="539.356" x2="547.78" xlink:href="#lg4" y1="156.273" y2="156.273"/><linearGradient id="paint55_linear_445_306" gradientUnits="userSpaceOnUse" x1="540.046" x2="548.47" xlink:href="#lg4" y1="140.335" y2="140.335"/><linearGradient id="paint56_linear_445_306" gradientUnits="userSpaceOnUse" x1="534.923" x2="479.995" xlink:href="#lg1" y1="227.921" y2="198.631"/><linearGradient id="paint57_linear_445_306" gradientUnits="userSpaceOnUse" x1="523.741" x2="513.043" xlink:href="#lg4" y1="277.368" y2="267.478"/><linearGradient id="paint58_linear_445_306" gradientUnits="userSpaceOnUse" x1="531.917" x2="521.219" xlink:href="#lg4" y1="267.122" y2="257.232"/><linearGradient id="paint59_linear_445_306" gradientUnits="userSpaceOnUse" x1="540.272" x2="529.575" xlink:href="#lg4" y1="256.654" y2="246.764"/><linearGradient id="paint60_linear_445_306" gradientUnits="userSpaceOnUse" x1="548.449" x2="537.751" xlink:href="#lg4" y1="246.409" y2="236.518"/><linearGradient id="paint61_linear_445_306" gradientUnits="userSpaceOnUse" x1="556.683" x2="545.985" xlink:href="#lg4" y1="236.083" y2="226.193"/><linearGradient id="paint62_linear_445_306" gradientUnits="userSpaceOnUse" x1="565.038" x2="554.34" xlink:href="#lg4" y1="225.616" y2="215.726"/><linearGradient id="paint63_linear_445_306" gradientUnits="userSpaceOnUse" x1="573.21" x2="562.512" xlink:href="#lg4" y1="215.369" y2="205.48"/><linearGradient id="paint64_linear_445_306" gradientUnits="userSpaceOnUse" x1="491.144" x2="532.533" xlink:href="#lg1" y1="186.747" y2="175.801"/><linearGradient id="paint65_linear_445_306" gradientUnits="userSpaceOnUse" x1="501.952" x2="508.15" xlink:href="#lg4" y1="217.977" y2="217.977"/><linearGradient id="paint66_linear_445_306" gradientUnits="userSpaceOnUse" x1="497.61" x2="503.808" xlink:href="#lg4" y1="207.783" y2="207.783"/><linearGradient id="paint67_linear_445_306" gradientUnits="userSpaceOnUse" x1="493.159" x2="499.357" xlink:href="#lg4" y1="197.318" y2="197.318"/><linearGradient id="paint68_linear_445_306" gradientUnits="userSpaceOnUse" x1="488.815" x2="495.013" xlink:href="#lg4" y1="187.126" y2="187.126"/><linearGradient id="paint69_linear_445_306" gradientUnits="userSpaceOnUse" x1="484.418" x2="490.616" xlink:href="#lg4" y1="176.864" y2="176.864"/><linearGradient id="paint70_linear_445_306" gradientUnits="userSpaceOnUse" x1="479.968" x2="486.166" xlink:href="#lg4" y1="166.399" y2="166.399"/><linearGradient id="paint71_linear_445_306" gradientUnits="userSpaceOnUse" x1="475.624" x2="481.822" xlink:href="#lg4" y1="156.207" y2="156.207"/><linearGradient id="paint72_linear_445_306" gradientUnits="userSpaceOnUse" x1="512.258" x2="635.373" xlink:href="#lg9" y1="186.862" y2="179.71"/><linearGradient id="paint73_linear_445_306" gradientUnits="userSpaceOnUse" x1="467.597" x2="544.423" xlink:href="#lg9" y1="233.199" y2="239.47"/><linearGradient id="paint74_linear_445_306" gradientUnits="userSpaceOnUse" x1="469.42" x2="546.247" xlink:href="#lg9" y1="210.858" y2="217.13"/><linearGradient id="paint75_linear_445_306" gradientUnits="userSpaceOnUse" x1="466.044" x2="542.87" xlink:href="#lg9" y1="252.228" y2="258.5"/><linearGradient id="paint76_linear_445_306" gradientUnits="userSpaceOnUse" x1="471.183" x2="548.009" xlink:href="#lg9" y1="189.278" y2="195.549"/><clipPath id="clip0_445_306"><path d="M0 0H945V495H0Z"/></clipPath><g clip-path="url(#clip0_445_306)"><path d="M948-6.01953H-2V501H948V-6.01953Z" fill="url(#paint0_linear_445_306)"/><path d="M673.93 189.47C673.93 189.47 907.84 167.76 938.92 164.38L960 132.84V259C960 259 1003.07 313.46 667.54 263.73L647 259 673.93 189.47Z" fill="url(#paint1_linear_445_306)"/><path d="M-165.949 419.109H1031.12V544.789H-165.949V419.109Z" fill="url(#paint2_radial_445_306)"/><path d="M172.352 447.641C172.352 458.051 180.792 464.521 191.202 464.521H617.422C627.832 464.521 636.272 458.051 636.272 447.641H172.352Z" fill="url(#paint3_linear_445_306)"/><path d="M183.922 447.541 229.252 430.461H587.912L636.522 447.541H183.922Z" fill="url(#paint4_linear_445_306)"/><path d="M22.4806 78.2595 174.071 455.419C176.931 462.499 187.731 457.059 187.731 457.059L26.3006 58.1895C21.3606 63.3895 19.6206 71.1795 22.4806 78.2595Z" fill="url(#paint5_linear_445_306)"/><path d="M26.2695 58 99.1895 121.06 229.25 430.46 183.92 447.64 26.2695 58Z" fill="url(#paint6_radial_445_306)"/><path d="M278.999 442.26H250.859L269.289 430.48H291.859L278.999 442.26Z" fill="url(#paint7_linear_445_306)"/><path d="M310.581 442.26H282.441L294.611 430.48H317.181L310.581 442.26Z" fill="url(#paint8_linear_445_306)"/><path d="M342.162 442.26H314.012L319.932 430.48H342.502L342.162 442.26Z" fill="url(#paint9_linear_445_306)"/><path d="M373.74 442.26H345.59L345.25 430.48H367.82L373.74 442.26Z" fill="url(#paint10_linear_445_306)"/><path d="M405.32 442.26H377.17L370.57 430.48H393.14L405.32 442.26Z" fill="url(#paint11_linear_445_306)"/><path d="M436.901 442.26H408.751L395.891 430.48H418.461L436.901 442.26Z" fill="url(#paint12_linear_445_306)"/><path d="M217.39 460.429H203.17C201.97 460.429 201 459.459 201 458.259V455.459C201 454.259 201.97 453.289 203.17 453.289H217.39C218.59 453.289 219.56 454.259 219.56 455.459V458.259C219.56 459.459 218.59 460.429 217.39 460.429Z" fill="#2c3a5e"/><path d="M243.081 460.429H228.861C227.661 460.429 226.691 459.459 226.691 458.259V455.459C226.691 454.259 227.661 453.289 228.861 453.289H243.081C244.281 453.289 245.251 454.259 245.251 455.459V458.259C245.241 459.459 244.271 460.429 243.081 460.429Z" fill="#2c3a5e"/><path d="M181.661 333.3C184.001 343.13 219.611 333.15 221.421 321.65 223.241 310.15 179.321 323.47 181.661 333.3Z" fill="#d89988"/><path d="M826.471 156.47C786.011 185.18 728.921 281.62 666.161 274.3 665.011 274.17 663.901 273.99 662.811 273.8 669.451 261.39 674.531 246.07 677.511 227.44 697.301 103.8 592.191 106.26 583.321 206.29 581.401 227.96 583.711 246.21 589.121 261.26 587.011 260.52 584.821 259.59 582.551 258.44 531.451 232.47 509.141 174.38 432.081 129.84 355.021 85.2999 274.761 123.24 233.411 170.21 207.241 199.94 156.041 237.73 114.281 209.6 114.411 210.06 114.481 210.56 114.471 211.12 114.281 222.74 114.061 234.48 115.561 246.04 116.321 251.87 117.781 257.43 119.521 263.02 121.321 268.83 122.351 274.85 124.011 280.7 130.791 304.7 148.251 323.3 163.611 342.15 248.901 324.88 302.631 238.98 331.321 214.15 369.021 181.52 432.821 207.12 489.541 268.53 526.831 308.91 587.801 331.88 630.811 307.73 668.501 325.24 719.881 314.5 752.801 280.18 817.321 212.92 820.211 132.77 915.861 151.85 915.841 151.83 871.311 124.65 826.471 156.47ZM629.471 242.71C621.861 213.86 635.941 177.3 639.181 186.6 641.911 194.41 640.021 222.74 629.471 242.71Z" fill="url(#paint13_linear_445_306)"/><path d="M209.45 192.99C182.06 214.79 145.51 230.64 114.25 209.55 114.39 210.02 114.46 210.54 114.45 211.12 114.41 213.74 116.02 243.38 116 246.01 148.47 276.41 189.36 253.31 223.89 248.81 274.14 242.26 267.95 273.97 186.05 290.6 165.35 294.8 143.97 290.89 123.91 280.4 123.94 280.5 123.96 280.6 123.99 280.7 130.77 304.7 148.23 323.3 163.59 342.15 248.88 324.88 302.61 238.98 331.3 214.15 360.42 188.94 405.13 198.51 450.11 232.47 330.26 136.82 241.82 173.07 209.45 192.99Z" fill="url(#paint14_linear_445_306)"/><path d="M602.381 263.31C614.711 262.64 623.491 254.01 629.481 242.65 621.901 213.81 635.951 177.31 639.191 186.6 641.911 194.41 640.011 222.68 629.481 242.65 633.381 257.48 643.031 270.24 662.801 273.74 669.441 261.33 674.531 246.05 677.501 227.44 682.371 197.01 679.651 174.26 672.691 158.68L616.891 168.18C616.891 168.18 585.381 210.47 602.381 263.31Z" fill="url(#paint15_linear_445_306)"/><path d="M583.31 206.281C581.39 227.951 583.74 246.161 589.15 261.211 587.02 260.471 584.84 259.601 582.55 258.431 544.78 239.241 522.69 202.501 482.65 166.661L454.52 144.291C507.18 184.451 540.28 334.211 614.83 314.291 615.11 314.211 615.39 314.141 615.67 314.051 617.55 313.521 619.47 312.821 621.4 312.071 622.07 311.811 622.74 311.581 623.41 311.301 625.82 310.281 628.26 309.111 630.75 307.741 643.38 300.631 654.36 289.531 662.81 273.741 669.45 261.331 674.54 246.051 677.51 227.441 697.29 103.791 592.18 106.261 583.31 206.281ZM639.18 186.601C639.39 187.201 639.56 187.971 639.71 188.811 641.54 198.781 639.18 224.231 629.47 242.651 623.77 253.461 615.55 261.821 604.15 263.181 605.68 225.591 618.64 200.021 634.04 189.551 636.16 185.271 638.19 183.731 639.18 186.601Z" fill="url(#paint16_linear_445_306)"/><path d="M134.629 304.391C142.859 317.881 153.659 329.961 163.579 342.131 241.309 326.401 292.819 253.691 323.059 222.121 290.139 255.181 217.029 335.061 134.629 304.391Z" fill="url(#paint17_linear_445_306)"/><path d="M747.98 284.822C749.61 283.312 751.221 281.782 752.771 280.162 817.291 212.902 820.181 132.752 915.831 151.832 915.831 151.832 878.43 129.032 837.66 149.722 783.29 180.442 793.65 237.872 747.98 284.822Z" fill="url(#paint18_linear_445_306)"/><path d="M666.149 274.301C664.979 274.161 663.899 273.941 662.789 273.741 656.769 285.001 649.449 293.861 641.199 300.561 669.519 302.791 707.859 278.541 746.569 236.631 721.589 259.791 694.449 277.601 666.149 274.301Z" fill="url(#paint19_linear_445_306)"/><path d="M608.099 262.391C606.829 262.741 605.519 263.021 604.159 263.181 604.759 248.451 607.159 235.641 610.729 224.781 594.009 266.341 565.399 201.101 605.469 149.051 603.799 150.881 602.169 152.811 600.629 154.951 598.109 158.451 595.769 162.351 593.669 166.651 588.429 177.411 584.689 190.651 583.309 206.281 582.879 211.171 582.729 215.831 582.719 220.371 582.719 221.451 582.729 222.511 582.749 223.571 582.829 227.771 583.029 231.871 583.459 235.771 583.479 235.961 583.489 236.171 583.509 236.361 584.009 240.781 584.729 245.001 585.639 249.041 585.699 249.291 585.759 249.541 585.819 249.791 586.749 253.771 587.849 257.591 589.149 261.211 596.339 263.711 602.629 263.911 608.099 262.391Z" fill="url(#paint20_linear_445_306)"/><path d="M456.929 232.53C369.379 144.56 265.449 153.8 209.449 192.99 241.809 173.07 330.259 136.82 450.109 232.46 449.479 231.99 448.859 231.57 448.229 231.1 462.099 241.36 476.009 253.88 489.519 268.51 512.569 293.46 544.659 311.77 575.959 316.41 561.119 313.3 522.889 298.82 456.929 232.53Z" fill="url(#paint21_linear_445_306)"/><path d="M746.55 236.65C707.87 278.54 669.53 302.79 641.21 300.56 637.89 303.26 634.44 305.65 630.84 307.67 631.89 308.16 632.94 308.65 634.01 309.1 651.34 310.29 700.3 302.18 781.23 201.01 770.26 212.96 758.66 225.43 746.55 236.65Z" fill="url(#paint22_linear_445_306)"/><path d="M664.648 308.409C664.648 308.409 731.368 314.759 762.988 257.129 794.608 199.499 754.538 233.479 736.628 257.899 718.728 282.319 679.258 302.819 664.648 308.409Z" fill="#ffffff" fill-opacity=".39" opacity=".44"/><path d="M231.341 248.13C193.561 253.44 151.671 259.64 115.691 246.98 116.481 252.46 117.871 257.72 119.511 263.02 121.281 268.74 122.311 274.64 123.921 280.41 143.981 290.89 165.361 294.8 186.061 290.6 263.601 274.84 273.191 245.63 231.341 248.13Z" fill="url(#paint23_linear_445_306)"/><path d="M456.929 232.53C459.689 235.3 462.319 237.85 464.979 240.44 471.089 245.9 477.169 251.48 483.219 257.28 543.209 314.75 479.169 146.35 392.399 127.5 305.629 108.65 261.469 165.8 261.469 165.8 286.559 161.62 309.789 162.17 331.709 166.29 372.739 172.12 416.569 191.98 456.929 232.53Z" fill="#ffffff" opacity=".1"/><path d="M474.229 189.76C469.749 188.58 481.849 209.14 484.179 204.36 486.499 199.58 479.599 191.18 474.229 189.76Z" fill="#fcced6" opacity=".8"/><path d="M757.599 264.49C757.329 259.87 741.549 277.76 746.819 278.49 752.079 279.21 757.919 270.04 757.599 264.49Z" fill="#ffffff" opacity=".6"/><path d="M484.582 209.46C487.312 210.56 489.522 206.23 485.132 206.08 480.732 205.93 481.312 208.14 484.582 209.46Z" fill="#fcced6" opacity=".8"/><path d="M164.212 310.891C157.552 313.331 150.682 315.581 143.672 317.571 150.022 326.011 157.002 334.051 163.582 342.141 241.312 326.411 292.822 253.701 323.062 222.131 294.142 251.161 234.202 316.261 164.212 310.891Z" fill="url(#paint24_linear_445_306)" opacity=".33"/><path d="M142.101 315.449C142.121 315.299 142.151 315.149 142.161 314.989 142.321 312.039 139.891 309.169 136.031 306.619 137.941 309.629 139.981 312.559 142.101 315.449Z" fill="#83015e" opacity=".33"/><path d="M144.792 319.049C144.812 318.899 144.842 318.759 144.852 318.599 145.022 315.509 142.342 312.499 138.152 309.859 140.262 312.979 142.492 316.039 144.792 319.049Z" fill="#e5ac9d"/><path d="M240.473 301.149C247.293 309.679 216.753 328.849 205.943 322.209 195.123 315.579 233.653 292.629 240.473 301.149Z" fill="#83015e" opacity=".33"/><path d="M243.324 302.178C250.144 310.708 219.604 329.878 208.794 323.238 197.974 316.608 236.504 293.658 243.324 302.178Z" fill="#e5ac9d"/><path d="M234.781 310.33C238.511 310.76 225.731 318.74 220.281 319.24 214.841 319.74 231.051 309.9 234.781 310.33Z" fill="#e5a490" opacity=".2401"/><path d="M231.891 312.078C233.571 312.268 231.901 313.988 229.081 315.868 233.461 313.448 236.981 310.598 234.781 310.338 232.721 310.098 226.881 312.988 222.961 315.538 226.441 313.578 230.301 311.888 231.891 312.078Z" fill="#e5a490"/><path d="M169.433 333.769C167.963 330.019 161.103 329.089 153.453 329.879 156.933 334.099 160.443 338.269 163.843 342.459 168.153 340.009 170.673 336.929 169.433 333.769Z" fill="#83015e" opacity=".33"/><path d="M171.893 337.209C170.443 333.519 163.773 332.559 156.273 333.279 159.233 336.849 162.193 340.389 165.063 343.949 165.533 344.529 165.883 345.249 166.103 345.999 170.543 343.539 173.153 340.419 171.893 337.209Z" fill="#e5ac9d"/><path d="M195.361 316.879C198.261 327.399 162.631 332.959 155.311 322.589 148.001 312.229 192.461 306.359 195.361 316.879Z" fill="#83015e" opacity=".33"/><path d="M197.572 318.958C200.472 329.488 164.842 335.038 157.522 324.668 150.212 314.298 194.672 308.428 197.572 318.958Z" fill="#e5ac9d"/><path d="M186.51 323.078C189.77 324.948 174.88 327.228 169.67 325.538 164.47 323.838 183.25 321.198 186.51 323.078Z" fill="#e5a490" opacity=".2401"/><path d="M183.162 323.539C184.622 324.379 182.422 325.299 179.082 325.909 184.062 325.419 188.422 324.179 186.502 323.079 184.702 322.049 178.202 322.389 173.582 323.189 177.562 322.759 181.772 322.739 183.162 323.539Z" fill="#e5a490"/><path d="M535.738 255.111C535.738 255.111 564.318 298.561 598.158 288.781 631.998 279.001 644.398 237.411 660.698 242.711 676.998 248.001 633.318 312.231 598.158 312.121 562.998 312.001 535.738 255.111 535.738 255.111Z" fill="#ffffff" opacity=".27"/><path d="M26.5312 61.3392C30.2912 66.3392 184.001 447.999 184.001 447.999L718.001 413.999 409.421-136.551 26.5312 61.3392Z" fill="url(#paint25_radial_445_306)"/><path d="M28.1094 60.9408C31.8694 65.9308 185.579 447.601 185.579 447.601L719.579 413.601 410.999-136.949 28.1094 60.9408Z" fill="url(#paint26_linear_445_306)"/><path d="M558.648 196.01 567.428 242.42C567.688 231.61 571.218 223.73 578.018 218.78 570.748 212.68 563.688 206.31 558.648 196.01Z" fill="url(#paint27_linear_445_306)"/><path d="M471.801 199.31 484.621 206.76 474.321 221.85 488.581 229.99 480.241 244.15 501.001 253 504.001 183 471.801 199.31Z" fill="url(#paint28_linear_445_306)"/><path d="M549.818 181.38C549.818 181.38 549.638 181.45 549.328 181.57 549.498 181.03 549.658 180.46 549.808 179.86 550.568 176.91 550.568 174.37 551.068 174.3 551.298 174.27 551.618 174.9 551.778 176 551.948 177.09 551.918 178.64 551.518 180.29 551.278 181.27 550.918 182.15 550.538 182.9 550.058 181.93 549.818 181.38 549.818 181.38Z" fill="url(#paint29_linear_445_306)"/><path d="M535.61 180.69C535.66 180.46 536.29 180.37 537.27 180.56 538.24 180.75 539.54 181.26 540.77 182.15 541.33 182.56 541.82 183 542.23 183.45 542.04 183.48 541.86 183.51 541.67 183.53 541.67 184.07 541.66 184.59 541.64 185.11 541.09 184.64 540.45 184.1 539.73 183.59 537.59 182 535.5 181.19 535.61 180.69Z" fill="url(#paint30_linear_445_306)"/><path d="M640.209 186.999 627.879 186.949C617.379 188.259 606.739 187.279 596.649 184.109 588.679 181.609 578.399 178.149 567.309 173.819 545.279 177.999 513.748 174.299 503.838 173.689 497.958 198.719 494.769 258.969 500.189 261.179 560.509 269.399 605.059 252.239 605.059 252.239L620.999 254.999 623.218 253.269C642.288 227.109 640.479 191.049 640.209 186.999Z" fill="url(#paint31_linear_445_306)"/><path d="M579.979 156.969 556.619 270.109C554.769 279.139 547.559 284.539 540.519 282.149 533.529 279.759 529.339 270.449 531.199 261.349L554.619 148.209C556.469 139.179 563.679 133.779 570.729 136.169 577.699 138.639 581.829 147.939 579.979 156.969Z" fill="url(#paint32_linear_445_306)"/><path d="M578.228 156.7 554.968 269.23C553.328 277.1 547.078 281.75 540.978 279.7 534.888 277.58 531.288 269.51 532.868 261.64L556.128 149.11C557.768 141.24 564.018 136.59 570.118 138.64 576.268 140.76 579.868 148.9 578.228 156.7Z" fill="#ffffff"/><path d="M549.889 258.759 547.139 260.199 548.989 263.209 547.289 264.989 545.439 262.049 543.799 265.199 541.949 263.629 543.539 260.479 540.629 259.449 541.209 256.649 544.119 257.679 543.959 253.919 546.129 253.709 546.289 257.469 549.039 256.099 549.889 258.759Z" fill="url(#paint33_linear_445_306)"/><path d="M553.28 242.409 550.53 243.849 552.38 246.859 550.68 248.639 548.83 245.699 547.19 248.849 545.34 247.279 546.93 244.129 544.02 243.099 544.599 240.299 547.51 241.329 547.349 237.569 549.52 237.359 549.68 241.119 552.44 239.749 553.28 242.409Z" fill="url(#paint34_linear_445_306)"/><path d="M556.768 225.579 554.018 227.019 555.868 230.029 554.168 231.809 552.318 228.869 550.678 232.019 548.828 230.449 550.418 227.299 547.508 226.269 548.088 223.459 550.998 224.489 550.838 220.729 553.008 220.529 553.168 224.289 555.918 222.919 556.768 225.579Z" fill="url(#paint35_linear_445_306)"/><path d="M560.17 209.229 557.42 210.669 559.27 213.679 557.57 215.459 555.72 212.519 554.08 215.669 552.23 214.099 553.82 210.949 550.91 209.919 551.49 207.119 554.4 208.149 554.24 204.389 556.41 204.189 556.57 207.949 559.32 206.579 560.17 209.229Z" fill="url(#paint36_linear_445_306)"/><path d="M563.549 192.749 560.799 194.189 562.649 197.199 560.949 198.979 559.099 196.039 557.459 199.189 555.609 197.619 557.199 194.469 554.289 193.439 554.869 190.639 557.779 191.669 557.619 187.909 559.789 187.699 559.949 191.459 562.709 190.089 563.549 192.749Z" fill="url(#paint37_linear_445_306)"/><path d="M567 175.989 564.24 177.429 566.091 180.439 564.391 182.219 562.54 179.279 560.901 182.429 559.05 180.859 560.641 177.709 557.73 176.679 558.31 173.879 561.22 174.909 561.06 171.149 563.23 170.939 563.391 174.699 566.151 173.329 567 175.989Z" fill="url(#paint38_linear_445_306)"/><path d="M570.391 159.64 567.631 161.08 569.481 164.09 567.781 165.87 565.931 162.93 564.291 166.08 562.441 164.51 564.031 161.36 561.121 160.33 561.701 157.53 564.611 158.56 564.451 154.8 566.621 154.6 566.781 158.36 569.531 156.99 570.391 159.64Z" fill="url(#paint39_linear_445_306)"/><path d="M499.099 101.62 540.789 206.62C544.129 215.03 541.579 225.3 535.069 229.6 528.549 233.91 520.609 230.63 517.269 222.21L475.519 117.21C472.179 108.8 474.729 98.5299 481.239 94.2299 487.759 89.9199 495.759 93.1999 499.099 101.62Z" fill="url(#paint40_linear_445_306)"/><path d="M497.667 102.92 539.147 207.31C542.057 214.63 539.837 223.52 534.167 227.28 528.497 231.04 521.607 228.17 518.697 220.85L477.217 116.46C474.307 109.14 476.527 100.25 482.197 96.4899 487.807 92.7199 494.747 95.6699 497.667 102.92Z" fill="#ffffff"/><path d="M529.827 203.88 528.507 207.37 531.477 207.99 531.107 210.79 528.197 210.24 528.617 214 526.447 214.41 525.967 210.65 523.267 212.43 522.207 209.83 524.907 208.05 522.787 205.38 524.327 203.33 526.447 206 527.767 202.58 529.827 203.88Z" fill="url(#paint41_linear_445_306)"/><path d="M523.78 188.7 522.46 192.19 525.43 192.81 525.06 195.61 522.15 195.06 522.57 198.82 520.4 199.23 519.92 195.47 517.22 197.25 516.16 194.65 518.86 192.87 516.74 190.2 518.28 188.15 520.4 190.82 521.72 187.4 523.78 188.7Z" fill="url(#paint42_linear_445_306)"/><path d="M517.577 173.169 516.257 176.659 519.227 177.279 518.857 180.079 515.947 179.529 516.367 183.289 514.197 183.699 513.717 179.939 511.017 181.719 509.957 179.119 512.657 177.339 510.537 174.669 512.077 172.619 514.197 175.289 515.517 171.869 517.577 173.169Z" fill="url(#paint43_linear_445_306)"/><path d="M511.6 157.98 510.28 161.47 513.25 162.09 512.88 164.89 509.97 164.34 510.39 168.1 508.22 168.51 507.74 164.75 505.04 166.53 503.98 163.93 506.68 162.15 504.56 159.48 506.1 157.43 508.22 160.1 509.54 156.68 511.6 157.98Z" fill="url(#paint44_linear_445_306)"/><path d="M505.511 142.659 504.191 146.149 507.161 146.769 506.791 149.569 503.881 149.019 504.301 152.779 502.131 153.189 501.651 149.429 498.951 151.209 497.891 148.609 500.591 146.829 498.471 144.159 500.011 142.109 502.131 144.779 503.451 141.359 505.511 142.659Z" fill="url(#paint45_linear_445_306)"/><path d="M499.307 127.13 497.987 130.62 500.957 131.24 500.587 134.04 497.677 133.49 498.098 137.25 495.927 137.66 495.448 133.9 492.747 135.68 491.688 133.08 494.388 131.3 492.267 128.63 493.807 126.58 495.927 129.25 497.247 125.83 499.307 127.13Z" fill="url(#paint46_linear_445_306)"/><path d="M493.268 111.95 491.948 115.44 494.918 116.06 494.548 118.86 491.638 118.31 492.058 122.07 489.888 122.48 489.408 118.72 486.708 120.5 485.648 117.9 488.348 116.12 486.228 113.45 487.768 111.4 489.888 114.07 491.208 110.65 493.268 111.95Z" fill="url(#paint47_linear_445_306)"/><path d="M532.26 131.92 527.44 241.92C527.07 250.74 532.26 258.27 539.1 258.75 545.93 259.23 551.76 252.52 552.13 243.7L556.95 133.7C557.32 124.88 552.13 117.35 545.3 116.87 538.51 116.39 532.68 123.1 532.26 131.92Z" fill="url(#paint48_linear_445_306)"/><path d="M533.899 132.33 529.129 241.71C528.809 249.37 533.309 255.87 539.249 256.35 545.179 256.76 550.219 250.95 550.589 243.28L555.359 133.9C555.679 126.24 551.169 119.74 545.239 119.26 539.309 118.85 534.219 124.74 533.899 132.33Z" fill="#ffffff"/><path d="M537.35 232.199 539.52 234.459 540.53 231.109 542.44 232.139 541.43 235.489 544.24 235.689 544.13 238.429 541.32 238.229 542.01 241.649 540 242.329 539.26 238.909 536.93 240.829 535.82 238.569 538.15 236.589 535.98 234.259 537.35 232.199Z" fill="url(#paint49_linear_445_306)"/><path d="M538.03 216.27 540.2 218.53 541.21 215.18 543.12 216.21 542.11 219.56 544.92 219.76 544.81 222.5 542 222.3 542.69 225.72 540.68 226.4 539.94 222.98 537.61 224.9 536.5 222.64 538.83 220.66 536.66 218.33 538.03 216.27Z" fill="url(#paint50_linear_445_306)"/><path d="M538.78 199.981 540.95 202.241 541.96 198.891 543.87 199.921 542.86 203.271 545.67 203.471 545.56 206.211 542.75 206.011 543.44 209.431 541.43 210.111 540.69 206.691 538.36 208.611 537.25 206.351 539.58 204.371 537.41 202.041 538.78 199.981Z" fill="url(#paint51_linear_445_306)"/><path d="M539.46 184.049 541.63 186.309 542.64 182.959 544.55 183.989 543.54 187.339 546.35 187.539 546.24 190.279 543.43 190.069 544.12 193.489 542.11 194.169 541.37 190.749 539.04 192.659 537.93 190.399 540.26 188.419 538.09 186.089 539.46 184.049Z" fill="url(#paint52_linear_445_306)"/><path d="M540.151 168.039 542.321 170.299 543.331 166.949 545.241 167.979 544.231 171.329 547.041 171.539 546.931 174.279 544.121 174.069 544.811 177.489 542.801 178.169 542.061 174.749 539.731 176.669 538.621 174.409 540.951 172.429 538.781 170.099 540.151 168.039Z" fill="url(#paint53_linear_445_306)"/><path d="M540.889 151.76 543.059 154.02 544.069 150.67 545.979 151.7 544.969 155.05 547.779 155.26 547.669 158 544.859 157.79 545.549 161.21 543.539 161.89 542.799 158.47 540.469 160.39 539.359 158.13 541.689 156.15 539.519 153.82 540.889 151.76Z" fill="url(#paint54_linear_445_306)"/><path d="M541.581 135.82 543.751 138.08 544.761 134.73 546.671 135.76 545.661 139.11 548.471 139.31 548.361 142.05 545.551 141.85 546.241 145.27 544.231 145.95 543.491 142.53 541.161 144.45 540.051 142.19 542.381 140.21 540.211 137.88 541.581 135.82Z" fill="url(#paint55_linear_445_306)"/><path d="M501.821 153.459 510.381 284.389C511.041 294.849 518.841 304.369 527.801 305.599 536.711 306.859 543.411 299.349 542.721 288.829L534.082 157.859C533.422 147.399 525.621 137.879 516.661 136.649 507.781 135.449 501.081 142.959 501.821 153.459Z" fill="url(#paint56_linear_445_306)"/><path d="M503.942 154.15 512.502 284.32C513.132 293.44 519.862 301.64 527.602 302.76 535.362 303.79 541.133 297.31 540.583 288.23L532.023 158.06C531.393 148.94 524.662 140.74 516.922 139.62 509.132 138.52 503.362 145.01 503.942 154.15Z" fill="#ffffff"/><path d="M521.901 273.689 524.971 276.569 525.871 272.689 528.481 274.049 527.621 277.899 531.291 278.399 531.511 281.679 527.841 281.179 529.231 285.359 526.721 285.979 525.331 281.799 522.561 283.899 520.811 281.089 523.631 278.969 520.531 276.029 521.901 273.689Z" fill="url(#paint57_linear_445_306)"/><path d="M520.682 254.76 523.753 257.64 524.653 253.76 527.263 255.12 526.403 258.97 530.073 259.47 530.292 262.75 526.622 262.25 528.013 266.43 525.503 267.05 524.112 262.87 521.343 264.97 519.593 262.16 522.412 260.04 519.312 257.1 520.682 254.76Z" fill="url(#paint58_linear_445_306)"/><path d="M519.362 235.35 522.432 238.23 523.332 234.35 525.942 235.71 525.082 239.56 528.752 240.06 528.972 243.34 525.302 242.84 526.692 247.02 524.182 247.64 522.792 243.46 520.022 245.56 518.272 242.75 521.092 240.63 517.992 237.69 519.362 235.35Z" fill="url(#paint59_linear_445_306)"/><path d="M518.143 216.41 521.213 219.29 522.113 215.41 524.723 216.77 523.863 220.62 527.533 221.12 527.753 224.4 524.083 223.9 525.473 228.08 522.963 228.7 521.573 224.52 518.803 226.62 517.053 223.81 519.873 221.69 516.773 218.75 518.143 216.41Z" fill="url(#paint60_linear_445_306)"/><path d="M516.913 197.34 519.983 200.22 520.883 196.34 523.493 197.7 522.633 201.55 526.303 202.05 526.523 205.33 522.853 204.83 524.243 209.01 521.733 209.63 520.343 205.45 517.573 207.55 515.823 204.74 518.643 202.62 515.543 199.68 516.913 197.34Z" fill="url(#paint61_linear_445_306)"/><path d="M515.593 177.93 518.663 180.81 519.563 176.93 522.173 178.29 521.313 182.14 524.983 182.64 525.203 185.92 521.533 185.42 522.923 189.6 520.413 190.22 519.023 186.04 516.253 188.14 514.503 185.33 517.323 183.21 514.223 180.27 515.593 177.93Z" fill="url(#paint62_linear_445_306)"/><path d="M514.37 159 517.44 161.88 518.34 158 520.95 159.36 520.09 163.21 523.76 163.71 523.98 166.99 520.31 166.49 521.7 170.67 519.19 171.29 517.8 167.11 515.03 169.21 513.28 166.4 516.1 164.28 513 161.34 514.37 159Z" fill="url(#paint63_linear_445_306)"/><path d="M468.898 156.961 498.888 227.421C501.268 233.031 506.778 235.151 511.128 232.001 515.468 228.921 517.118 221.811 514.678 216.201L484.688 145.741C482.308 140.131 476.798 138.011 472.448 141.161 468.048 144.231 466.458 151.351 468.898 156.961Z" fill="url(#paint64_linear_445_306)"/><path d="M470.008 156.482 499.838 226.532C501.908 231.452 506.668 233.232 510.488 230.502 514.298 227.832 515.678 221.682 513.558 216.752L483.728 146.702C481.658 141.772 476.898 140.002 473.078 142.732 469.318 145.402 467.888 151.552 470.008 156.482Z" fill="#ffffff"/><path d="M502.107 216.541 504.117 216.881 503.747 214.281 505.228 213.941 505.598 216.471 507.397 215.171 508.138 216.951 506.337 218.251 507.818 220.031 506.807 221.471 505.327 219.691 504.478 222.021 503.098 221.201 503.948 218.811 501.938 218.471 502.107 216.541Z" fill="url(#paint65_linear_445_306)"/><path d="M497.768 206.35 499.778 206.69 499.408 204.09 500.888 203.75 501.258 206.28 503.058 204.98 503.798 206.76 501.998 208.06 503.478 209.84 502.468 211.28 500.988 209.5 500.138 211.83 498.758 211.01 499.608 208.62 497.598 208.28 497.768 206.35Z" fill="url(#paint66_linear_445_306)"/><path d="M493.318 195.881 495.328 196.221 494.958 193.621 496.438 193.281 496.808 195.811 498.608 194.511 499.348 196.291 497.548 197.591 499.028 199.371 498.018 200.811 496.538 199.031 495.688 201.361 494.308 200.541 495.158 198.151 493.148 197.811 493.318 195.881Z" fill="url(#paint67_linear_445_306)"/><path d="M488.979 185.692 490.989 186.032 490.619 183.432 492.099 183.092 492.469 185.622 494.269 184.322 495.009 186.102 493.209 187.402 494.689 189.182 493.679 190.622 492.199 188.842 491.349 191.172 489.969 190.352 490.819 187.962 488.809 187.622 488.979 185.692Z" fill="url(#paint68_linear_445_306)"/><path d="M484.58 175.43 486.59 175.77 486.22 173.17 487.7 172.83 488.07 175.36 489.87 174.06 490.61 175.84 488.81 177.14 490.29 178.92 489.28 180.36 487.8 178.58 486.95 180.91 485.57 180.09 486.42 177.7 484.41 177.36 484.58 175.43Z" fill="url(#paint69_linear_445_306)"/><path d="M480.127 164.961 482.137 165.301 481.767 162.701 483.247 162.361 483.617 164.891 485.417 163.591 486.157 165.371 484.357 166.671 485.837 168.451 484.827 169.891 483.347 168.111 482.497 170.441 481.117 169.621 481.967 167.231 479.957 166.891 480.127 164.961Z" fill="url(#paint70_linear_445_306)"/><path d="M475.787 154.772 477.797 155.112 477.427 152.512 478.907 152.172 479.277 154.702 481.077 153.402 481.817 155.182 480.017 156.482 481.497 158.262 480.487 159.702 479.007 157.922 478.157 160.252 476.777 159.432 477.627 157.042 475.617 156.702 475.787 154.772Z" fill="url(#paint71_linear_445_306)"/><path d="M589.031 212.9C564.821 215.15 549.821 181.38 549.821 181.38 549.821 181.38 545.711 183 541.671 183.52 541.531 208.49 530.481 212 524.991 212.01 519.501 212.02 521.131 201.46 519.781 190.22 517.441 170.77 519.551 168.87 528.801 163.61 538.051 158.35 554.951 152.57 562.641 153.73 570.331 154.89 608.221 190.47 617.901 191.28 627.561 192.09 613.241 210.66 589.031 212.9Z" fill="url(#paint72_linear_445_306)"/><path d="M480.24 244.151C490.96 243.301 505.69 243.191 505.69 243.191 511.57 243.231 516.47 239.491 516.62 234.841 516.77 230.181 512.13 226.371 506.24 226.331 506.24 226.331 491.25 225.881 480.34 225.221 466.24 224.371 467.41 245.171 480.24 244.151Z" fill="url(#paint73_linear_445_306)"/><path d="M477.53 222.16C489.84 221.62 506.05 220.9 506.05 220.9 511.94 221.08 516.88 217.43 517.07 212.75 517.26 208.06 512.64 204.11 506.75 203.93 506.75 203.93 489 201.18 475.35 200.86 460.74 200.51 464.08 222.75 477.53 222.16Z" fill="url(#paint74_linear_445_306)"/><path d="M487.401 263.01C497.941 263.08 508.011 260.83 511.351 257.99 512.981 256.81 514.031 255.16 514.141 253.32 514.251 251.48 513.411 249.79 511.971 248.55 510.531 247.3 508.501 246.55 506.201 246.45 499.221 245.86 493.821 245.39 485.331 245.47 476.731 245.54 475.461 262.92 487.401 263.01Z" fill="url(#paint75_linear_445_306)"/><path d="M474.011 199.481C484.761 199.161 502.801 199.381 502.801 199.381 508.681 199.711 513.751 196.221 514.131 191.581 514.511 186.941 510.061 182.901 504.181 182.571 504.181 182.571 485.551 180.731 474.681 179.531 460.651 177.991 461.151 199.861 474.011 199.481Z" fill="url(#paint76_linear_445_306)"/></g></svg>