<svg width="555" height="555" viewBox="0 0 555 555" fill="none" xmlns="http://www.w3.org/2000/svg"><path fill-rule="evenodd" clip-rule="evenodd" d="M432.24 129.02l1.5-1.11.39-.39-.07-.13 1.63-1.57-1.76-1.89s1.37-3.2 2.22-4.96c.85-1.76 5.09-9.34 5.09-9.34s.39 0 .72.33l1.76-.78-.13-.13.59-.52-1.31-1.44s5.75-7.77 7.77-10.05c3.46-3.92 12.28-13.65 21.48-23.51 0 0 1.44-1.76 3.13-1.57l1.76-1.63-.07-.39.72-.72.07.13.59-.52-.07-.13.13-.13-.13-.13.26-.26-.2-.26s.72-.85-.07-1.96l.65-.59-.26-.26 2.22-2.09-.07-.26 3-3.07-.07-.07-3.2 2.81-.26-.07-2.22 2.09-.26-.26-.65.59c-1.11-.85-1.96-.2-1.96-.2l-.2-.26-.26.26-.13-.13-.13.13-.07-.13-.59.52.07.13-.78.72-.33-.13-1.76 1.63c.07 1.7-1.76 3-1.76 3-10.38 8.62-20.57 16.85-24.68 20.11-2.42 1.89-10.51 7.18-10.51 7.18l-1.31-1.44-.59.52-.13-.13-.85 1.7c.26.26.26.72.26.72s-7.77 3.79-9.6 4.51c-1.83.72-5.09 1.96-5.09 1.96l-1.76-1.89-1.63 1.57-.07-.13-.39.39-1.17 1.44-17.63 2.68 5.35 6.99c10.38-6.14 17.5 1.18 19.98 3.85 2.48 2.68 9.01 9.73 3.07 19.52v.46l6.2 3.59.07-.07c.89-4.12 3.5-14.83 3.5-14.83zm17.31-38l.98 1.04-10.51 12.41-3.46-3.66 12.99-9.79zm-28.01 19.78c7.57-4.24 11.1-6.86 11.1-6.86l4.05 4.24s-2.81 3.33-7.51 10.71l-7.64-8.09z" fill="url(#paint0_linear_5464_182616)"/><path d="M490.03 291.34c-2.02-3.13.07-20.76 1.37-30.49.33-2.22.72-4.38 1.24-6.53 2.29-9.47 6.79-26.64 9.86-28.86l-8.62 1.63-.46 2.48-1.5-.26-1.44 7.44-4.05-.78.26-1.37-1.7-.33.78-4.18-3.46-.65-1.04 5.55-36.43-6.86-.85 4.57 36.43 6.86-5.75 30.56-36.57-6.86-.85 4.57 36.43 6.86-1.05 5.55 3.46.65.78-4.18 1.7.33.26-1.37 4.05.78-1.44 7.44 1.5.26-.46 2.48 7.55 4.71zm-10.32-20.24l.26-1.37-1.7-.33 5.22-27.82 1.7.33.26-1.37 4.05.78-5.75 30.56-4.04-.78z" fill="url(#paint1_linear_5464_182616)"/><path d="M176.88 61.44l-1.18-1.11a.496.496 0 01-.13-.33l-.07-1.04c0-.2-.13-.33-.26-.46l-.52-.26c-.07-.07-.2-.07-.33-.07l-4.57.72c-.26.07-.46.26-.46.59l.2 2.68c0 .33-.26.59-.59.52-1.24-.2-3.85-.78-4.57-1.37-.78-.72-2.42-2.02-2.94-2.48-.13-.07-.2-.13-.33-.13l-3.07.13-5.29-6.66.33-.26-.46-.98.46-2.61c.13-.59-.65-.85-.98-.39l-.98 1.7h-.52c.07 0 0 0 0 0l-.59-2.09c-.13-.59-.98-.46-1.04.07l-.13 1.76c0 .2-.2.39-.39.46-.13.07-.26.07-.39.13-.2.07-.39 0-.52-.13l-1.04-1.04c-.39-.39-1.11.07-.85.59l.65 1.37c.07.2.07.39-.07.52 0 .07-.07.07-.07.13-.13.2-.33.26-.52.2l-1.63-.39c-.59-.13-.91.59-.39.91l1.63 1.11c0 .07-.2.65-.2.65l-3.59.78c-.2.07-.39-.07-.52-.2l-.52-.72-.07-.07-5.35-5.03-.07-.07-2.15-3-.13-.2s-.78-.2-1.44-.26c-.13 0-.26-.13-.33-.2l-.46-.65.59-.39-1.03-1.43.26-.2-.52-1.31c-.13-.33-.52-.39-.78-.2l-.06.07c-.26.2-.59.13-.72-.13l-.39-.52c-.06-.13-.06-.26-.06-.39.2-.85-.26-1.89-.59-2.48-.13-.2-.26-.39-.39-.59-1.31-1.63-3.85-2.02-5.29-2.15-.46 0-.72.46-.46.85l2.68 3.72-1.44-.98c1.17 4.18 3.53 3.2 3.53 3.2l.52.72c.2.26.13.59-.13.72-.26.2-.33.59-.07.85l1.04.91.26-.2 1.05 1.44.59-.39.39.52c.2.26.13.59-.13.72l-.65.46c-.2.13-.26.39-.13.65 0 0 0 .07.07.07.07.13.19.2.33.2.06 0 .2 0 .26-.07.07 0 .07 0 .13-.07l.13-.07c-.13.13-.13.33-.06.46v.07s0 .07.06.07c.2.26.46.26.72.13l.26-.2c-.13.13-.2.33-.13.52v.07s0 .07.07.07c.07.07.13.13.26.2s.33 0 .46-.07l.2-.13c-.2.13-.26.33-.2.52v.07s0 .07.06.07c.2.26.46.26.72.13l.33-.2.33.46.59.78.33.46c.2.33.59.39.91.33l3.98 5.68c.07.07.13.13.26.2l1.11.33c.13.07.2.13.26.2l1.24 1.76s0 .07.07.26c.2 1.24 1.11 6.79 3.07 7.05h.13l1.54-.28.59 1.11c.07.13.26.26.46.26l.85.07c.2 0 .33.13.39.26l1.11 1.89c.13.2.26.26.46.26h.33c.26 0 .46.13.52.39l.59 1.76c.07.13.13.26.33.33l2.35.98c.13.07.26.2.33.39l1.11 5.42c.07.2.2.33.33.39l2.61.91c.13.07.26.13.33.26l2.22 4.31c0 .07.07.13.07.13l.13.65c0 .2.2.39.39.46l.65.2c.2.07.33.2.33.33l3.26 9.34c0 .07.07.13.13.2l4.18 4.05c.07.07.13.13.13.2l1.11 3.13c.07.2 0 .46-.2.59l-2.61 1.89c-.26.2-.26.52-.13.72l12.6 17.63c.2.26.52.26.72.13l23.44-16.78c.26-.19.26-.52.13-.72l-12.6-17.63a.535.535 0 00-.72-.13l-2.35 1.7c-.26.2-.59.13-.72-.13l-2.74-3.85c-.07-.13-.13-.26-.07-.46l.46-1.63c.07-.2 0-.39-.13-.52l-1.83-2.02c-.07-.07-.13-.13-.13-.26l-.41-1.78c0-.13-.06-.2-.13-.26l-9.34-9.08c-.33-.33-.13-.85.33-.91l.52-.07c.13 0 .26-.07.39-.2l.59-.72c.07-.07.13-.2.13-.33l.07-3.4c0-.13.07-.2.13-.33.26-.33.78-1.11.78-1.5-.07-.52 0-2.94 0-2.94l-.59-.05zm-34.41-6.2l2.74.39c.13 0 .2.07.26.13l.91.91.33-.26 1.57 2.48c.26.39-.13.91-.59.78l-1.31-.33c-.13-.07-.26-.13-.33-.26l-.39-.65c-.07-.07-.07-.13-.13-.13l-1.31-1.04c-.07-.07-.2-.07-.26-.13l-1.1-.13c-.13 0-.26-.07-.39-.2l-.59-.85c-.19-.25.13-.78.59-.71z" fill="url(#paint2_linear_5464_182616)"/><path fill-rule="evenodd" clip-rule="evenodd" d="M431.14 128.96l1.5-1.11.39-.39-.07-.13 1.63-1.57-1.76-1.89s1.37-3.2 2.22-4.96c.85-1.76 5.09-9.34 5.09-9.34s.39 0 .72.33l1.76-.78-.13-.13.59-.52-1.31-1.44s5.74-7.77 7.77-10.06c3.46-3.92 12.27-13.58 21.48-23.44 0 0 1.44-1.76 3.13-1.57l1.76-1.63-.07-.39.72-.72.07.13.59-.52-.07-.13.13-.13-.13-.13.26-.26-.2-.26s.72-.85-.07-1.96l.65-.59-.26-.26 2.22-2.09-.07-.26 3-3.07-.06-.07-3.2 2.81-.26-.07-2.22 2.09-.26-.26-.65.59c-1.11-.85-1.96-.2-1.96-.2l-.2-.26-.26.26-.13-.13-.13.13-.07-.13-.59.52.07.13-.78.72-.33-.13-1.76 1.63c.07 1.7-1.76 3-1.76 3-10.38 8.62-20.57 16.85-24.68 20.05-2.42 1.89-10.51 7.18-10.51 7.18l-1.31-1.44-.59.52-.13-.13-.85 1.7c.26.26.26.72.26.72s-7.77 3.79-9.6 4.51c-1.83.72-5.09 1.96-5.09 1.96l-1.76-1.83-1.63 1.57-.07-.13-.39.39-1.18 1.44-17.6 2.67 5.35 6.99c10.38-6.14 17.43 1.18 19.98 3.85 2.48 2.68 9.01 9.73 3.07 19.52v.39l6.2 3.59.07-.07c.92-4.17 3.47-14.81 3.47-14.81zm17.3-38.07l.98 1.04-10.51 12.41-3.46-3.66 12.99-9.79zm-28.01 19.78c7.58-4.25 11.1-6.86 11.1-6.86l3.98 4.24s-2.81 3.33-7.51 10.64l-7.57-8.02z" fill="url(#paint3_linear_5464_182616)"/><path d="M488.92 291.08c-2.02-3.13.07-20.76 1.37-30.43.33-2.22.72-4.38 1.24-6.53 2.29-9.47 6.79-26.64 9.79-28.86l-8.62 1.63-.46 2.48-1.5-.26-1.44 7.44-3.98-.78.26-1.37-1.7-.33.78-4.18-3.46-.65-1.04 5.55-36.43-6.86-.85 4.57 36.43 6.86-5.75 30.49-36.43-6.86-.85 4.57 36.43 6.86-1.04 5.55 3.46.65.78-4.18 1.7.33.26-1.37 3.98.78-1.44 7.44 1.5.26-.46 2.48 7.47 4.72zm-10.31-20.18l.26-1.37-1.7-.33 5.22-27.82 1.7.33.26-1.37 3.98.78-5.75 30.49-3.97-.71z" fill="url(#paint4_linear_5464_182616)"/><path d="M176.1 61.38l-1.18-1.11a.496.496 0 01-.13-.33l-.07-1.04c0-.2-.13-.33-.26-.46l-.52-.26c-.07-.07-.2-.07-.33-.07l-4.57.72c-.26.07-.46.26-.46.59l.2 2.68c0 .33-.26.59-.59.52-1.24-.2-3.85-.78-4.57-1.37-.78-.72-2.42-2.02-2.94-2.48-.13-.07-.2-.13-.33-.13l-3.07.13-5.16-6.66.33-.26-.46-.98.46-2.61c.13-.59-.65-.85-.98-.39l-.98 1.7h-.52c.07 0 0 0 0 0l-.59-2.09c-.13-.59-.98-.46-1.04.07l-.13 1.76c0 .2-.2.39-.39.46-.13.07-.26.07-.39.13-.2.07-.39 0-.52-.13l-1.04-1.04c-.39-.39-1.11.07-.85.59l.65 1.37c.07.2.07.39-.07.52 0 .07-.06.07-.06.13-.13.2-.33.26-.52.2l-1.63-.39c-.59-.13-.91.59-.39.91l1.63 1.11c0 .07-.2.65-.2.65l-3.59.78c-.19.07-.39-.07-.52-.2l-.52-.72-.07-.07-5.35-5.03-.07-.07-2.15-3-.13-.2s-.78-.2-1.44-.26c-.13 0-.26-.13-.33-.2l-.46-.65.59-.39-1.04-1.44.26-.2-.52-1.31c-.13-.33-.52-.39-.78-.2l-.07.07c-.26.2-.59.13-.72-.13l-.39-.52c-.07-.13-.07-.26-.07-.39.2-.85-.26-1.89-.59-2.48-.13-.2-.26-.39-.39-.59-1.31-1.63-3.85-2.02-5.29-2.15-.46 0-.72.46-.46.85l2.68 3.72-1.44-.98c1.17 4.18 3.53 3.2 3.53 3.2l.52.72c.2.26.13.59-.13.72-.26.2-.33.59-.07.85l1.04.91.26-.2 1.04 1.44.59-.39.39.52c.2.26.13.59-.13.72l-.65.46c-.2.13-.26.39-.13.65 0 0 0 .07.07.07.07.13.2.2.33.2.07 0 .2 0 .26-.07.07 0 .07 0 .13-.07l.13-.07c-.13.13-.13.33-.07.46v.07s0 .07.07.07c.2.26.46.26.72.13l.26-.2c-.13.13-.2.33-.13.52v.07s0 .07.07.07c.07.07.13.13.26.2s.33 0 .46-.07l.2-.13c-.2.13-.26.33-.2.52v.07s0 .07.07.07c.2.26.46.26.72.13l.33-.2.33.46.59.78.33.46c.2.33.59.39.91.33l3.98 5.68c.06.07.13.13.26.2l1.11.33c.13.07.2.13.26.2l1.24 1.76s0 .07.06.26c.2 1.24 1.11 6.79 3 7.05h.13l1.57-.26.59 1.11c.07.13.26.26.46.26l.85.07c.2 0 .33.13.39.26l1.11 1.89c.13.2.26.26.46.26h.33c.26 0 .46.13.52.39l.52 1.76c.07.13.13.26.33.33l2.35.98c.13.07.26.2.33.39l1.11 5.42c.07.2.2.33.33.39l2.61.91c.13.07.26.13.26.26l2.22 4.31c0 .07.07.13.07.13l.13.65c0 .2.2.39.39.46l.65.2c.2.07.33.2.33.33l3.26 9.34c0 .07.07.13.13.2l4.18 4.05c.07.07.13.13.13.2l1.11 3.13c.06.2 0 .46-.2.59l-2.61 1.83c-.26.2-.26.52-.13.72l12.6 17.56c.2.26.52.26.72.13l23.44-16.78c.26-.2.26-.52.13-.72l-12.6-17.56a.535.535 0 00-.72-.13l-2.35 1.7c-.26.2-.59.13-.72-.13l-2.74-3.85c-.07-.13-.13-.26-.07-.46l.46-1.63c.07-.2 0-.39-.13-.52l-1.83-2.02c-.07-.07-.13-.13-.13-.26l-.39-1.76c0-.13-.07-.2-.13-.26l-9.66-9.01c-.33-.33-.13-.85.33-.91l.52-.07c.13 0 .26-.07.39-.2l.59-.72c.07-.07.13-.2.13-.33l.07-3.4c0-.13.07-.2.13-.33.26-.33.78-1.11.78-1.5-.07-.52 0-2.94 0-2.94l-.21-.09zm-34.41-6.21l2.74.39c.13 0 .2.07.26.13l.91.91.33-.26 1.57 2.48c.26.39-.13.91-.59.78l-1.31-.33c-.13-.07-.26-.13-.33-.26l-.39-.65c-.07-.07-.07-.13-.13-.13l-1.31-1.04c-.07-.07-.2-.07-.26-.13l-1.11-.13c-.13 0-.26-.07-.39-.2l-.59-.85c-.18-.25.14-.77.6-.71z" fill="url(#paint5_linear_5464_182616)"/><path opacity=".44" d="M414.45 353c72.03-72.03 72.03-188.82 0-260.86-72.03-72.03-188.82-72.03-260.86 0-72.03 72.03-72.03 188.82 0 260.86 72.03 72.04 188.82 72.04 260.86 0z" fill="#E6EEFF"/><path d="M284.03 389.09c91.96 0 166.5-74.55 166.5-166.5 0-91.96-74.54-166.5-166.5-166.5s-166.5 74.54-166.5 166.5c0 91.95 74.55 166.5 166.5 166.5z" fill="url(#paint6_radial_5464_182616)"/><path d="M205.16 176.16c-2.02-3.52-11.04-6.53-11.04-6.53s.98-8.55-3-8.55-17.56 3-14.04-2.02c3.53-5.03 6.53-2.02 8.55-9.53 2.02-7.51 7.51-3.46 1.5-9.21-6.01-5.81-7.05-6.79-12.01-12.34s-6.01-16.52-14.56-16.52c0 0-.33.13-.91.46-26.25 29.45-42.11 68.17-42.11 110.67 0 11.17 1.11 22.07 3.2 32.65 2.68.72 8.81 1.96 10.77-.39 2.48-3-2.48-11.56.52-11.56s5.48 2.61 11.03 3.59c5.49.91 16.06-5.09 17.56-10.12 1.5-5.03-3.98-6.53 7.05-8.03 11.03-1.5 14.56 2.48 19.59-3 5.03-5.49 3.98-18.02 11.04-21.55 7.06-3.53 18.54-9.53 18.54-14.56-.13-4.97-9.66-10-11.68-13.46z" fill="url(#paint7_radial_5464_182616)"/><path d="M213.71 73.33c.85-.39 2.02-1.76 3.26-3.2A168.17 168.17 0 00171 100.3c2.35.85 9.14.07 14.63.07 8.03 0 15.02 2.48 18.54 11.03 3.53 8.55 12.54 1.44 12.54 1.44s.52-13.52 3.98-14.5c3.53-.98 14.56 10.06 17.04 13.06 2.48 3 9.01.52 10.51 0s3.53-13.06 5.48-17.56c2.02-4.51-6.01-1.5-8.55-3.98-2.55-2.48 5.49-7.51 5.03-11.56-.46-4.05-2.03-3-7.05-2.02-5.03.98-9.53 2.48-18.02 2.02-8.55-.52-4.51.98-13.52 3.53-8.93 2.53.08-7.46 2.1-8.5z" fill="url(#paint8_radial_5464_182616)"/><path d="M400.84 104.01c-3.13.98-6.14 2.42-9.14-.59-4.51-4.51-11.03-8.55-6.01-8.03 1.63.13 3.98.39 6.33.46-9.47-8.1-19.85-15.08-31.01-20.96-2.68-.46-5.62-.33-8.95.91-9.53 3.53-26.58 13.19-26.58 14.89 0 1.7.52 9.21 5.03 10.71s1.5 9.53 9.01 7.51c7.51-2.03 12.54-3 12.54-7.05 0-3.98-6.53-8.36.98-11.17 7.51-2.87 17.04-.33 14.56 2.68-2.48 3-14.04 6.01-8.03 10.06 6.01 3.98 17.04 5.49 16.06 8.03-.98 2.55-5.03-1.63-15.54 4.18-10.51 5.81-26.05 5.81-28.6 3.33-2.48-2.48.98-10.06-4.51-7.51-5.49 2.48-5.49 7.05-13.06 8.03-7.51.98-19.07-2.02-18.02 2.02.98 3.98 0 14.56-2.48 14.56s-14.56-4.51-19.07-.98-14.04 15.02.52 15.02c14.56 0 18.54-1.5 27.55-6.01 9.01-4.51 17.04-7.51 18.54-3.98s4.51 9.01 6.53 14.56c2.02 5.48 6.33 11.56 7.97 7.51 1.57-3.98-5.94-13.06-3.46-18.02 2.48-5.03 7.51 0 8.55 3.53 1.04 3.53-3.53 16.06 3.98 17.04 7.51.98 6.01-3.98 11.56-2.48 5.48 1.5 9.53 3 12.01-3.53 2.48-6.53 9.53-9.53 13.52-8.55 3.98.98 8.03 2.03 8.55 10.06.52 8.03-3 14.56-7.51 13.06s-21.55-8.55-24.09-3.98c-2.48 4.51-8.03 3.52-.98 9.53 7.05 6.01 13.52 5.48 17.56 7.51 3.98 2.02 2.02 4.51-2.02 8.55-3.98 3.98-6.53 8.03-14.04 2.48-7.51-5.49-7.51-16.19-17.56-13.39-10.05 2.87-14.04 9.34-17.56 6.33-3.53-3-10.06-7.05-10.51-12.54-.52-5.49 3.98-13.06-.52-15.02-4.51-2.02-11.04-.98-21.55-.52-10.51.52-14.04-3.53-19.59-2.48-5.48.98-17.76 12.54-17.76 12.54s-8.81 4.5-13.39 6.01c-4.5 1.5-9.01 6.01-10.05 12.54-.98 6.53-14.04 16.52-10.51 21.09 3.53 4.5 9.01 11.56 9.53 22.07.52 10.51 18.67 10.64 24.42 13.12 5.68 2.42 2.68 4.44 10.19 2.42 7.51-2.02 10.51-.39 12.54.85 2.02 1.18 0-10.71 5.03 6.01 5.03 16.71-6.01 9.66-3 19.72 3 10.05 10.51 13.52 10.05 17.56-.52 3.98 0 3.53-7.05 12.54s-9.01 16.52-7.05 28.08c2.03 11.56-1.5 6.79-2.02 15.41-.52 8.62 5.48 13.19 3.53 20.18-2.02 7.05 6.53 7.05 12.54 8.55 6.01 1.5-.98 5.48 9.53 3 10.51-2.48 12.54-7.51 16.52-10.05 3.98-2.48.52-7.51 4.51-10.51 3.98-3 8.03-.52 11.04-5.49 3-5.03-6.01-6.01 3.98-9.53 10.05-3.53 15.54-2.48 18.54-11.56 3-9.01-2.02-22.07 6.53-26.58 8.55-4.5 37.09-20.04 40.61-27.55 3.52-7.51-6.53-9.01-13.06-11.04-6.53-2.02-8.55-3.85-10.51-12.73-2.02-8.88-6.53-21.42-6.53-21.42s1.5-12.01 0-13.51.98-16.52 4.51-13.06c3.52 3.53 4.51 6.53 5.03 13.52.52 7.05.52 13.52 2.48 16.06 2.02 2.48 3 5.62 3.53 9.08.52 3.46 4.51 9.27 4.51 9.27s3.52 6.07 15.02 2.61c11.56-3.46 22.59-10.97 22.07-14.95-.52-3.98-7.51-2.48-12.01-9.53-4.51-7.05-5.03-21.55-5.03-21.55s7.05-4.5 8.03 2.48c.98 7.05 1.5 8.03 6.53 12.01 5.03 3.98-5.03 3.98 7.51 7.05 9.79 2.35 14.69 6.2 17.04 7.77.72-6.4 1.18-12.93 1.18-19.52v-1.96c-1.11-14.36-3.53-33.17-7.77-48.45-8.12-26.26-22.68-49.57-41.75-68.31z" fill="url(#paint9_radial_5464_182616)"/><path d="M369.63 327.06c-3.98 8.55-7.05 12.54-7.05 18.02s-10.06 10.06-3.98 12.54c6.01 2.48 18.02-3.98 22.59-13.52 4.51-9.53 14.04-22.07 9.01-27.55 0 0-16.59 2.02-20.57 10.51z" fill="url(#paint10_radial_5464_182616)"/><path d="M285.14 13.91c-39.05 0-74.63 20.5-101.47 54.06-9.4 12.73-17.69 26.77-24.68 41.66.65 0 1.24.07 1.76.2 26.57-56.15 72.41-93.24 124.39-93.24 82.01 0 148.67 92.39 148.67 205.94s-66.67 205.94-148.67 205.94c-50.73 0-95.53-35.32-122.43-89.19-1.04-.91-2.15-1.89-3.4-3.07 10.77 22.85 24.62 42.9 40.74 58.7 24.22 22.79 53.54 36.17 85.08 36.17 83.45 0 151.29-93.57 151.29-208.55 0-114.98-67.83-208.62-151.28-208.62z" fill="#E6EEFF"/><path d="M497.48 146.85c-9.34-40.74-53.74-66.01-119.62-72.54.98.39 1.76.85 2.29 1.24 61.96 7.64 107.28 33.43 116.16 72.22 14.43 63.2-73.32 137.38-195.62 165.32-59.42 13.58-117.92 14.37-164.93 2.15-46.62-12.14-76.2-35.58-83.12-66.01-6.92-30.49 9.47-64.45 46.23-95.66 6.79-5.75 14.1-11.23 21.87-16.52-50.15 33.3-78.22 73.59-69.47 111.78 2.94 12.8 9.99 25.33 20.37 36.96 14.82 13.91 36.3 24.81 63.53 31.93 22.39 5.81 47.34 8.68 73.72 8.68 29.51 0 60.85-3.59 92.39-10.84 98.4-22.53 174.6-74.89 194.25-127.98 3.97-14.48 4.75-28.33 1.95-40.73z" fill="#EDF3FF"/><path d="M483.96 288.67c2.94-24.22-.85-50.6-11.43-77.44-18.41-46.95-55.37-89.91-103.95-121.05C320 59.03 265.48 43.43 215.14 46.3c-28.86 1.63-54.32 9.21-75.15 22-15.54 11.23-28.4 24.29-37.61 38.65-29.51 46.03-22.53 107.34 12.28 162.39-.85-2.35-1.44-4.31-1.76-5.94-5.94-10.05-11.1-20.44-15.21-30.95-18.15-46.29-16-90.82 6.2-125.5 22.2-34.61 61.77-55.24 111.39-58.05 3.85-.2 7.77-.33 11.62-.33 46.49 0 95.79 15.34 140.19 43.81 48.19 30.82 84.75 73.39 103.03 119.81 18.15 46.29 16 90.82-6.2 125.49-28.14 43.88-83.32 63.34-144.69 57.2-1.63.46-3.72.78-6.4.98 64.12 8.29 122.36-10.97 151.74-56.81 9.14-14.41 15.67-31.58 19.39-50.38z" fill="#EDF3FF"/><path d="M333 47.4c13.09 0 23.7-10.61 23.7-23.7S346.09 0 333 0s-23.7 10.61-23.7 23.7 10.61 23.7 23.7 23.7z" fill="#fff"/><path d="M333 37.54c7.65 0 13.84-6.2 13.84-13.84S340.64 9.86 333 9.86s-13.84 6.2-13.84 13.84 6.19 13.84 13.84 13.84z" fill="#000"/><path d="M333 37.54c7.65 0 13.84-6.2 13.84-13.84S340.64 9.86 333 9.86s-13.84 6.2-13.84 13.84 6.19 13.84 13.84 13.84z" fill="#000"/><path fill-rule="evenodd" clip-rule="evenodd" d="M333 9.92c-7.64 0-13.84 6.2-13.84 13.84S325.36 37.6 333 37.6s13.84-6.2 13.84-13.84S340.64 9.92 333 9.92z" fill="#ED2939"/><path d="M351.54 26.05h-37.15v2.35h37.15v-2.35zm-34.8 11.62h32.52c1.31 0 2.35-1.04 2.35-2.35h-37.15c-.07 1.31.97 2.35 2.28 2.35zm34.8-6.98h-37.15v2.35h37.15v-2.35zm0-9.27h-37.15v2.35h37.15v-2.35zm0-9.28h-37.15v2.35h37.15v-2.35zm0 4.64h-37.15v2.35h37.15v-2.35z" fill="#fff"/><path fill-rule="evenodd" clip-rule="evenodd" d="M335.29 10.12c-.78-.13-1.5-.2-2.35-.2-7.64 0-13.84 6.2-13.84 13.84 0 .78.07 1.57.2 2.35h15.93v-16h.06v.01z" fill="#0066B3"/><path fill-rule="evenodd" clip-rule="evenodd" d="M317.92 14.43c-.65 0-1.17-.52-1.17-1.18a1.176 1.176 0 112.35 0c-.07.66-.59 1.18-1.18 1.18zm4.63 0c-.65 0-1.18-.52-1.18-1.18 0-.65.52-1.18 1.18-1.18.65 0 1.18.52 1.18 1.18 0 .66-.52 1.18-1.18 1.18zm4.64 0c-.65 0-1.17-.52-1.17-1.18a1.176 1.176 0 112.35 0c-.01.66-.53 1.18-1.18 1.18zm4.64 0c-.65 0-1.18-.52-1.18-1.18a1.176 1.176 0 112.35 0c0 .66-.52 1.18-1.17 1.18zm-13.91 9.27c-.65 0-1.17-.52-1.17-1.18a1.176 1.176 0 112.35 0c-.07.72-.59 1.18-1.18 1.18zm4.63 0c-.65 0-1.18-.52-1.18-1.18 0-.65.52-1.18 1.18-1.18.65 0 1.18.52 1.18 1.18 0 .72-.52 1.18-1.18 1.18zm4.64 0c-.65 0-1.17-.52-1.17-1.18a1.176 1.176 0 112.35 0c-.01.72-.53 1.18-1.18 1.18zm4.64 0c-.65 0-1.18-.52-1.18-1.18a1.176 1.176 0 112.35 0c0 .72-.52 1.18-1.17 1.18zm-11.63-4.63c-.65 0-1.18-.52-1.18-1.18a1.176 1.176 0 112.35 0c.01.65-.51 1.18-1.17 1.18zm4.64 0c-.65 0-1.18-.52-1.18-1.18 0-.65.52-1.18 1.18-1.18.65 0 1.18.52 1.18 1.18-.01.65-.53 1.18-1.18 1.18zm4.7 0c-.65 0-1.18-.52-1.18-1.18a1.176 1.176 0 112.35 0c-.06.65-.58 1.18-1.17 1.18z" fill="#fff"/><path d="M274.43 65.75c7.07 0 12.8-5.73 12.8-12.8s-5.73-12.8-12.8-12.8-12.8 5.73-12.8 12.8 5.73 12.8 12.8 12.8z" fill="#fff"/><path fill-rule="evenodd" clip-rule="evenodd" d="M266.92 52.95c0 4.11 3.33 7.44 7.44 7.44s7.44-3.33 7.44-7.44-3.33-7.44-7.44-7.44-7.44 3.33-7.44 7.44z" fill="#D00"/><path fill-rule="evenodd" clip-rule="evenodd" d="M267.38 55.5c1.05 2.87 3.79 4.96 6.99 4.96 3.27 0 6.01-2.09 6.99-4.96h-13.98z" fill="#FFCE00"/><path fill-rule="evenodd" clip-rule="evenodd" d="M281.42 50.47c-1.04-2.87-3.79-4.96-6.99-4.96-3.27 0-6.01 2.09-6.99 4.96h13.98z" fill="#000"/><path d="M498.19 187.72c14.79 0 26.77-11.99 26.77-26.77s-11.99-26.77-26.77-26.77-26.77 11.99-26.77 26.77 11.99 26.77 26.77 26.77z" fill="#fff"/><path fill-rule="evenodd" clip-rule="evenodd" d="M513.8 160.95c0-8.62-6.99-15.6-15.61-15.6s-15.61 6.99-15.61 15.6 6.99 15.6 15.61 15.6 15.61-6.98 15.61-15.6z" fill="#EAEAEA"/><path d="M498.19 168.72c4.29 0 7.77-3.48 7.77-7.77 0-4.29-3.48-7.77-7.77-7.77-4.29 0-7.77 3.48-7.77 7.77 0 4.29 3.48 7.77 7.77 7.77z" fill="#BC002D"/><path d="M160.88 344.88c13.38 0 24.22-10.85 24.22-24.23s-10.85-24.22-24.22-24.22c-13.38 0-24.22 10.85-24.22 24.22 0 13.39 10.85 24.23 24.22 24.23z" fill="#fff"/><path fill-rule="evenodd" clip-rule="evenodd" d="M160.88 306.56c-3.92 0-7.44 1.57-9.99 4.11-2.55 2.55-4.11 6.07-4.11 9.99 0 4.38 2.02 8.29 5.16 10.9 1.04.85 2.22 1.57 3.46 2.09 1.7.72 3.53 1.11 5.49 1.11 1.7 0 3.26-.33 4.77-.85 1.96-.72 3.79-1.83 5.22-3.33.65-.65 1.24-1.37 1.7-2.09.52-.78.91-1.57 1.31-2.42.72-1.7 1.11-3.53 1.11-5.49-.01-7.69-6.35-14.02-14.12-14.02z" fill="#009B3A"/><path fill-rule="evenodd" clip-rule="evenodd" d="M174.86 322.42c.07-.59.13-1.17.13-1.76 0-.59-.07-1.17-.13-1.76l-13.97-9.99-13.97 9.99c-.07.59-.13 1.17-.13 1.76 0 .59.07 1.18.13 1.76l13.97 9.99 13.97-9.99z" fill="#FEDF00"/><path d="M160.88 327.71c3.89 0 7.05-3.16 7.05-7.05 0-3.89-3.16-7.05-7.05-7.05-3.9 0-7.05 3.16-7.05 7.05 0 3.89 3.16 7.05 7.05 7.05z" fill="#002776"/><path fill-rule="evenodd" clip-rule="evenodd" d="M156.64 314.98l11.23 6.46c-.07.78-.33 1.57-.72 2.35l-12.21-7.05c.46-.65 1.05-1.24 1.7-1.76z" fill="#fff"/><path d="M364.93 419.19c9.02 0 16.32-7.31 16.32-16.32 0-9.01-7.31-16.32-16.32-16.32-9.01 0-16.32 7.31-16.32 16.32 0 9.01 7.3 16.32 16.32 16.32z" fill="#fff"/><path d="M374.4 402.86c0-.33 0-.59-.06-.91v-.2c-.07-.78-.26-1.57-.59-2.29-.07-.26-.2-.46-.33-.72a9.418 9.418 0 00-1.83-2.61c-.2-.2-.46-.39-.65-.59-.26-.2-.46-.39-.72-.52-.2-.13-.39-.26-.59-.33v16.45c.07-.07.13-.07.2-.13.13-.07.26-.13.33-.2s.13-.13.2-.13c2.47-1.81 4.04-4.62 4.04-7.82zm-14.23-8.22c-.2.13-.39.2-.59.33-.46.33-.91.72-1.37 1.11l-.07.07c-.33.33-.65.72-.91 1.11-.2.26-.39.52-.52.78a9.402 9.402 0 00-1.31 4.83c0 3.2 1.57 6.01 3.98 7.71.07.07.13.13.2.13.2.13.39.26.59.33v-16.4zm6.59 10.77l1.18-3.53-3-2.22-3 2.22 1.11 3.53h3.71z" fill="#ED2939"/><path d="M471.95 353.24c16.66 0 30.17-13.51 30.17-30.17 0-16.66-13.51-30.17-30.17-30.17-16.66 0-30.17 13.51-30.17 30.17 0 16.66 13.51 30.17 30.17 30.17z" fill="#fff"/><path fill-rule="evenodd" clip-rule="evenodd" d="M489.51 323.08c0-9.73-7.9-17.56-17.56-17.56-9.73 0-17.56 7.9-17.56 17.56 0 9.73 7.9 17.56 17.56 17.56 9.66 0 17.56-7.9 17.56-17.56z" fill="#273C83"/><path fill-rule="evenodd" clip-rule="evenodd" d="M484.81 311.06l-12.14 7.9-13.06-8.49c-1.76 1.7-3.13 3.79-4.05 6.14l10.38 6.73-10.18 6.6c.98 2.29 2.41 4.31 4.24 6.01l12.67-8.23 11.82 7.64c1.7-1.76 3.07-3.85 3.92-6.2l-9.01-5.88 9.21-5.94c-.87-2.36-2.17-4.45-3.8-6.28z" fill="#F7F7F7"/><path fill-rule="evenodd" clip-rule="evenodd" d="M486.44 313.08l-13.78 8.95-14.76-9.6c-.59.78-1.11 1.63-1.57 2.48l13.65 8.88-12.99 8.42c.52.85 1.11 1.63 1.76 2.35l13.97-9.08 12.99 8.42c.59-.78 1.18-1.57 1.63-2.42l-12.02-7.7 12.54-8.16c-.38-.84-.9-1.69-1.42-2.54z" fill="#DC1E35"/><path fill-rule="evenodd" clip-rule="evenodd" d="M477.76 328.89h10.71c.65-1.83 1.05-3.79 1.05-5.88s-.39-4.05-1.05-5.88h-10.71v-10.71c-1.83-.65-3.79-1.04-5.88-1.04s-4.05.39-5.88 1.04v10.71h-10.7c-.65 1.83-1.05 3.79-1.05 5.88s.39 4.05 1.05 5.88H466v10.71c1.83.65 3.79 1.04 5.88 1.04s4.05-.39 5.88-1.04v-10.71z" fill="#F7F7F7"/><path fill-rule="evenodd" clip-rule="evenodd" d="M474.89 325.95h14.36c.13-.98.26-1.96.26-2.94s-.13-1.96-.26-2.94h-14.36v-14.36c-.98-.13-1.96-.26-2.94-.26s-1.96.13-2.94.26v14.36h-14.36c-.13.98-.26 1.96-.26 2.94s.13 1.96.26 2.94h14.36v14.36c.98.13 1.96.26 2.94.26s1.96-.13 2.94-.26v-14.36z" fill="#DC1E35"/><path d="M392.87 129.28c9.92 0 17.96-8.04 17.96-17.96 0-9.92-8.04-17.96-17.96-17.96-9.92 0-17.96 8.04-17.96 17.96.01 9.92 8.05 17.96 17.96 17.96z" fill="#fff"/><path fill-rule="evenodd" clip-rule="evenodd" d="M382.36 111.33c0 5.81 4.7 10.45 10.45 10.45 5.75 0 10.45-4.7 10.45-10.45 0-5.81-4.7-10.45-10.45-10.45-5.75-.07-10.45 4.63-10.45 10.45z" fill="#EE1D23"/><path fill-rule="evenodd" clip-rule="evenodd" d="M382.36 111.33c0 2.68 1.04 5.16 2.68 6.99h15.61c1.63-1.83 2.68-4.31 2.68-6.99 0-2.68-1.04-5.16-2.68-6.99h-15.61c-1.63 1.83-2.68 4.31-2.68 6.99z" fill="#F7F7F7"/><path fill-rule="evenodd" clip-rule="evenodd" d="M382.36 111.33c0 1.24.2 2.42.59 3.46h19.72c.39-1.11.59-2.29.59-3.46 0-1.24-.19-2.41-.59-3.46h-19.72c-.33 1.04-.59 2.22-.59 3.46z" fill="#241D4F"/><path d="M60.13 224.15c13.38 0 24.22-10.85 24.22-24.22 0-13.38-10.85-24.23-24.22-24.23s-24.22 10.85-24.22 24.23 10.85 24.22 24.22 24.22z" fill="#fff"/><path fill-rule="evenodd" clip-rule="evenodd" d="M46.03 199.93c0 7.77 6.33 14.1 14.1 14.1s14.1-6.33 14.1-14.1-6.33-14.1-14.1-14.1-14.1 6.33-14.1 14.1z" fill="#273C83"/><path fill-rule="evenodd" clip-rule="evenodd" d="M46.03 199.93h7.05v-2.35h7.05v-7.05h-7.05v-2.81c-4.18 2.42-7.05 6.99-7.05 12.21z" fill="#F7F7F7"/><path fill-rule="evenodd" clip-rule="evenodd" d="M48.38 192.1v.72h-.46c-.46.72-.78 1.5-1.11 2.35h1.5v4.7h2.35v-4.64h9.4v-2.35h-9.34v-3.46c-.83.78-1.62 1.7-2.34 2.68z" fill="#DC1E35"/><path fill-rule="evenodd" clip-rule="evenodd" d="M68.95 194.05c-.98 0-1.76-.78-1.76-1.76s.78-1.76 1.76-1.76 1.76.78 1.76 1.76-.78 1.76-1.76 1.76zm-4.11 5.88c-1.31 0-2.35-1.04-2.35-2.35s1.04-2.35 2.35-2.35 2.35 1.04 2.35 2.35a2.34 2.34 0 01-2.35 2.35zm4.7 7.05c-1.31 0-2.35-1.04-2.35-2.35s1.04-2.35 2.35-2.35 2.35 1.04 2.35 2.35a2.34 2.34 0 01-2.35 2.35zm3.52-9.4c-.65 0-1.18-.52-1.18-1.18 0-.66.52-1.18 1.18-1.18.65 0 1.18.52 1.18 1.18 0 .66-.52 1.18-1.18 1.18zm-22.33 11.75c-1.31 0-2.35-1.04-2.35-2.35s1.04-2.35 2.35-2.35 2.35 1.04 2.35 2.35-1.04 2.35-2.35 2.35z" fill="#F7F7F7"/><path d="M105.52 119.49c7.93 0 14.37-6.43 14.37-14.36s-6.43-14.37-14.37-14.37c-7.93 0-14.36 6.43-14.36 14.37-.01 7.93 6.42 14.36 14.36 14.36z" fill="#fff"/><path fill-rule="evenodd" clip-rule="evenodd" d="M105.52 96.77a8.33 8.33 0 00-8.36 8.36 8.33 8.33 0 008.36 8.36 8.33 8.33 0 008.36-8.36c.06-4.64-3.73-8.36-8.36-8.36z" fill="#F7F7F7"/><path fill-rule="evenodd" clip-rule="evenodd" d="M101.34 97.88c-2.48 1.44-4.18 4.18-4.18 7.25 0 3.07 1.7 5.81 4.18 7.25v-14.5z" fill="#117C4E"/><path fill-rule="evenodd" clip-rule="evenodd" d="M109.69 97.88v14.5c2.48-1.44 4.18-4.18 4.18-7.25.07-3.07-1.63-5.82-4.18-7.25z" fill="#DF1B33"/><path d="M228.27 44.6c8.19 0 14.82-6.64 14.82-14.82s-6.64-14.82-14.82-14.82-14.82 6.64-14.82 14.82 6.63 14.82 14.82 14.82z" fill="#fff"/><path fill-rule="evenodd" clip-rule="evenodd" d="M236.89 29.77c0-4.77-3.85-8.62-8.62-8.62s-8.62 3.85-8.62 8.62 3.85 8.62 8.62 8.62c4.76 0 8.62-3.85 8.62-8.62z" fill="#F7F7F7"/><path fill-rule="evenodd" clip-rule="evenodd" d="M236.43 32.65h-16.26a8.661 8.661 0 008.16 5.75c3.72-.01 6.93-2.42 8.1-5.75z" fill="#21468B"/><path fill-rule="evenodd" clip-rule="evenodd" d="M220.1 26.9h16.26a8.661 8.661 0 00-8.16-5.75c-3.72-.06-6.92 2.36-8.1 5.75z" fill="#DE1018"/><path d="M414.68 284.29c7.5 0 13.58-6.08 13.58-13.58s-6.08-13.58-13.58-13.58-13.58 6.08-13.58 13.58 6.08 13.58 13.58 13.58z" fill="#fff"/><path fill-rule="evenodd" clip-rule="evenodd" d="M406.78 270.71c0 4.38 3.53 7.9 7.9 7.9 4.37 0 7.9-3.53 7.9-7.9 0-4.37-3.52-7.9-7.9-7.9-4.38 0-7.9 3.52-7.9 7.9z" fill="#F7F7F7"/><path fill-rule="evenodd" clip-rule="evenodd" d="M422.12 268.1c-1.11-3.07-3.98-5.29-7.44-5.29-3.46 0-6.33 2.22-7.44 5.29h14.88z" fill="#CE1126"/><path fill-rule="evenodd" clip-rule="evenodd" d="M407.3 273.32c1.11 3.07 3.98 5.29 7.44 5.29 3.46 0 6.33-2.22 7.44-5.29H407.3z" fill="#000"/><path d="M414.68 273.32c1.44 0 2.61-1.17 2.61-2.61s-1.17-2.61-2.61-2.61-2.61 1.17-2.61 2.61 1.17 2.61 2.61 2.61z" fill="#C09300"/><path d="M414.68 272.02c.72 0 1.31-.58 1.31-1.31 0-.72-.58-1.31-1.31-1.31-.73 0-1.31.58-1.31 1.31.01.72.59 1.31 1.31 1.31z" fill="#F7F7F7"/><path d="M352.79 376.94c101.94 0 184.59-82.64 184.59-184.59 0-101.94-82.64-184.59-184.59-184.59S168.2 90.4 168.2 192.35s82.64 184.59 184.59 184.59z" fill="url(#paint11_radial_5464_182616)"/><path opacity=".5" d="M277.5 465.15c153.26 0 277.5-9.21 277.5-20.57s-124.24-20.57-277.5-20.57S0 433.23 0 444.59c0 11.36 124.24 20.56 277.5 20.56z" fill="url(#paint12_radial_5464_182616)"/><g opacity=".7"><path opacity=".9" d="M399.53 518.015c74.34 0 134.59-5.94 134.59-13.27 0-7.33-60.27-13.25-134.61-13.25s-134.59 5.94-134.59 13.25 60.27 13.27 134.61 13.27z" fill="url(#paint13_radial_5464_182616)"/></g><g opacity=".7"><path opacity=".9" d="M277.61 518.015c74.34 0 134.59-5.94 134.59-13.27 0-7.33-60.27-13.25-134.61-13.25S143 497.435 143 504.745s60.27 13.27 134.61 13.27z" fill="url(#paint14_radial_5464_182616)"/></g><path d="M335.22 198.165a2.074 2.074 0 01.85-1.62 33.987 33.987 0 01-4.87-1.11c-4.79-1.11-4.71-8.13-8.3-11.38-.43-.25-4.1-2-4.45-2.31l-.77 9.58c.09 4-2.48 8.13-4.7 11.46l1.45-.08a2.21 2.21 0 00.95 2.22l.59.43a34.515 34.515 0 0013.77 4.79c3.25.34 7.19.17 6.07-2.91-.85-2.14-.69-7.49-.59-9.07z" fill="url(#paint15_linear_5464_182616)"/><path d="M355.57 146.745s-4.36 2-28.74-2.31c-24.38-4.31-23.34 24.63-18.3 31.81 1 1.54 5 7.87 5 7.87l5.64-3c.17-1.2-1.11-4.62-1.11-4.62l2.57.17c3-3.76 3.08-12.92 3.08-12.92l19.07 1.29c2.061.145 4.13-.148 6.07-.86a8.712 8.712 0 003-2c5.52-5.31 3.72-15.43 3.72-15.43z" fill="url(#paint16_linear_5464_182616)"/><path d="M323.75 163.965s0 9.15-3.07 12.91h-1s-1.8-3.93-5.73-2c-1.28.69-1.8 3.77-1.8 3.77l-.08 2.22a9.35 9.35 0 002.39 6.58 2.863 2.863 0 001.71 1c1.11.26 2.65-.6 2.91-.68l.43 2.9a5.549 5.549 0 002.22 3.51c1.88 1.2 3.68 2.31 5.73 3.68 5.3 3.25 11.63 5.13 13.94 2.9 7.27-7 7.61-29.24 7.53-36.34a13.166 13.166 0 01-6.07.85l-19.11-1.3z" fill="url(#paint17_linear_5464_182616)"/><path d="M414.41 204.065l-3.29 11.12 1.88 1.63 6.16-9.24-2.36-3.83-2.39.32z" fill="url(#paint18_linear_5464_182616)"/><path d="M409.45 219.035l-3.68-1.29a1.041 1.041 0 01-.636-.538 1.05 1.05 0 01-.044-.832l9.83-28.39a1.073 1.073 0 01.537-.638 1.07 1.07 0 01.833-.052l3.68 1.29a1.01 1.01 0 01.653.524 1 1 0 01.027.836l-9.83 28.4a1.121 1.121 0 01-1.37.69z" fill="url(#paint19_linear_5464_182616)"/><path d="M395 226.571s5.21-7.18 4.7-9.41c-.51-2.23-.43-9.74 0-10.77.43-1.03 4.53-8.13 5.22-8.3.69-.17 5.56-.17 6.24.6.68.77.09 2.91-3.34 3.34-.51.08-.42.17-.42.17s0 4.79.85 5l-2.73 8.13c-.43 1.37-.18 2 1.11 2.65l3.08 1a1.263 1.263 0 001.11-.69l1.28-3.76.6 1 .26 5.81s-5.56 5.3-6.08 6.76c-.52 1.46-3.16 4.19-3.16 4.19l-8.72-5.72z" fill="url(#paint20_linear_5464_182616)"/><path d="M396.28 222.545s-22.92 29-26.69 29c-3.77 0-30.7-42.42-35.06-42.76-4.36-.34 10.95 54.56 10.95 54.56s7.69 14 22.66 14c20.27 0 40.37-46.87 40.37-46.87l-12.23-7.93z" fill="url(#paint21_linear_5464_182616)"/><path d="M243.206 464.871s9.23-7.78 11-7.87c1.77-.09 11.2 9.41 11.2 9.41s-5.64 7-6.58 9.58c-.94 2.58-8.13 3.42-12.57.34-4.44-3.08-3.05-11.46-3.05-11.46z" fill="url(#paint22_linear_5464_182616)"/><path d="M242.6 463.745c.146-.058.305-.082.462-.068a1.004 1.004 0 01.908.928c.17 3.25 1.19 10.95 5.73 10.95 5.81 0 5-1.46 10.86 0 0 0-.69 15.22 1.45 18.81 2.14 3.59 7.27 1.45 9.41 5.05 2.14 3.6 1.54 5.38 1.54 5.38h-16.51a3.868 3.868 0 01-2.9-1.37l-24.12-28.56s2.31-6.28 13.17-11.12z" fill="url(#paint23_linear_5464_182616)"/><path d="M385.399 471s2.31 7.1 3.07 8.12c.76 1.02-2.39 13.86-8.63 12.32-6.24-1.54-6.84.17-6.84.17s-1.46-12.14-2.91-15.39c-1.45-3.25 15.31-5.22 15.31-5.22z" fill="url(#paint24_linear_5464_182616)"/><path d="M379.9 395.75c3.25 21 7.7 78.68 7.7 78.68s-8.13 7.27-18.65 4.88c0 0-16.42-64.74-17.27-71.24-.85-6.5-26.68-47.41-26.68-47.41v-30.24l30.18-3.42c0-.09 21.47 47.72 24.72 68.75z" fill="url(#paint25_linear_5464_182616)"/><path d="M388.195 474.503a2.333 2.333 0 013 .09c2.65 2.14 9.66 8.12 16.93 7.61 9.5-.6 17-2 18.39 6.16.1 1.402.013 2.812-.26 4.19l-53.63 10.53s-1.71-8.13-1.45-10c.16-1.567.103-3.148-.17-4.7a.912.912 0 011-1c3.08.43 10.61 1.88 14-1.79 4.07-4.25-2.19-7.67 2.19-11.09z" fill="url(#paint26_linear_5464_182616)"/><path d="M295.52 319s-3 22.66-1.28 41.9c1.28 14.2.94 31-.52 35.83-2.73 8.81-6.92 12.4-44.72 60.38 0 0 6.41 12.32 18.55 13.94 0 0 56.1-57.64 58.16-64.65 2.48-8.13 7.44-21.38 15.9-84.5l-46.09-2.9z" fill="url(#paint27_linear_5464_182616)"/><path d="M316.23 199.025a43.046 43.046 0 0018.47 8.21 4.188 4.188 0 013.17 2.65 296.386 296.386 0 0114.36 60.12c4.19 34.29 8.47 56.7 8.47 56.7s-38.4 8-63.88-9.75l-8.81-3.42s-3.89-68.79 4.11-88.43c6.5-16 17.62-23.94 21.55-26.25a2.524 2.524 0 012.56.17z" fill="url(#paint28_linear_5464_182616)"/><path d="M418.97 195a3.307 3.307 0 011.45 3.5 41.449 41.449 0 00-.17 6.93s-2-4.19-3.25-4.62l1.97-5.81z" fill="url(#paint29_linear_5464_182616)"/><path d="M411.767 222.587s6.24-6.41 7.18-8.3c.94-1.89.77-2.82 1.2-3.59.43-.77 2.05-.77.94-3.85-1.11-3.08-2.31-6.07-3.59-6.75-1.28-.68-5.13 2.39-6.25 4.19-.51.94-.77 2.73.95 2.65a2.205 2.205 0 001.28-.51c.77-.52 2.22-1.54 2.56-1.2.439.585.815 1.215 1.12 1.88 0 0-4.88.34-6.76.77s-1.45 2.48.68 2.74c.988.099 1.963.3 2.91.6 0 0-3.51-.52-4.87.17-.77.42-2.31 1.54.51 2.48 1 .34 2.31 1.79 2.14 2.39" fill="url(#paint30_linear_5464_182616)"/><path d="M307.25 319.355s6.59 8.12 8.21 9.49c1.62 1.37-4.19 10.26-8.21 11.54 0 0-8.81-9.23-9.92-10.52-1.11-1.29 9.92-10.51 9.92-10.51z" fill="url(#paint31_linear_5464_182616)"/><path d="M315.72 215.615s-11-9.58-18.64.77c-9.75 13.26-25.57 59.09-25.15 65.42.42 6.33 4 30 26.6 51.49l1-.43c4.61-2.91 8-5.39 11-9.92l.43-.6s-14.8-29.51-14.37-39.94c.43-10.43 34.61-55.33 19.13-66.79z" fill="url(#paint32_linear_5464_182616)"/><path d="M242.34 208.845s-2.92-9-17.29-3.22c-14.37 5.78-15.21 21.82-20.67 46.05-5.46 24.23-14.41 22.74-6.47 20.24 18-5.95 23-23.4 20.66-16.45l-2.35 7s43.24-24.31 26.12-53.62z" fill="url(#paint33_linear_5464_182616)"/><g opacity=".7"><path opacity=".9" d="M319.61 546.52c74.34 0 134.59-5.94 134.59-13.27 0-7.33-60.27-13.25-134.61-13.25S185 525.94 185 533.25s60.27 13.27 134.61 13.27z" fill="url(#paint34_radial_5464_182616)"/></g><g opacity=".7"><path opacity=".9" d="M196.667 546c61.67 0 111.651-4.928 111.651-11.008 0-6.081-49.998-10.992-111.667-10.992C134.981 524 85 528.928 85 534.992 85 541.056 134.998 546 196.667 546z" fill="url(#paint35_radial_5464_182616)"/></g><path d="M330.64 232a2.748 2.748 0 011.21 2.91 34.31 34.31 0 00-.14 5.76s-1.71-3.48-2.71-3.84l1.64-4.83z" fill="url(#paint36_linear_5464_182616)"/><path d="M319.5 252.5l-.5-.5c-.114-.034.591.076.5 0-.091-.076.145-.201.091-.307a.873.873 0 01-.041-.688l8.19-23.6a.88.88 0 01.79-.62.886.886 0 01.35.05l3.06 1.06a.883.883 0 01.621.79.869.869 0 01-.051.35l-8.19 23.6a.915.915 0 01-.186.317c-.082.093-.022.495-.134.548-.112.053-.376-.006-.5 0s-3.884-.957-4-1z" fill="#BDD4FF"/><path d="M311 259.787s4.34-6 3.91-7.82c-.43-1.82-.35-8.11 0-9 .35-.89 3.78-6.75 4.35-6.89.57-.14 4.63-.15 5.2.49.57.64.07 2.42-2.78 2.78-.43.07-.36.14-.36.14s0 4 .72 4.19l-2.28 6.75c-.36 1.14-.33 1.503.74 2.073l1.342.417c.192.004 1.789.522 1.952.421a.994.994 0 00.376-.421l1.07-3.13.5.86.21 4.83s-4.63 4.41-5.05 5.62a17.962 17.962 0 01-2.64 3.48l-7.26-4.79z" fill="url(#paint37_linear_5464_182616)"/><path d="M312.12 256.115s-19.62 25.8-22.75 25.8c-3.13 0-28.89-42.54-31-40.62-4.53.36 11.46 48.73 11.46 48.73s6.41 11.66 18.87 11.66c16.87 0 33.61-39 33.61-39l-10.19-6.57z" fill="url(#paint38_linear_5464_182616)"/><path d="M325.5 256s4.814-5.529 5.614-7.099c.8-1.57.64-2.34 1-3 .36-.66 1.71-.64.79-3.2-.92-2.56-1.93-5.05-3-5.62-1.07-.57-4.27 2-5.19 3.49-.43.78-.64 2.27.78 2.2.394-.021.77-.172 1.07-.43.64-.42 1.85-1.28 2.13-1 .367.484.679 1.007.93 1.56 0 0-4.06.29-5.63.64-1.57.35-1.21 2.06.57 2.28.823.086 1.637.25 2.43.49 0 0-2.92-.42-4.06.15-.64.35-1.93 1.28.42 2.06.86.28 1.93 1.49 1.78 2" fill="url(#paint39_linear_5464_182616)"/><path d="M172.16 491L165 502.14l10.78 7.86 7.76-11.73-11.38-7.27z" fill="url(#paint40_linear_5464_182616)"/><path d="M290.12 510.015l3.26 10 13.36-2-3.36-12.27-13.26 4.27z" fill="url(#paint41_linear_5464_182616)"/><path d="M168 491.02l42.07-64.46 6.65-83.56 42.28 6.93s-20.59 76.63-25.49 86.31c-4.9 9.68-50.52 65.69-50.52 65.69l-.95-.33a28.859 28.859 0 01-14-10.58H168z" fill="url(#paint42_linear_5464_182616)"/><path d="M222.23 347.255c3.55 4.16 41 88.18 41 88.18l25.58 75.94a22.138 22.138 0 0015.61-3.63l.74-.5s-12.55-66.39-15.26-79.23c-2.71-12.84-18.14-79.64-18.14-79.64l-43.7.09-5.83-1.21z" fill="url(#paint43_linear_5464_182616)"/><path d="M290.35 531.455c.58.71 16.16.54 16.16.54 27.17-.25 29.11-2.25 29.11-2.25 1.16-7.27-1.53-7.18-1.53-7.18-10-.91-27.51-11.23-27.51-11.23-2.25 1-3.25 1.85-3.29 3.06-.04 1.21.6 1.61-2.12 3s-4.69-.15-6.19-1.56a4.262 4.262 0 00-2.9-1.18.347.347 0 00-.35.28c-1.27 6.88-1.95 15.81-1.38 16.52z" fill="url(#paint44_linear_5464_182616)"/><path d="M267.88 260.635l-8.47-18.95c-7.61-6.87-19.76-4.61-19.7-4.67-16.23 1.84-23.46 13.87-22.31 30.55l1.54 39.5-5.07 34.49c-.05 2.7 2.94 3.8 5.64 5.37a39.027 39.027 0 008.85 3c10.81 2.17 47.83 7.12 48.17 1.7 0 0-1.94-16.86-2.6-35.13l-2.38-39.3a42.104 42.104 0 00-3.67-16.56z" fill="url(#paint45_linear_5464_182616)"/><path d="M237.68 240.405c4.19 2.72 6.91 4.08 9.36 4 3.65.36 5.73-3.08 5.73-3.08l.67-9.85-14.13-12.13-3.48 16.78a4.149 4.149 0 001.85 4.28z" fill="url(#paint46_linear_5464_182616)"/><path d="M200.731 368.115l-.01-.257-.069-.274-.063-.393c-.732-2.935-1.554-5.432-1.422-8.777a8.27 8.27 0 00-3.709-1.165 8.205 8.205 0 00-3.823.666s-.634 2.85-.977 3.001a29.244 29.244 0 00-2.888 4.063 16.031 16.031 0 00-1.468 2.794c-.742 2.093-5.238 9.093-4.47 9.459.769.365 1.476.407 2.472-1.35.995-1.758 2.851-5.791 3.302-5.621.452.171.274 1.086-.853 2.938a41.827 41.827 0 00-3.067 8.713c.163.231 1.431 1.269 2.267-.631.835-1.899 3.334-8.308 3.797-8.593.462-.285.257.415-.07 1.208-.327.793-1.319 4.635-1.628 4.894a21.341 21.341 0 00-1.741 5.007c.163.201 1.23 1.563 2.3-.287a48.415 48.415 0 002.626-7.115c.293-.931.856-2.859 1.285-2.767.429.092-.13 1.882-.387 2.732-.258.85-1.955 6.724-1.927 6.94.027.217.593 1.331 1.494.634.901-.696 3.3-9.196 3.875-10.315a8.342 8.342 0 012.008-2.844l.14-.134.932 2.108c.384 1.428 1.551 3.605 1.861 3.613.309.008.965-.037.921-1.171-.044-1.135-.708-7.076-.708-7.076z" fill="url(#paint47_linear_5464_182616)"/><path d="M210.93 316.745l-8.81 46.28c-3.34.65-11.5.21-13.14-5.39 0 0 .25-22.21 4.15-41.49 1.06-5.32 8-31.25 9.07-35.22 4.25-15.83 11-26.27 21.07-37.09a34.599 34.599 0 014.84-3.78c8-5.13 7.81-2.77 7.58-2.14.34-.17-.44 1.6.55 2.23 2.45 1 5 16.31-1.64 26l-22.28 44.53-1.39 6.07z" fill="url(#paint48_linear_5464_182616)"/><path d="M166.98 495.067a.91.91 0 01.821.071.903.903 0 01.419.709c.15 2.94 1.08 9.9 5.19 9.9 5.27 0 4.57-1.31 9.84 0 0 0-.62 13.77 1.32 17 1.94 3.23 6.59 1.32 8.52 4.57 1.93 3.25 1.4 4.87 1.4 4.87h-15a3.497 3.497 0 01-2.63-1.24L155 505.107s2.13-5.62 11.98-10.04z" fill="url(#paint49_linear_5464_182616)"/><path d="M231.31 210.525a5.734 5.734 0 01-4.235-4.736 5.733 5.733 0 015.962-6.533 5.732 5.732 0 015.103 3.785 5.72 5.72 0 01.17 3.314 5.69 5.69 0 01-7 4.17z" fill="url(#paint50_linear_5464_182616)"/><path d="M237.847 215.848a26.409 26.409 0 00-.13 6c.19 3.34 4.87 6.89 12.54 11.19 15.59 8.55 22.58-30.22 22.5-35.35-.08-5.13-19.55-11.35-25.86-7.48-6.31 3.87-7.33 17.43-7.33 17.43s-.51-3.42-3.51-3.26c-3.21.12-2.7 13.07 1.79 11.47z" fill="url(#paint51_linear_5464_182616)"/><path d="M256.33 181.343c-22.09-3-25.33 14.44-25.33 23.07.05 8.41 5.93 16.23 5.93 16.23a46.37 46.37 0 00.4-4.78 1.56 1.56 0 01-2-.72 10.507 10.507 0 01-1.31-5.66c.14-4.62 2.31-5.1 3-4.8 1.31.66 1.74 2.59 1.9 2.85.16.26.77.54 1.09-.29 3.48-7.53 6.4-11.91 14.18-11.67 5.51.24 8.13-1.6 8.13-1.6a3.15 3.15 0 00.59-1c.05.24 0 .46 0 .8a2.401 2.401 0 001.12 1.42 17.896 17.896 0 003.8 2.08c1.34.56 3 1.9 3.31 3.55.43 2.38-.64 8.677-.64 8.677 4.42-5.49 4.39-24.657-14.17-28.157z" fill="url(#paint52_linear_5464_182616)"/><path d="M252.52 241.025c.272-1.161.426-2.347.46-3.54a25.466 25.466 0 013.09 4.41c2 3.36-2.23 6.78-2.23 6.78l-4.17-5.18c.475-.059.932-.22 1.34-.47a3.278 3.278 0 001.51-2z" fill="url(#paint53_linear_5464_182616)"/><path d="M237.4 238.745c-2.33-1.41-1.27-4.17-1.27-4.17a16.425 16.425 0 00-4.23 4.1c-3 3.8 17.67 12.4 17.67 12.4l.22-7.59s-7.89-1.88-12.39-4.74z" fill="url(#paint54_linear_5464_182616)"/><path d="M219.11 297.41l.48 7.41-.59 8.41 12 6.84.63-48.07-12.52 25.41z" fill="url(#paint55_linear_5464_182616)"/><defs><linearGradient id="paint0_linear_5464_182616" x1="401.779" y1="137.893" x2="477.338" y2="50.2" gradientUnits="userSpaceOnUse"><stop offset=".001" stop-color="#BDD4FF"/><stop offset=".999" stop-color="#EDF3FF"/></linearGradient><linearGradient id="paint1_linear_5464_182616" x1="390.218" y1="247.884" x2="557.006" y2="264.425" gradientUnits="userSpaceOnUse"><stop offset=".001" stop-color="#BDD4FF"/><stop offset=".999" stop-color="#EDF3FF"/></linearGradient><linearGradient id="paint2_linear_5464_182616" x1="209.342" y1="135.667" x2="129.608" y2="23.912" gradientUnits="userSpaceOnUse"><stop offset=".001" stop-color="#BDD4FF"/><stop offset=".999" stop-color="#EDF3FF"/></linearGradient><linearGradient id="paint3_linear_5464_182616" x1="400.748" y1="137.769" x2="476.24" y2="50.155" gradientUnits="userSpaceOnUse"><stop offset=".001" stop-color="#BDD4FF"/><stop offset=".999" stop-color="#EDF3FF"/></linearGradient><linearGradient id="paint4_linear_5464_182616" x1="389.191" y1="247.667" x2="555.831" y2="264.193" gradientUnits="userSpaceOnUse"><stop offset=".001" stop-color="#BDD4FF"/><stop offset=".999" stop-color="#EDF3FF"/></linearGradient><linearGradient id="paint5_linear_5464_182616" x1="208.48" y1="135.535" x2="128.817" y2="23.878" gradientUnits="userSpaceOnUse"><stop offset=".001" stop-color="#BDD4FF"/><stop offset=".999" stop-color="#EDF3FF"/></linearGradient><linearGradient id="paint54_linear_5464_182616" x1="22892.8" y1="-15524.9" x2="22735.6" y2="-15735.6" gradientUnits="userSpaceOnUse"><stop stop-color="#BDD4FF"/><stop offset="1" stop-color="#fff"/></linearGradient><linearGradient id="paint53_linear_5464_182616" x1="248.533" y1="225.535" x2="249.623" y2="234.677" gradientUnits="userSpaceOnUse"><stop stop-color="#BDD4FF"/><stop offset="1" stop-color="#fff"/></linearGradient><linearGradient id="paint52_linear_5464_182616" x1="240.17" y1="207.617" x2="266.792" y2="188.175" gradientUnits="userSpaceOnUse"><stop stop-color="#0E1B33"/><stop offset="1" stop-color="#233B67"/></linearGradient><linearGradient id="paint51_linear_5464_182616" x1="241.718" y1="200.428" x2="274.854" y2="224.641" gradientUnits="userSpaceOnUse"><stop offset=".26" stop-color="#F6CFBE"/><stop offset=".93" stop-color="#FFE8E1"/></linearGradient><linearGradient id="paint50_linear_5464_182616" x1="234.238" y1="207.035" x2="230.389" y2="201.65" gradientUnits="userSpaceOnUse"><stop stop-color="#4687FF"/><stop offset="1" stop-color="#77A7FF"/></linearGradient><linearGradient id="paint49_linear_5464_182616" x1="155.04" y1="513.607" x2="194.56" y2="513.607" gradientUnits="userSpaceOnUse"><stop offset=".23" stop-color="#EDF3FF"/><stop offset="1" stop-color="#fff"/></linearGradient><linearGradient id="paint48_linear_5464_182616" x1="176.18" y1="314.455" x2="282.96" y2="277.565" gradientUnits="userSpaceOnUse"><stop stop-color="#F64F64"/><stop offset=".18" stop-color="#F65367"/><stop offset=".34" stop-color="#F75E71"/><stop offset=".5" stop-color="#F87082"/><stop offset=".65" stop-color="#FA8B99"/><stop offset=".81" stop-color="#FCADB7"/><stop offset=".95" stop-color="#FED5DB"/><stop offset="1" stop-color="#FFE4E8"/></linearGradient><linearGradient id="paint47_linear_5464_182616" x1="198.508" y1="362.876" x2="185.561" y2="386.38" gradientUnits="userSpaceOnUse"><stop stop-color="#F6CFBE"/><stop offset="1" stop-color="#FFE8E1"/></linearGradient><linearGradient id="paint46_linear_5464_182616" x1="239.915" y1="225.638" x2="249.1" y2="239.757" gradientUnits="userSpaceOnUse"><stop offset=".26" stop-color="#F6CFBE"/><stop offset=".93" stop-color="#FFE8E1"/></linearGradient><linearGradient id="paint15_linear_5464_182616" x1="315.8" y1="199.575" x2="361.89" y2="183.495" gradientUnits="userSpaceOnUse"><stop offset=".04" stop-color="#F5CEBD"/><stop offset="1" stop-color="#FFE7E0"/></linearGradient><linearGradient id="paint16_linear_5464_182616" x1="304.368" y1="163.476" x2="359.402" y2="163.476" gradientUnits="userSpaceOnUse"><stop stop-color="#0E1B33"/><stop offset="1" stop-color="#233B67"/></linearGradient><linearGradient id="paint17_linear_5464_182616" x1="317.94" y1="171.095" x2="354.07" y2="189.265" gradientUnits="userSpaceOnUse"><stop offset=".18" stop-color="#F6CFBE"/><stop offset="1" stop-color="#FFE8E1"/></linearGradient><linearGradient id="paint18_linear_5464_182616" x1="414.15" y1="210.085" x2="439.66" y2="190.345" gradientUnits="userSpaceOnUse"><stop stop-color="#F5CEBD"/><stop offset="1" stop-color="#FFE7E0"/></linearGradient><linearGradient id="paint19_linear_5464_182616" x1="405.06" y1="203.175" x2="420.73" y2="203.175" gradientUnits="userSpaceOnUse"><stop stop-color="#4686FF"/><stop offset="1" stop-color="#77A6FF"/></linearGradient><linearGradient id="paint20_linear_5464_182616" x1="399.97" y1="223.861" x2="413.44" y2="202.341" gradientUnits="userSpaceOnUse"><stop stop-color="#F5CEBD"/><stop offset="1" stop-color="#FFE7E0"/></linearGradient><linearGradient id="paint21_linear_5464_182616" x1="324.91" y1="287.345" x2="380.06" y2="210.695" gradientUnits="userSpaceOnUse"><stop offset=".24" stop-color="#4687FF"/><stop offset="1" stop-color="#77A7FF"/></linearGradient><linearGradient id="paint22_linear_5464_182616" x1="251.466" y1="467.521" x2="257.286" y2="467.911" gradientUnits="userSpaceOnUse"><stop stop-color="#F5CEBD"/><stop offset="1" stop-color="#FFE7E0"/></linearGradient><linearGradient id="paint23_linear_5464_182616" x1="229.43" y1="484.195" x2="273.04" y2="484.195" gradientUnits="userSpaceOnUse"><stop offset=".23" stop-color="#EDF3FF"/><stop offset="1" stop-color="#fff"/></linearGradient><linearGradient id="paint24_linear_5464_182616" x1="374.279" y1="481.9" x2="385.889" y2="481.1" gradientUnits="userSpaceOnUse"><stop stop-color="#F5CEBD"/><stop offset="1" stop-color="#FFE7E0"/></linearGradient><linearGradient id="paint25_linear_5464_182616" x1="325" y1="403.4" x2="387.6" y2="403.4" gradientUnits="userSpaceOnUse"><stop stop-color="#0E1B33"/><stop offset="1" stop-color="#233B67"/></linearGradient><linearGradient id="paint26_linear_5464_182616" x1="381.005" y1="502.423" x2="426.095" y2="469.923" gradientUnits="userSpaceOnUse"><stop offset=".21" stop-color="#EDF3FF"/><stop offset="1" stop-color="#fff"/></linearGradient><linearGradient id="paint27_linear_5464_182616" x1="263.68" y1="345.28" x2="316.72" y2="419.71" gradientUnits="userSpaceOnUse"><stop stop-color="#0E1B33"/><stop offset="1" stop-color="#233B67"/></linearGradient><linearGradient id="paint28_linear_5464_182616" x1="296.39" y1="281.975" x2="373.62" y2="245.645" gradientUnits="userSpaceOnUse"><stop stop-color="#4687FF"/><stop offset="1" stop-color="#77A7FF"/></linearGradient><linearGradient id="paint29_linear_5464_182616" x1="1873.2" y1="-8978.09" x2="1896.1" y2="-8969.97" gradientUnits="userSpaceOnUse"><stop stop-color="#F5CEBD"/><stop offset="1" stop-color="#FFE7E0"/></linearGradient><linearGradient id="paint30_linear_5464_182616" x1="403.887" y1="227.227" x2="417.357" y2="205.697" gradientUnits="userSpaceOnUse"><stop stop-color="#F5CEBD"/><stop offset="1" stop-color="#FFE7E0"/></linearGradient><linearGradient id="paint31_linear_5464_182616" x1="5830.34" y1="-20872.6" x2="6047.11" y2="-20915" gradientUnits="userSpaceOnUse"><stop stop-color="#F5CEBD"/><stop offset="1" stop-color="#FFE7E0"/></linearGradient><linearGradient id="paint32_linear_5464_182616" x1="247.95" y1="262.265" x2="391.17" y2="288.905" gradientUnits="userSpaceOnUse"><stop stop-color="#4687FF"/><stop offset=".77" stop-color="#77A7FF"/></linearGradient><linearGradient id="paint33_linear_5464_182616" x1="216.518" y1="266.137" x2="236.131" y2="186.487" gradientUnits="userSpaceOnUse"><stop stop-color="#0E1B33"/><stop offset=".95" stop-color="#233B67"/></linearGradient><linearGradient id="paint45_linear_5464_182616" x1="213.31" y1="318.455" x2="322.45" y2="257.325" gradientUnits="userSpaceOnUse"><stop stop-color="#F64F64"/><stop offset=".94" stop-color="#FFE4E8"/></linearGradient><linearGradient id="paint44_linear_5464_182616" x1="310.51" y1="530.761" x2="317.245" y2="512.497" gradientUnits="userSpaceOnUse"><stop offset=".01" stop-color="#EDF3FF"/><stop offset="1" stop-color="#fff"/></linearGradient><linearGradient id="paint36_linear_5464_182616" x1="329.92" y1="237.67" x2="332.81" y2="234.6" gradientUnits="userSpaceOnUse"><stop stop-color="#F5CEBD"/><stop offset="1" stop-color="#FFE7E0"/></linearGradient><linearGradient id="paint37_linear_5464_182616" x1="315.13" y1="257.527" x2="326.33" y2="239.637" gradientUnits="userSpaceOnUse"><stop stop-color="#F5CEBD"/><stop offset="1" stop-color="#FFE7E0"/></linearGradient><linearGradient id="paint38_linear_5464_182616" x1="285.42" y1="336.455" x2="291.09" y2="232.515" gradientUnits="userSpaceOnUse"><stop stop-color="#F64F64"/><stop offset=".18" stop-color="#F65267"/><stop offset=".33" stop-color="#F75D70"/><stop offset=".47" stop-color="#F86F80"/><stop offset=".61" stop-color="#F98896"/><stop offset=".74" stop-color="#FBA8B3"/><stop offset=".87" stop-color="#FECFD6"/><stop offset=".93" stop-color="#FFE4E8"/></linearGradient><linearGradient id="paint39_linear_5464_182616" x1="318.574" y1="259.681" x2="329.774" y2="241.781" gradientUnits="userSpaceOnUse"><stop stop-color="#F5CEBD"/><stop offset="1" stop-color="#FFE7E0"/></linearGradient><linearGradient id="paint40_linear_5464_182616" x1="165.24" y1="499.56" x2="183.15" y2="501.5" gradientUnits="userSpaceOnUse"><stop stop-color="#F6CFBE"/><stop offset="1" stop-color="#FFE8E1"/></linearGradient><linearGradient id="paint41_linear_5464_182616" x1="-10940.7" y1="-16504" x2="-11216.4" y2="-16504" gradientUnits="userSpaceOnUse"><stop stop-color="#F6CFBE"/><stop offset="1" stop-color="#FFE8E1"/></linearGradient><linearGradient id="paint42_linear_5464_182616" x1="256.82" y1="411.92" x2="138.73" y2="433.79" gradientUnits="userSpaceOnUse"><stop offset=".13" stop-color="#233B67"/><stop offset="1" stop-color="#305EB2"/></linearGradient><linearGradient id="paint43_linear_5464_182616" x1="284.53" y1="420.545" x2="182.61" y2="455.925" gradientUnits="userSpaceOnUse"><stop stop-color="#233B67"/><stop offset="1" stop-color="#305EB2"/></linearGradient><linearGradient id="paint55_linear_5464_182616" x1="234.093" y1="292.395" x2="221.625" y2="289.204" gradientUnits="userSpaceOnUse"><stop stop-color="#F64F64" stop-opacity="0"/><stop offset="1" stop-color="#F64F64"/></linearGradient><radialGradient id="paint14_radial_5464_182616" cx="0" cy="0" r="1" gradientUnits="userSpaceOnUse" gradientTransform="matrix(135.39 0 0 15.48 282.193 504.325)"><stop stop-color="#305EB1" stop-opacity=".3"/><stop offset=".1" stop-color="#3461B2" stop-opacity=".26"/><stop offset=".2" stop-color="#3F6AB7" stop-opacity=".21"/><stop offset=".29" stop-color="#5279BE" stop-opacity=".17"/><stop offset=".38" stop-color="#6D8DC8" stop-opacity=".13"/><stop offset=".47" stop-color="#8FA8D5" stop-opacity=".09"/><stop offset=".56" stop-color="#B9C9E5" stop-opacity=".05"/><stop offset=".65" stop-color="#EBEFF7" stop-opacity=".01"/><stop offset=".68" stop-color="#fff" stop-opacity="0"/></radialGradient><radialGradient id="paint34_radial_5464_182616" cx="0" cy="0" r="1" gradientUnits="userSpaceOnUse" gradientTransform="matrix(135.39 0 0 15.48 324.193 532.83)"><stop stop-color="#305EB1" stop-opacity=".3"/><stop offset=".1" stop-color="#3461B2" stop-opacity=".26"/><stop offset=".2" stop-color="#3F6AB7" stop-opacity=".21"/><stop offset=".29" stop-color="#5279BE" stop-opacity=".17"/><stop offset=".38" stop-color="#6D8DC8" stop-opacity=".13"/><stop offset=".47" stop-color="#8FA8D5" stop-opacity=".09"/><stop offset=".56" stop-color="#B9C9E5" stop-opacity=".05"/><stop offset=".65" stop-color="#EBEFF7" stop-opacity=".01"/><stop offset=".68" stop-color="#fff" stop-opacity="0"/></radialGradient><radialGradient id="paint13_radial_5464_182616" cx="0" cy="0" r="1" gradientUnits="userSpaceOnUse" gradientTransform="matrix(135.39 0 0 15.48 404.113 504.325)"><stop stop-color="#305EB1" stop-opacity=".3"/><stop offset=".1" stop-color="#3461B2" stop-opacity=".26"/><stop offset=".2" stop-color="#3F6AB7" stop-opacity=".21"/><stop offset=".29" stop-color="#5279BE" stop-opacity=".17"/><stop offset=".38" stop-color="#6D8DC8" stop-opacity=".13"/><stop offset=".47" stop-color="#8FA8D5" stop-opacity=".09"/><stop offset=".56" stop-color="#B9C9E5" stop-opacity=".05"/><stop offset=".65" stop-color="#EBEFF7" stop-opacity=".01"/><stop offset=".68" stop-color="#fff" stop-opacity="0"/></radialGradient><radialGradient id="paint12_radial_5464_182616" cx="0" cy="0" r="1" gradientUnits="userSpaceOnUse" gradientTransform="matrix(277.484 0 0 23.8995 277.494 444.952)"><stop stop-color="#305EB1" stop-opacity=".3"/><stop offset=".149" stop-color="#3461B2" stop-opacity=".255"/><stop offset=".289" stop-color="#3F6AB7" stop-opacity=".213"/><stop offset=".425" stop-color="#5279BE" stop-opacity=".172"/><stop offset=".56" stop-color="#6D8DC8" stop-opacity=".132"/><stop offset=".692" stop-color="#8FA8D5" stop-opacity=".092"/><stop offset=".824" stop-color="#B9C9E5" stop-opacity=".053"/><stop offset=".952" stop-color="#EBEFF7" stop-opacity=".015"/><stop offset="1" stop-color="#fff" stop-opacity="0"/></radialGradient><radialGradient id="paint11_radial_5464_182616" cx="0" cy="0" r="1" gradientUnits="userSpaceOnUse" gradientTransform="translate(352.195 190.491) scale(124.418)"><stop stop-color="#fff" stop-opacity=".8"/><stop offset="1" stop-color="#fff" stop-opacity="0"/></radialGradient><radialGradient id="paint35_radial_5464_182616" cx="0" cy="0" r="1" gradientUnits="userSpaceOnUse" gradientTransform="matrix(112.314 0 0 12.8416 200.469 534.643)"><stop stop-color="#305EB1" stop-opacity=".3"/><stop offset=".1" stop-color="#3461B2" stop-opacity=".26"/><stop offset=".2" stop-color="#3F6AB7" stop-opacity=".21"/><stop offset=".29" stop-color="#5279BE" stop-opacity=".17"/><stop offset=".38" stop-color="#6D8DC8" stop-opacity=".13"/><stop offset=".47" stop-color="#8FA8D5" stop-opacity=".09"/><stop offset=".56" stop-color="#B9C9E5" stop-opacity=".05"/><stop offset=".65" stop-color="#EBEFF7" stop-opacity=".01"/><stop offset=".68" stop-color="#fff" stop-opacity="0"/></radialGradient><radialGradient id="paint9_radial_5464_182616" cx="0" cy="0" r="1" gradientUnits="userSpaceOnUse" gradientTransform="translate(248.476 104.567) scale(235.3)"><stop offset=".287" stop-color="#BCD3FF"/><stop offset=".584" stop-color="#98BCFF"/><stop offset=".842" stop-color="#80ACFF"/><stop offset="1" stop-color="#77A6FF"/></radialGradient><radialGradient id="paint8_radial_5464_182616" cx="0" cy="0" r="1" gradientUnits="userSpaceOnUse" gradientTransform="translate(248.623 105.533) scale(218.715)"><stop offset=".287" stop-color="#BCD3FF"/><stop offset=".584" stop-color="#98BCFF"/><stop offset=".842" stop-color="#80ACFF"/><stop offset="1" stop-color="#77A6FF"/></radialGradient><radialGradient id="paint7_radial_5464_182616" cx="0" cy="0" r="1" gradientUnits="userSpaceOnUse" gradientTransform="translate(247.668 104.553) scale(235.308)"><stop offset=".287" stop-color="#BCD3FF"/><stop offset=".584" stop-color="#98BCFF"/><stop offset=".842" stop-color="#80ACFF"/><stop offset="1" stop-color="#77A6FF"/></radialGradient><radialGradient id="paint6_radial_5464_182616" cx="0" cy="0" r="1" gradientUnits="userSpaceOnUse" gradientTransform="matrix(-44.42114 251.99167 -100.79293 -17.7678 267.455 115.157)"><stop stop-color="#E6EEFF"/><stop offset=".362" stop-color="#E3ECFF"/><stop offset=".626" stop-color="#DAE6FF"/><stop offset=".858" stop-color="#CADCFF"/><stop offset="1" stop-color="#BCD3FF"/></radialGradient><radialGradient id="paint10_radial_5464_182616" cx="0" cy="0" r="1" gradientUnits="userSpaceOnUse" gradientTransform="matrix(235.584 0 0 235.585 248.57 104.555)"><stop offset=".287" stop-color="#BCD3FF"/><stop offset=".584" stop-color="#98BCFF"/><stop offset=".842" stop-color="#80ACFF"/><stop offset="1" stop-color="#77A6FF"/></radialGradient></defs></svg>