<svg width="555" height="555" viewBox="0 0 555 555" fill="none" xmlns="http://www.w3.org/2000/svg"><g clip-path="url(#clip0_5464_182615)"><path opacity=".7" d="M198 539c67.38 0 122-8.728 122-19.5S265.38 500 198 500s-122 8.728-122 19.5S130.62 539 198 539z" fill="url(#paint0_radial_5464_182615)"/><path opacity=".55" d="M435.5 555c79.806 0 144.5-11.861 144.5-26.5S515.306 502 435.5 502c-79.807 0-144.5 11.861-144.5 26.5S355.693 555 435.5 555z" fill="url(#paint1_radial_5464_182615)"/><path d="M170.4 83.3H13.5v231.4h156.9V83.3z" fill="#fff"/><path d="M168.8 144.7V140h-34.1V82.2h-4.8V140H55.3V82.2h-4.8V140H16.4v4.8h34.1v53.1H16.4v4.8h34.1v53.1H16.4v4.7h34.1v57.8h4.8v-57.8h74.6v57.8h4.8v-57.8h34.1v-4.7h-34.1v-53.1h34.1v-4.8h-34.1v-53.1h34.1v-.1zm-38.9 110.9H55.3v-53h74.6v53zm0-57.8H55.3v-53.1h74.6v53.1z" fill="url(#paint2_linear_5464_182615)"/><path d="M168.8 82.2H9.9v236.1h165.2V82.2h-6.3zM16.4 311.9V88.5h73v223.4h-73zm152.4 0h-73V88.5h73v223.4z" fill="url(#paint3_linear_5464_182615)"/><path d="M182.1 209.8H3v5.7h179.1v-5.7z" fill="url(#paint4_linear_5464_182615)"/><path d="M182.1 198.1H3v5.7h179.1v-5.7z" fill="url(#paint5_linear_5464_182615)"/><path d="M182.1 186.2H3v5.7h179.1v-5.7z" fill="url(#paint6_linear_5464_182615)"/><path d="M182.1 174.5H3v5.7h179.1v-5.7z" fill="url(#paint7_linear_5464_182615)"/><path d="M182.1 162.8H3v5.7h179.1v-5.7z" fill="url(#paint8_linear_5464_182615)"/><path d="M182.1 151H3v5.7h179.1V151z" fill="url(#paint9_linear_5464_182615)"/><path d="M182.1 139.3H3v5.7h179.1v-5.7z" fill="url(#paint10_linear_5464_182615)"/><path d="M182.1 127.5H3v5.7h179.1v-5.7z" fill="url(#paint11_linear_5464_182615)"/><path d="M182.1 115.7H3v5.7h179.1v-5.7z" fill="url(#paint12_linear_5464_182615)"/><path d="M182.1 104H3v5.7h179.1V104z" fill="url(#paint13_linear_5464_182615)"/><path d="M182.1 92.2H3v5.7h179.1v-5.7z" fill="url(#paint14_linear_5464_182615)"/><path d="M182.1 80.5H3v5.7h179.1v-5.7z" fill="url(#paint15_linear_5464_182615)"/><path d="M254.6 124.3c5.6 0 10.1-4.5 10.1-9.9s-4.5-9.9-10.1-9.9-10.1 4.5-10.1 9.9 4.5 9.9 10.1 9.9z" fill="url(#paint16_linear_5464_182615)"/><path d="M255.6 0h-2v86.5h2V0z" fill="url(#paint17_linear_5464_182615)"/><path d="M263 80h-16.7V65.9c0-2.2 1.8-4 4.1-4h8.5c2.3 0 4.1 1.8 4.1 4V80z" fill="url(#paint18_linear_5464_182615)"/><path d="M284.6 114.6h-60.1s.1-42 30-42c30.1 0 30.1 42 30.1 42z" fill="url(#paint19_linear_5464_182615)"/><path d="M496.9 228.6H362.7c-4 0-7.2-2.9-7.2-6.5v-81.3c0-3 2.7-5.5 6-5.5H498c3.3 0 6 2.4 6 5.5v81.3c0 3.6-3.2 6.5-7.1 6.5z" fill="url(#paint20_linear_5464_182615)"/><path d="M501 140.8v81.3c0 3.6-3.2 6.5-7.2 6.5H357.5c-4 0-7.2-2.9-7.2-6.5v-81.3c0-3 2.7-5.4 6-5.4h138.6c3.4 0 6.1 2.5 6.1 5.4z" fill="url(#paint21_linear_5464_182615)"/><path d="M495.5 141.1v82.2c0 .3-.3.5-.5.5H356.4c-.3 0-.5-.3-.5-.5v-82.2c0-.3.3-.5.5-.5h138.5c.3 0 .6.2.6.5z" fill="#fff"/><path d="M410.7 150.7h-46.8v1.6h46.8v-1.6z" fill="url(#paint22_linear_5464_182615)"/><path d="M453.2 150.7H431v1.6h22.1v-1.6h.1z" fill="url(#paint23_linear_5464_182615)"/><path d="M428.4 150.7h-15.5v1.6h15.5v-1.6z" fill="url(#paint24_linear_5464_182615)"/><path d="M410.7 191.5h-46.8v1.6h46.8v-1.6z" fill="url(#paint25_linear_5464_182615)"/><path d="M381.4 157.5h-17.5v1.6h17.5v-1.6z" fill="url(#paint26_linear_5464_182615)"/><path d="M423.9 157.5h-7.5v1.6h7.5v-1.6z" fill="url(#paint27_linear_5464_182615)"/><path d="M413.8 157.5h-30.1v1.6h30.1v-1.6z" fill="url(#paint28_linear_5464_182615)"/><path d="M381.4 198.2h-17.5v1.6h17.5v-1.6z" fill="url(#paint29_linear_5464_182615)"/><path d="M381.4 184.7h-17.5v1.6h17.5v-1.6z" fill="url(#paint30_linear_5464_182615)"/><path d="M381.4 164.3h-17.5v1.6h17.5v-1.6z" fill="url(#paint31_linear_5464_182615)"/><path d="M413.8 164.3h-30.1v1.6h30.1v-1.6z" fill="url(#paint32_linear_5464_182615)"/><path d="M382.8 531.9c-2.4 0-4-2.3-3-4.5l34.1-80.7h14.4l-42.4 83.4c-.7 1.2-1.9 1.8-3.1 1.8z" fill="url(#paint33_linear_5464_182615)"/><path d="M486.1 531.9c2.4 0 4-2.3 3-4.5L455 446.8h-14.4l42.4 83.4c.7 1.1 1.9 1.7 3.1 1.7z" fill="url(#paint34_linear_5464_182615)"/><path d="M435.5 516c1.5 0 2.8-1.2 2.8-2.7l2.4-63.9h-11.1l3.1 63.9c0 1.6 1.3 2.7 2.8 2.7z" fill="url(#paint35_linear_5464_182615)"/><path d="M513.4 434.7c-19.1-2-47.5-3.3-79-3.3-31.6 0-59.9 1.2-79 3.3h-25.3v6.1c0 5.2 46.7 9.4 104.4 9.4s104.4-4.2 104.4-9.4v-6.1h-25.5z" fill="url(#paint36_linear_5464_182615)"/><path d="M434.4 444.1c57.6 0 104.4-4.2 104.4-9.4s-46.7-9.4-104.4-9.4-104.4 4.2-104.4 9.4 46.8 9.4 104.4 9.4z" fill="url(#paint37_linear_5464_182615)"/><path d="M368.7 436l.1-6.1c0-1 .8-1.7 1.8-1.7l35.8.5c1 0 1.7.8 1.7 1.8l-.1 6.1c0 1-.8 1.7-1.8 1.7l-35.8-.5c-1 0-1.8-.8-1.7-1.8z" fill="url(#paint38_linear_5464_182615)"/><path d="M371.1 433.1l.1-3c0-.7.6-1.2 1.3-1.2l32.1.5c.7 0 1.3.6 1.3 1.2l-.1 3c0 .7-.6 1.2-1.3 1.2l-32.1-.5c-.8.1-1.4-.5-1.3-1.2z" fill="#fff"/><g opacity=".1"><path opacity=".063" d="M301.4 160.1c4.6 0 8.5 3.7 8.5 8.3v45.3c0 4.6-3.8 8.3-8.5 8.3h-11.1L279 233.2 267.6 222h-11.1c-4.6 0-8.5-3.7-8.5-8.3v-45.4c0-4.6 3.8-8.3 8.5-8.3l44.9.1z" fill="#EFEFEF"/><path opacity=".125" d="M301.4 160.3c4.5 0 8.2 3.6 8.2 8v45.3c0 4.4-3.7 8-8.2 8h-11.1L279 232.7l-11.3-11.1h-11.2c-4.5 0-8.2-3.6-8.2-8v-45.3c0-4.4 3.7-8 8.2-8h44.9z" fill="#DFDFDF"/><path opacity=".188" d="M301.4 160.5c4.4 0 7.9 3.5 7.9 7.8v45.3c0 4.3-3.6 7.8-7.9 7.8h-11.3L279 232.3l-11.1-10.9h-11.3c-4.4 0-7.9-3.5-7.9-7.8v-45.3c0-4.3 3.6-7.8 7.9-7.8h44.8z" fill="#CFCFCF"/><path opacity=".25" d="M301.4 160.7c4.2 0 7.6 3.4 7.6 7.5v45.3c0 4.1-3.4 7.5-7.6 7.5H290l-11 10.8-11-10.8h-11.4c-4.2 0-7.6-3.4-7.6-7.5v-45.3c0-4.1 3.4-7.5 7.6-7.5h44.8z" fill="#BFBFBF"/><path opacity=".313" d="M301.4 160.9c4 0 7.4 3.2 7.4 7.2v45.3c0 3.9-3.3 7.2-7.4 7.2h-11.5L279 231.3l-10.9-10.7h-11.5c-4 0-7.4-3.2-7.4-7.2v-45.3c0-3.9 3.3-7.2 7.4-7.2h44.8z" fill="#AFAFAF"/><path opacity=".375" d="M301.4 161c3.9 0 7.1 3.1 7.1 7v45.3c0 3.8-3.1 7-7.1 7h-11.6L279 230.9l-10.8-10.6h-11.6c-3.9 0-7.1-3.1-7.1-7V168c0-3.8 3.1-7 7.1-7h44.8z" fill="#9F9F9F"/><path opacity=".438" d="M301.4 161.2c3.8 0 6.8 3 6.8 6.7v45.3c0 3.7-3.1 6.7-6.8 6.7h-11.8l-10.7 10.5-10.6-10.5h-11.7c-3.8 0-6.8-3-6.8-6.7v-45.3c0-3.7 3.1-6.7 6.8-6.7h44.8z" fill="#8F8F8F"/><path opacity=".5" d="M301.4 161.4c3.6 0 6.5 2.9 6.5 6.4v45.3c0 3.6-3 6.4-6.5 6.4h-11.8L279 229.9l-10.6-10.4h-11.8c-3.6 0-6.5-2.9-6.5-6.4v-45.3c0-3.6 3-6.4 6.5-6.4h44.8z" fill="gray"/><path opacity=".563" d="M301.4 161.6c3.5 0 6.2 2.8 6.2 6.1V213c0 3.4-2.8 6.1-6.2 6.1h-12l-10.5 10.3-10.5-10.3h-12c-3.5 0-6.2-2.8-6.2-6.1v-45.3c0-3.4 2.8-6.1 6.2-6.1h45z" fill="#707070"/><path opacity=".625" d="M301.4 161.7c3.3 0 6 2.6 6 5.9v45.3c0 3.2-2.7 5.9-6 5.9h-12.1L279 229l-10.3-10.1h-12.1c-3.3 0-6-2.6-6-5.9v-45.3c0-3.2 2.7-5.9 6-5.9l44.8-.1z" fill="#606060"/><path opacity=".688" d="M301.4 161.9c3.1 0 5.7 2.5 5.7 5.6v45.3c0 3.1-2.5 5.6-5.7 5.6h-12.1L279 228.5l-10.3-10.1h-12.1c-3.1 0-5.7-2.5-5.7-5.6v-45.3c0-3.1 2.5-5.6 5.7-5.6h44.8z" fill="#505050"/><path opacity=".75" d="M301.4 162.1c3 0 5.4 2.4 5.4 5.3v45.3c0 3-2.4 5.3-5.4 5.3h-12.3l-10.1 9.9-10.1-9.9h-12.3c-3 0-5.4-2.4-5.4-5.3v-45.3c0-3 2.4-5.3 5.4-5.3h44.8z" fill="#404040"/><path opacity=".813" d="M301.4 162.3c2.9 0 5.2 2.3 5.2 5.1v45.3c0 2.8-2.4 5.1-5.2 5.1H289l-10 9.8-10-9.8h-12.4c-2.9 0-5.2-2.3-5.2-5.1v-45.3c0-2.8 2.4-5.1 5.2-5.1h44.8z" fill="#303030"/><path opacity=".875" d="M301.4 162.4c2.7 0 4.9 2.2 4.9 4.8v45.3c0 2.6-2.2 4.8-4.9 4.8h-12.5l-9.9 9.8-9.9-9.8h-12.5c-2.7 0-4.9-2.2-4.9-4.8v-45.3c0-2.6 2.2-4.8 4.9-4.8h44.8z" fill="#202020"/><path opacity=".938" d="M301.4 162.6c2.5 0 4.6 2 4.6 4.6v45.3c0 2.5-2.1 4.6-4.6 4.6h-12.6l-9.8 9.6-9.8-9.6h-12.6c-2.5 0-4.6-2-4.6-4.6v-45.3c0-2.5 2.1-4.6 4.6-4.6h44.8z" fill="#101010"/><path opacity=".1" d="M301.4 162.8h-44.8c-2.4 0-4.4 1.9-4.4 4.3v45.3c0 2.4 2 4.3 4.4 4.3h12.8l9.7 9.5 9.7-9.5h12.8c2.4 0 4.4-1.9 4.4-4.3v-45.3c-.2-2.3-2.1-4.3-4.6-4.3z" fill="#000"/></g><path d="M302.2 161.7h-46.4c-2.5 0-4.5 2-4.5 4.4V213c0 2.4 2 4.4 4.5 4.4H269l10 9.8 10-9.8h13.2c2.5 0 4.5-2 4.5-4.4v-46.9c0-2.4-2-4.4-4.5-4.4z" fill="#fff"/><path d="M292.4 177.1l-13.1-3.9c-.2-.1-.4-.1-.5 0l-13.1 3.9c-.4.1-.7.5-.7.9v14.2c0 1.9.7 3.8 2.3 5.6 1.1 1.4 2.8 2.9 4.7 4.3 3.4 2.4 6.6 3.8 6.7 3.9.1.1.3.1.4.1.1 0 .3 0 .4-.1.1-.1 3.4-1.5 6.7-3.9 2-1.4 3.6-2.8 4.7-4.3 1.5-1.9 2.3-3.8 2.3-5.6V178c-.1-.5-.4-.8-.8-.9zm-14.7 16.7l-5.4-5.1 2.1-2 3.3 3.1 7-6.7 2.1 2-9.1 8.7z" fill="url(#paint39_linear_5464_182615)"/><g opacity=".1"><path opacity=".063" d="M446.3 48.2c4.6 0 8.5 3.7 8.5 8.3v45.3c0 4.6-3.8 8.3-8.5 8.3h-11.1l-11.3 11.2-11.4-11.2h-11.1c-4.6 0-8.5-3.7-8.5-8.3V56.5c0-4.5 3.8-8.3 8.5-8.3h44.9z" fill="#EFEFEF"/><path opacity=".125" d="M446.3 48.4c4.5 0 8.2 3.6 8.2 8v45.3c0 4.4-3.7 8-8.2 8h-11.1l-11.3 11.1-11.3-11.1h-11.1c-4.5 0-8.2-3.6-8.2-8V56.4c0-4.4 3.7-8 8.2-8h44.8z" fill="#DFDFDF"/><path opacity=".188" d="M446.3 48.6c4.4 0 7.9 3.5 7.9 7.8v45.3c0 4.3-3.6 7.8-7.9 7.8H435l-11.1 10.9-11.1-10.9h-11.3c-4.4 0-7.9-3.5-7.9-7.8V56.3c0-4.3 3.6-7.8 7.9-7.8h44.8v.1z" fill="#CFCFCF"/><path opacity=".25" d="M446.3 48.8c4.2 0 7.6 3.4 7.6 7.5v45.3c0 4.2-3.4 7.5-7.6 7.5h-11.4l-11 10.8-11-10.8h-11.4c-4.2 0-7.6-3.4-7.6-7.5V56.3c0-4.2 3.4-7.5 7.6-7.5h44.8z" fill="#BFBFBF"/><path opacity=".313" d="M446.3 49c4 0 7.4 3.2 7.4 7.2v45.3c0 4-3.3 7.2-7.4 7.2h-11.5l-10.9 10.7-10.9-10.7h-11.5c-4 0-7.4-3.2-7.4-7.2V56.2c0-4 3.3-7.2 7.4-7.2h44.8z" fill="#AFAFAF"/><path opacity=".375" d="M446.3 49.2c3.9 0 7.1 3.1 7.1 7v45.3c0 3.8-3.1 7-7.1 7h-11.6l-10.8 10.6-10.8-10.6h-11.6c-3.9 0-7.1-3.1-7.1-7V56.1c0-3.8 3.1-7 7.1-7l44.8.1z" fill="#9F9F9F"/><path opacity=".438" d="M446.3 49.3c3.8 0 6.8 3 6.8 6.7v45.3c0 3.7-3.1 6.7-6.8 6.7h-11.7l-10.7 10.5-10.7-10.5h-11.8c-3.8 0-6.8-3-6.8-6.7V56c0-3.7 3.1-6.7 6.8-6.7h44.9z" fill="#8F8F8F"/><path opacity=".5" d="M446.3 49.5c3.6 0 6.5 2.9 6.5 6.4v45.3c0 3.6-3 6.4-6.5 6.4h-11.8L423.9 118l-10.6-10.4h-11.8c-3.6 0-6.5-2.9-6.5-6.4V56c0-3.6 3-6.4 6.5-6.4l44.8-.1z" fill="gray"/><path opacity=".563" d="M446.3 49.7c3.5 0 6.2 2.8 6.2 6.1v45.3c0 3.4-2.8 6.1-6.2 6.1h-12l-10.5 10.3-10.5-10.2h-12c-3.5 0-6.2-2.8-6.2-6.1V55.8c0-3.4 2.8-6.1 6.2-6.1h45z" fill="#707070"/><path opacity=".625" d="M446.3 49.9c3.3 0 6 2.6 6 5.9v45.3c0 3.2-2.7 5.9-6 5.9h-12.1l-10.3 10.2-10.3-10.2h-12.1c-3.3 0-6-2.6-6-5.9V55.8c0-3.2 2.7-5.9 6-5.9h44.8z" fill="#606060"/><path opacity=".688" d="M446.3 50c3.1 0 5.7 2.5 5.7 5.6V101c0 3.1-2.5 5.6-5.7 5.6h-12.1l-10.3 10.1-10.3-10.1h-12.1c-3.1 0-5.7-2.5-5.7-5.6V55.7c0-3.1 2.5-5.6 5.7-5.6l44.8-.1z" fill="#505050"/><path opacity=".75" d="M446.3 50.2c3 0 5.4 2.4 5.4 5.3v45.3c0 3-2.4 5.3-5.4 5.3H434l-10.1 9.9-10.1-9.9h-12.3c-3 0-5.4-2.4-5.4-5.3V55.6c0-3 2.4-5.3 5.4-5.3h44.8v-.1z" fill="#404040"/><path opacity=".813" d="M446.3 50.4c2.9 0 5.2 2.3 5.2 5.1v45.3c0 2.8-2.4 5.1-5.2 5.1h-12.4l-10 9.8-10-9.8h-12.4c-2.9 0-5.2-2.3-5.2-5.1V55.5c0-2.8 2.4-5.1 5.2-5.1h44.8z" fill="#303030"/><path opacity=".875" d="M446.3 50.6c2.7 0 4.9 2.2 4.9 4.8v45.3c0 2.6-2.2 4.8-4.9 4.8h-12.5l-9.9 9.8-9.9-9.8h-12.5c-2.7 0-4.9-2.2-4.9-4.8V55.4c0-2.6 2.2-4.8 4.9-4.8h44.8z" fill="#202020"/><path opacity=".938" d="M446.3 50.8c2.5 0 4.6 2 4.6 4.5v45.3c0 2.5-2.1 4.6-4.6 4.6h-12.6l-9.8 9.6-9.8-9.7h-12.6c-2.5 0-4.6-2-4.6-4.6V55.3c0-2.5 2.1-4.5 4.6-4.5h44.8z" fill="#101010"/><path opacity=".1" d="M446.3 51h-44.8c-2.4 0-4.4 1.9-4.4 4.3v45.3c0 2.4 2 4.3 4.4 4.3h12.8l9.7 9.5 9.7-9.5h12.8c2.4 0 4.4-1.9 4.4-4.3V55.2c-.2-2.3-2.2-4.2-4.6-4.2z" fill="#000"/></g><path d="M447.1 49.8h-46.5c-2.5 0-4.5 2-4.5 4.4v46.9c0 2.4 2 4.4 4.5 4.4h13.2l10 9.8 10-9.8H447c2.5 0 4.5-2 4.5-4.4V54.2c.1-2.4-1.9-4.4-4.4-4.4z" fill="#fff"/><path d="M437.3 65.2l-13.1-3.9c-.2-.1-.4-.1-.5 0l-13.2 3.9c-.4.1-.7.5-.7.9v14.2c0 1.8.7 3.8 2.3 5.6 1.1 1.4 2.8 2.9 4.7 4.3 3.4 2.4 6.6 3.8 6.7 3.9.1.1.3.1.4.1.1 0 .3 0 .4-.1.1-.1 3.4-1.5 6.7-3.9 2-1.4 3.6-2.8 4.7-4.3 1.5-1.9 2.3-3.8 2.3-5.6V66.1c0-.4-.3-.8-.7-.9zm-14.7 16.7l-5.4-5.1 2.1-2 3.3 3.1 7-6.7 2.1 2-9.1 8.7z" fill="url(#paint40_linear_5464_182615)"/><g opacity=".1"><path opacity=".063" d="M496.9 311.6c4.6 0 8.5 3.7 8.5 8.3v45.3c0 4.5-3.8 8.3-8.5 8.3h-11.1l-11.3 11.2-11.5-11.2h-11c-4.6 0-8.5-3.7-8.5-8.3v-45.3c0-4.5 3.8-8.3 8.5-8.3h44.9z" fill="#EFEFEF"/><path opacity=".125" d="M496.9 311.8c4.5 0 8.2 3.6 8.2 8v45.3c0 4.4-3.7 8-8.2 8h-11.1l-11.3 11-11.3-11.1H452c-4.5 0-8.2-3.6-8.2-8v-45.3c0-4.4 3.7-8 8.2-8l44.9.1z" fill="#DFDFDF"/><path opacity=".188" d="M496.9 312c4.4 0 7.9 3.5 7.9 7.8v45.3c0 4.3-3.6 7.8-7.9 7.8h-11.3l-11.1 10.9-11.1-10.9H452c-4.4 0-7.9-3.5-7.9-7.8v-45.3c0-4.3 3.6-7.8 7.9-7.8h44.9z" fill="#CFCFCF"/><path opacity=".25" d="M496.9 312.1c4.2 0 7.6 3.4 7.6 7.5V365c0 4.1-3.4 7.5-7.6 7.5h-11.4l-11 10.8-11-10.8H452c-4.2 0-7.6-3.4-7.6-7.5v-45.3c0-4.1 3.4-7.5 7.6-7.5h44.9v-.1z" fill="#BFBFBF"/><path opacity=".313" d="M496.9 312.3c4 0 7.4 3.2 7.4 7.2v45.3c0 4-3.3 7.2-7.4 7.2h-11.5l-10.9 10.7-10.9-10.7H452c-4 0-7.4-3.2-7.4-7.2v-45.3c0-4 3.3-7.2 7.4-7.2h44.9z" fill="#AFAFAF"/><path opacity=".375" d="M496.9 312.5c3.9 0 7.1 3.1 7.1 7v45.3c0 3.8-3.1 7-7.1 7h-11.6l-10.8 10.6-10.8-10.6H452c-3.9 0-7.1-3.1-7.1-7v-45.3c0-3.8 3.1-7 7.1-7h44.9z" fill="#9F9F9F"/><path opacity=".438" d="M496.9 312.7c3.8 0 6.8 3 6.8 6.7v45.3c0 3.7-3.1 6.7-6.8 6.7h-11.8l-10.7 10.5-10.7-10.4H452c-3.8 0-6.8-3-6.8-6.7v-45.3c0-3.7 3.1-6.7 6.8-6.7l44.9-.1z" fill="#8F8F8F"/><path opacity=".5" d="M496.9 312.9c3.6 0 6.5 2.9 6.5 6.4v45.3c0 3.6-3 6.4-6.5 6.4H485l-10.6 10.4-10.6-10.4H452c-3.6 0-6.5-2.9-6.5-6.4v-45.3c0-3.6 3-6.4 6.5-6.4h44.9z" fill="gray"/><path opacity=".563" d="M496.9 313.1c3.5 0 6.2 2.8 6.2 6.1v45.3c0 3.4-2.8 6.1-6.2 6.1h-12l-10.5 10.3-10.4-10.2h-12c-3.5 0-6.2-2.8-6.2-6.1v-45.3c0-3.4 2.8-6.1 6.2-6.1h44.9v-.1z" fill="#707070"/><path opacity=".625" d="M496.9 313.2c3.3 0 6 2.6 6 5.9v45.3c0 3.2-2.7 5.9-6 5.9h-12.1l-10.3 10.1-10.3-10.1H452c-3.3 0-6-2.6-6-5.9v-45.3c0-3.2 2.7-5.9 6-5.9h44.9z" fill="#606060"/><path opacity=".688" d="M496.9 313.5c3.1 0 5.7 2.5 5.7 5.6v45.3c0 3.1-2.5 5.6-5.7 5.6h-12.1l-10.3 10.1-10.3-10.1H452c-3.1 0-5.7-2.5-5.7-5.6v-45.3c0-3.1 2.5-5.6 5.7-5.6h44.9z" fill="#505050"/><path opacity=".75" d="M496.9 313.6c3 0 5.4 2.4 5.4 5.3v45.3c0 3-2.4 5.3-5.4 5.3h-12.3l-10.1 10-10.1-10H452c-3 0-5.4-2.4-5.4-5.3V319c0-3 2.4-5.3 5.4-5.3l44.9-.1z" fill="#404040"/><path opacity=".813" d="M496.9 313.8c2.9 0 5.2 2.3 5.2 5.1v45.3c0 2.8-2.4 5.1-5.2 5.1h-12.4l-10 9.8-10-9.8H452c-2.9 0-5.2-2.3-5.2-5.1v-45.3c0-2.8 2.4-5.1 5.2-5.1h44.9z" fill="#303030"/><path opacity=".875" d="M496.9 314c2.7 0 4.9 2.2 4.9 4.8v45.3c0 2.6-2.2 4.8-4.9 4.8h-12.5l-9.9 9.8-9.9-9.8H452c-2.7 0-4.9-2.2-4.9-4.8v-45.3c0-2.6 2.2-4.8 4.9-4.8h44.9z" fill="#202020"/><path opacity=".938" d="M496.9 314.2c2.5 0 4.6 2 4.6 4.5V364c0 2.5-2.1 4.5-4.6 4.5h-12.6l-9.8 9.6-9.8-9.6H452c-2.5 0-4.6-2-4.6-4.5v-45.3c0-2.5 2.1-4.5 4.6-4.5h44.9z" fill="#101010"/><path opacity=".1" d="M496.9 314.4H452c-2.4 0-4.4 1.9-4.4 4.3V364c0 2.4 2 4.3 4.4 4.3h12.8l9.7 9.5 9.7-9.5H497c2.4 0 4.4-1.9 4.4-4.3v-45.3c-.2-2.4-2.1-4.3-4.5-4.3z" fill="#000"/></g><path d="M497.7 313.2h-46.5c-2.5 0-4.5 2-4.5 4.4v46.9c0 2.4 2 4.4 4.5 4.4h13.2l10 9.8 10-9.8h13.2c2.5 0 4.5-2 4.5-4.4v-46.9c.1-2.4-2-4.4-4.4-4.4z" fill="#fff"/><path d="M487.9 328.5l-13.1-3.9c-.2-.1-.4-.1-.5 0l-13.1 3.9c-.4.1-.7.5-.7.9v14.2c0 1.9.7 3.8 2.3 5.6 1.1 1.5 2.8 2.9 4.7 4.3 3.4 2.4 6.6 3.8 6.7 3.9.1.1.3.1.4.1.1 0 .3 0 .4-.1.1-.1 3.4-1.5 6.7-3.9 2-1.4 3.6-2.8 4.7-4.3 1.5-1.9 2.3-3.8 2.3-5.6v-14.2c-.2-.3-.4-.7-.8-.9zm-14.8 16.8l-5.4-5.1 2.1-2 3.3 3.1 7-6.7 2.1 2-9.1 8.7z" fill="url(#paint41_linear_5464_182615)"/><path d="M495.1 409.9l8.8-10.5c.4-.5.3-1.2-.2-1.6-.5-.4-1.3-.3-1.7.2l-8.8 10.5-10.7 12.9 1.8 1.5 10.8-13z" fill="url(#paint42_linear_5464_182615)"/><path d="M459.4 409.9l-8.8-10.5c-.4-.5-.3-1.2.2-1.6.5-.4 1.3-.3 1.7.2l8.8 10.5 10.7 12.9-1.8 1.5-10.8-13z" fill="url(#paint43_linear_5464_182615)"/><path d="M460 435.9h-8.2c-.5 0-1-.5-1-1v-1.5H461v1.5c0 .6-.5 1-1 1z" fill="url(#paint44_linear_5464_182615)"/><path d="M503 435.9h-8.2c-.5 0-1-.5-1-1v-1.5H504v1.5c0 .6-.5 1-1 1z" fill="url(#paint45_linear_5464_182615)"/><path d="M506.3 433.5h-58.1c-1.7 0-3.1-1.4-3.1-3.1v-9c0-1.7 1.4-3.2 3.2-3.2h58.1c1.8 0 3.2 1.4 3.2 3.2v8.9c-.1 1.8-1.5 3.2-3.3 3.2z" fill="url(#paint46_linear_5464_182615)"/><path d="M452.9 426c0 .6-.5 1.1-1.1 1.1-.6 0-1.1-.5-1.1-1.1 0-.6.5-1.1 1.1-1.1.6 0 1.1.4 1.1 1.1zm5.6 0c0 .6-.5 1.1-1.1 1.1-.6 0-1.1-.5-1.1-1.1 0-.6.5-1.1 1.1-1.1.6-.1 1.1.4 1.1 1.1zm5.7 0c0 .6-.5 1.1-1.1 1.1-.6 0-1.1-.5-1.1-1.1 0-.6.5-1.1 1.1-1.1.6-.1 1.1.4 1.1 1.1zm5.7 0c0 .6-.5 1.1-1.1 1.1-.6 0-1.1-.5-1.1-1.1 0-.6.5-1.1 1.1-1.1.6-.1 1.1.4 1.1 1.1zm5.7 0c0 .6-.5 1.1-1.1 1.1-.6 0-1.1-.5-1.1-1.1 0-.6.5-1.1 1.1-1.1.5-.1 1.1.4 1.1 1.1zm5.6 0c0 .6-.5 1.1-1.1 1.1-.6 0-1.1-.5-1.1-1.1 0-.6.5-1.1 1.1-1.1.7-.1 1.1.4 1.1 1.1zm5.7 0c0 .6-.5 1.1-1.1 1.1-.6 0-1.1-.5-1.1-1.1 0-.6.5-1.1 1.1-1.1.6 0 1.1.4 1.1 1.1zm5.7 0c0 .6-.5 1.1-1.1 1.1-.6 0-1.1-.5-1.1-1.1 0-.6.5-1.1 1.1-1.1.6 0 1.1.4 1.1 1.1z" fill="#fff"/><path d="M498.3 426c0 .6-.5 1.1-1.1 1.1-.6 0-1.1-.5-1.1-1.1 0-.6.5-1.1 1.1-1.1.6 0 1.1.4 1.1 1.1z" fill="url(#paint47_linear_5464_182615)"/><path d="M504 426c0 .6-.5 1.1-1.1 1.1-.6 0-1.1-.5-1.1-1.1 0-.6.5-1.1 1.1-1.1.6 0 1.1.4 1.1 1.1z" fill="url(#paint48_linear_5464_182615)"/><path d="M190.067 272.205l-15.592 3.415-4.724 15.871-13.977-.325-6.97-6.209 1.856-4.798 6.896-20.419-3.712-10.691s5.568-6.989 5.345-7.657c-.222-.668 14.952-10.005 14.952-10.005l19.49 8.353" fill="url(#paint49_linear_5464_182615)"/><path d="M191.71 244.538c-6.237-.519-7.573-4.844-7.573-4.844l-2.126 15.322c-.297 1.94 0 6.674 2.515 7.258 3.899.928 5.718-2.914 7.128-2.162l-2.097 16.177a2.726 2.726 0 01-2.187 2.222 2.73 2.73 0 01-1.099-.023l-6.561-1.281c-6.274-1.457-5.569-4.482-4.474-10.831l2.042-12.065a4.193 4.193 0 00-2.951-4.761h-.14a4.192 4.192 0 00-5.206 2.831 4.183 4.183 0 002.394 5.049l.511.213-1.309 7.471c-.417 2.413-2.905 3.555-5.244 2.784-17.392-5.485-13.401-27.731-11.137-34.116 2.469-6.952 11.657-9.458 11.657-9.458l1.68-1.754c4.557-4.436 14.98-2.738 19.963 2.107 6.247 6.422 10.209 9.207 14.219 8.492.798 7.128-2.2 9.875-4.344 10.682a17.883 17.883 0 01-5.67.65" fill="url(#paint50_linear_5464_182615)"/><path d="M286.079 355.762h-28.79l-5.791-24.233h28.79l5.791 24.233z" fill="#BDD4FF"/><path d="M253.048 351.065h35.082c1.125 0 2.204.447 2.999 1.243a4.238 4.238 0 011.243 2.999h-43.565a4.238 4.238 0 014.241-4.242z" fill="#B0CCFF"/><path d="M339.788 247.805c-.001.241-.029.48-.083.715l-10.729 50.405-2.942 13.828-1.857 8.604-1.744 8.139a4.327 4.327 0 01-4.232 3.434H195.302a3.377 3.377 0 01-3.295-4.083l1.698-7.982.817-3.833 1.596-7.499 13.291-62.424a3.386 3.386 0 013.304-2.673h123.688a3.386 3.386 0 013.387 3.369z" fill="#BDD4FF"/><path d="M338.47 247.118l-14.905 69.905H192.982l2.366-11.137 12.817-60.197a3.37 3.37 0 013.304-2.682h123.697a3.393 3.393 0 013.054 1.93c.328.678.416 1.447.25 2.181z" fill="url(#paint51_linear_5464_182615)"/><path d="M194.067 331.52h123.697a3.38 3.38 0 003.304-2.673l2.497-11.824H192.982l-2.219 10.413a3.374 3.374 0 001.847 3.758c.455.216.953.327 1.457.326z" fill="url(#paint52_linear_5464_182615)"/><path d="M323.565 317.023l-.928 4.325-1.596 7.499a3.388 3.388 0 01-3.304 2.682h-123.67a3.371 3.371 0 01-2.63-1.256 3.394 3.394 0 01-.659-1.342 3.398 3.398 0 01-.015-1.495l2.219-10.413h130.583z" fill="#D2E2FF"/><path d="M356.28 355.307H15.761A4.76 4.76 0 0011 360.068v.009a4.76 4.76 0 004.761 4.761H356.28a4.761 4.761 0 004.762-4.761v-.009a4.761 4.761 0 00-4.762-4.761z" fill="url(#paint53_linear_5464_182615)"/><path d="M286.775 364.838h35.621a11.426 11.426 0 01-11.425 11.425H298.2a11.425 11.425 0 01-11.425-11.425z" fill="url(#paint54_linear_5464_182615)"/><path d="M272.844 515.487a2.069 2.069 0 01-1.597-.751 2.075 2.075 0 01-.445-1.708l26.052-138.138h8.567l-30.553 138.964a2.069 2.069 0 01-2.024 1.633z" fill="url(#paint55_linear_5464_182615)"/><path d="M336.345 515.487a2.069 2.069 0 001.597-.751 2.075 2.075 0 00.445-1.708L312.335 374.89h-8.566l30.553 138.964a2.07 2.07 0 002.023 1.633z" fill="url(#paint56_linear_5464_182615)"/><path d="M51.836 364.838h35.667a11.427 11.427 0 01-11.425 11.425h-12.78a11.422 11.422 0 01-11.462-11.425z" fill="url(#paint57_linear_5464_182615)"/><path d="M37.943 515.487a2.067 2.067 0 01-2.033-2.459L61.953 374.89h8.566L39.975 513.854a2.09 2.09 0 01-2.032 1.633z" fill="url(#paint58_linear_5464_182615)"/><path d="M77.443 374.89h-8.567L99.42 513.854a2.09 2.09 0 002.032 1.633 2.069 2.069 0 002.033-2.459L77.443 374.89z" fill="url(#paint59_linear_5464_182615)"/><path d="M177.055 321.617l1.569-4.594 3.554 21.29-5.123-16.696z" fill="#82AFFF"/><path d="M178.373 347.576s13.3-6.144 13.755-6.237c.454-.093 8.863.993 11.304 3.118 2.441 2.126 6.153 7.731 5.522 9.003-.631 1.271-1.754.724-2.561.269a9.982 9.982 0 01-1.625-1.16s-.185 1.763-1.531 1.856c-1.346.093-1.364-.52-1.448-.974-.083-.455-.093-3.165-2.264-3.444-2.172-.278-3.082 2.451-4.344 3.175-1.262.723-1.262 1.967-3.527 2.069-2.264.102-12.575 0-12.575 0l-.706-7.675z" fill="url(#paint60_linear_5464_182615)"/><path d="M179.274 345.673l-32.734-4.501c0 4.863 0 9.726.167 14.58 12.752 0 28.966-.241 33.3-.325.174-.436.284-.896.325-1.364.157-2.376.686-7.703-1.058-8.39z" fill="url(#paint61_linear_5464_182615)"/><path d="M179.274 345.673l-32.734-4.501c0 4.863 0 9.726.167 14.58 12.752 0 28.966-.241 33.3-.325.174-.436.284-.896.325-1.364.157-2.376.686-7.703-1.058-8.39z" fill="url(#paint62_linear_5464_182615)"/><path d="M148.999 501.993a2.985 2.985 0 002.988-2.989l3.592-92.475h-5.986l-3.582 92.447a2.978 2.978 0 00.865 2.132 2.992 2.992 0 002.123.885z" fill="url(#paint63_linear_5464_182615)"/><path d="M155.858 473.138l-9.356 19.917 14.2 6.664 9.086-24.502-13.93-2.079z" fill="url(#paint64_linear_5464_182615)"/><path d="M165.565 488.006a2.07 2.07 0 012.079 1.55c.761 2.785 2.683 10.488 7.954 13.801 6.933 4.344 12.817 7.184 9.699 13.457a14.755 14.755 0 01-2.265 2.785l-42.525-19.592s2.905-6.497 4.019-7.639a16.985 16.985 0 002.283-3.35.777.777 0 011.234-.186c1.921 1.857 6.432 6.646 10.636 5.801 4.733-.928 2.125-6.432 6.886-6.627z" fill="url(#paint65_linear_5464_182615)"/><path d="M126.539 372.634s51.927 11.602 60.67 13.736c8.742 2.135 27.518 5.615 23.592 22.033-3.926 16.418-40.632 74.1-40.632 74.1s-15.091-2.989-19.379-8.353l31.555-62.09s-73.755 4.956-82.6-1.067c-8.845-6.024-10.887-17.848-10.887-17.848l37.681-20.511z" fill="url(#paint66_linear_5464_182615)"/><path d="M210.801 503.459a2.995 2.995 0 01-2.998-2.988l-21.662-78.582 5.773-.594 21.875 79.176a2.987 2.987 0 01-2.988 2.988z" fill="url(#paint67_linear_5464_182615)"/><path d="M207.831 470.354l-9.355 19.917 14.2 6.664 9.086-24.502-13.931-2.079z" fill="url(#paint68_linear_5464_182615)"/><path d="M217.975 485.205a2.073 2.073 0 012.07 1.54c.761 2.785 2.682 10.497 7.963 13.801 6.933 4.353 12.808 7.193 9.689 13.467a14.452 14.452 0 01-2.255 2.784l-42.535-19.601s2.905-6.497 4.019-7.629a16.292 16.292 0 002.283-3.36.775.775 0 01.573-.397.786.786 0 01.661.221c1.922 1.856 6.432 6.635 10.636 5.8 4.743-.928 2.135-6.432 6.896-6.626z" fill="url(#paint69_linear_5464_182615)"/><path d="M160.554 529.789a2.988 2.988 0 01-2.989-2.988V422.223h5.977v104.531a2.98 2.98 0 01-.858 2.144 3 3 0 01-2.13.891z" fill="url(#paint70_linear_5464_182615)"/><path d="M101.332 517.77a2.988 2.988 0 002.988-2.988l22.952-102.128h-5.986L98.334 514.81a2.997 2.997 0 002.998 2.96z" fill="url(#paint71_linear_5464_182615)"/><path d="M160.294 406.529s55.769 1.438 59.612 5.522v3.127s-22.061 7.332-43.24 7.035l-16.372-15.684z" fill="url(#paint72_linear_5464_182615)"/><path d="M251.266 347.242h13.922v5.123a2.932 2.932 0 01-2.933 2.932h-10.989v-8.055z" fill="#fff"/><path d="M242.096 347.59s13.3-6.154 13.755-6.237c.455-.084 8.863.993 11.304 3.118 2.441 2.125 6.153 7.731 5.522 9.003-.631 1.271-1.754.714-2.561.269a10.017 10.017 0 01-1.606-1.179s-.176 1.763-1.531 1.856c-1.355.093-1.355-.519-1.448-.974-.093-.455-.093-3.165-2.265-3.443-2.171-.279-3.072 2.45-4.343 3.174-1.272.724-1.262 1.958-3.527 2.06-2.264.102-12.576 0-12.576 0l-.724-7.647z" fill="url(#paint73_linear_5464_182615)"/><path d="M165.584 376.616s51.918 11.601 60.67 13.745c8.752 2.144 25.866 4.279 21.94 20.697-3.926 16.418-27.119 67.983-27.119 67.983s-12.492-1.429-16.771-6.775l17.124-56.215s-73.747 4.956-82.601-1.067c-8.854-6.024-10.887-17.848-10.887-17.848l37.644-20.52z" fill="url(#paint74_linear_5464_182615)"/><path d="M205.622 340.504l35.11 4.64c3.044 1.522 3.081 6.627 2.924 9.003a1.357 1.357 0 01-1.318 1.262c-7.258.148-45.032.881-50.656 0-6.227-1.012-15.23-35.853-15.23-35.853-6.227-20.474 7.861-35.481 12.279-31.267 3.23 3.081 5.763 13.207 7.555 22.209a131.045 131.045 0 005.41 19.295l3.926 10.711z" fill="url(#paint75_linear_5464_182615)"/><path d="M153.723 272.418c-.557-.789-1.095 0-2.051.102-5.346.706-15.917 2.209-20.799 5.393-2.756 1.772-16.622 35.676-17.986 48.669-1.355 12.567-8.892 38.906 10.831 81.181a3.93 3.93 0 002.845 2.202 3.94 3.94 0 003.447-1.033c8.353-8.018 27.954-26.413 36.614-31.165a3.963 3.963 0 002.06-3.713c-.334-4.742-.826-14.515.213-20.149 1.04-5.633 7.026-32.929 10.209-36.743 2.46-2.924 6.497-18.386 9.597-24.938.863-1.856.928-3.712-.845-4.696 0 0 .808-.316-13.392-8.251a4.004 4.004 0 00-1.652-.52c-3.183-.269-16.158-2.144-19.091-6.339z" fill="url(#paint76_linear_5464_182615)"/><path d="M124.757 299.101s-5.569 20.91-6.042 25.142l-2.608-1.049 8.65-24.093z" fill="url(#paint77_linear_5464_182615)"/><path d="M190.337 421.434s-25.718-2.97-43.992-54.016c-18.275-51.045-15.62-42.636-15.62-42.636s-18.998-10.098-43.992-3.369c0 0-2.886 74.247 4.807 84.141 7.694 9.894 24.28 18.655 42.062 18.274 55.677-1.197 56.735-2.394 56.735-2.394z" fill="url(#paint78_linear_5464_182615)"/><path d="M177.055 321.617l1.569-4.594 3.554 21.29-5.123-16.696z" fill="url(#paint79_linear_5464_182615)"/><path opacity=".35" d="M296.966 309.951s-29.913.343-39.909.343c-9.995 0-39.694-.343-39.694-.343a2.287 2.287 0 01-2.318-1.842 2.289 2.289 0 01.044-1.063l11.555-54.572a3.779 3.779 0 013.499-2.905h79.575a2.27 2.27 0 012.264 2.905l-11.508 54.618a3.777 3.777 0 01-3.508 2.859z" fill="#233B67"/><path d="M231.585 253.002c.434-.391.531-.992.215-1.342-.315-.351-.923-.318-1.357.073-.435.39-.531.991-.216 1.342.315.351.923.318 1.358-.073z" fill="url(#paint80_linear_5464_182615)"/><path d="M234.139 252.997c.434-.391.531-.992.215-1.343-.315-.35-.923-.318-1.357.073-.435.391-.531.992-.216 1.343.316.35.923.318 1.358-.073z" fill="url(#paint81_linear_5464_182615)"/><path d="M236.702 253.001c.435-.391.531-.992.216-1.343-.315-.35-.923-.318-1.358.073-.434.391-.531.992-.215 1.343.315.35.923.318 1.357-.073z" fill="url(#paint82_linear_5464_182615)"/><path d="M296.214 309.143s-29.644.344-39.5.344c-9.856 0-39.333-.344-39.333-.344a2.253 2.253 0 01-1.032-.202 2.254 2.254 0 01-1.266-1.606 2.247 2.247 0 01.043-1.05l11.453-53.83a3.711 3.711 0 013.462-2.868h78.888c.355-.014.709.057 1.032.206a2.255 2.255 0 011.261 1.611c.068.349.052.709-.047 1.051l-11.444 53.83a3.71 3.71 0 01-3.517 2.858z" fill="#fff"/><path d="M310.934 253.374h-84.587l.26-1.225a3.373 3.373 0 013.127-2.599h79.427a2.038 2.038 0 011.672.773 2.031 2.031 0 01.36 1.807l-.259 1.244z" fill="#77A7FF"/><path d="M230.695 252.197c.434-.391.531-.992.215-1.342-.315-.351-.923-.318-1.357.072-.435.391-.531.992-.216 1.343.315.35.923.318 1.358-.073zm2.563.004c.435-.391.531-.992.216-1.342-.315-.351-.923-.318-1.358.072-.434.391-.531.992-.215 1.343.315.35.923.318 1.357-.073zm2.564-.005c.434-.391.531-.992.215-1.343-.315-.35-.923-.318-1.357.073-.435.391-.531.992-.216 1.342.315.351.923.319 1.358-.072zm44.651 52.223h-50.284a1.567 1.567 0 01-1.392-1.94l.436-2.311a1.473 1.473 0 011.392-1.271h50.294a1.572 1.572 0 011.148.658 1.568 1.568 0 01.244 1.3l-.445 2.302a1.464 1.464 0 01-1.393 1.262z" fill="#fff"/><path d="M290.636 303.769l-1.754-1.679c.285-.334.443-.758.445-1.198a1.903 1.903 0 10-1.902 1.903c.328-.006.648-.099.928-.269l1.8 1.717a.307.307 0 00.223.093c.045 0 .09-.009.131-.027a.321.321 0 00.11-.075.315.315 0 00.107-.229.318.318 0 00-.088-.236zm-4.455-2.877a1.247 1.247 0 011.481-1.23 1.247 1.247 0 01.982.975 1.24 1.24 0 01-.527 1.279 1.239 1.239 0 01-1.568-.15 1.246 1.246 0 01-.368-.874z" fill="#77A7FF"/><path d="M258.598 262.543l-27.258-.25-.177.816 27.259.251.176-.817zm24.845.26l-12.928-.111-.167.817 12.919.12.176-.826zm-14.413-.13l-9.058-.083-.177.816 9.068.084.167-.817zm-14.905 21.634l-27.259-.25-.167.816 27.259.251.167-.817zm24.808.223l-12.91-.121-.177.817 12.929.121.158-.817zm4.158.037h-3.045l-.167.817h3.045l.167-.817zm-18.562-.167l-9.068-.083-.167.816 9.058.084.177-.817zm-23.658-18.367l-10.209-.093-.167.817 10.209.093.167-.817zm24.734.223h-4.38l-.168.816 4.381.047.167-.863zm35.732.334l-21.467-.195-.167.817 21.458.195.176-.817zm-23.026-.214l-11.592-.12-.167.816 11.592.103.167-.799zm-18.571-.12l-17.634-.158-.167.817 17.634.158.167-.817zm-23.416 21.569l-10.209-.093-.167.817 10.209.092.167-.816zm1.54-7.286l-10.209-.093-.167.817 10.209.093.167-.817zm24.734.223h-4.381l-.167.817h4.381l.167-.817zm12.706.121l-11.592-.112-.167.817 11.582.111.177-.816zm-18.562-.167l-17.634-.168-.167.817 17.634.167.167-.816zm-16.613-11.073l-10.256-.092-.167.816 10.256.093.167-.817zm18.859.177l-17.634-.167-.167.816 17.634.167.167-.816z" fill="#BDD4FF"/><path opacity=".27" d="M294.339 243.044l-1.012 1.392-7.164 9.931-9.829 13.615-15.917 22.052-14.914 20.668-4.567 6.321h-20.984l.947-1.29 30.543-41.653 17.365-23.686 4.371-5.958 1.031-1.392h20.13zm44.391 5.476l-14.59 68.503h-76.178l4.641-6.321 4.798-6.552 12.334-16.854 3.379-4.641 3.916-5.336 5.281-7.202 1.624-2.219 6.497-8.909 2.227-2.942 8.53-11.629 1.03-1.365h31.963a3.392 3.392 0 013.054 1.931 3.37 3.37 0 011.494 3.536z" fill="#E7EFFF"/><g opacity=".1"><path opacity=".063" d="M410.8 344.8c4.6 0 8.5 3.7 8.5 8.3v45.3c0 4.5-3.8 8.3-8.5 8.3h-11.1l-11.3 11.2-11.4-11.2h-11.1c-4.6 0-8.5-3.7-8.5-8.3v-45.3c0-4.5 3.8-8.3 8.5-8.3h44.9z" fill="#EFEFEF"/><path opacity=".125" d="M410.8 345c4.5 0 8.2 3.6 8.2 8v45.3c0 4.4-3.7 8-8.2 8h-11.1l-11.3 11.1-11.3-11.1H366c-4.5 0-8.2-3.6-8.2-8V353c0-4.4 3.7-8 8.2-8h44.8z" fill="#DFDFDF"/><path opacity=".188" d="M410.8 345.1c4.4 0 7.9 3.5 7.9 7.8v45.3c0 4.3-3.6 7.8-7.9 7.8h-11.3l-11.1 11-11.1-11H366c-4.4 0-7.9-3.5-7.9-7.8v-45.3c0-4.3 3.6-7.8 7.9-7.8h44.8z" fill="#CFCFCF"/><path opacity=".25" d="M410.8 345.3c4.2 0 7.6 3.4 7.6 7.5v45.3c0 4.1-3.4 7.5-7.6 7.5h-11.4l-11 10.8-11-10.8H366c-4.2 0-7.6-3.4-7.6-7.5v-45.3c0-4.1 3.4-7.5 7.6-7.5h44.8z" fill="#BFBFBF"/><path opacity=".313" d="M410.8 345.5c4 0 7.4 3.2 7.4 7.2V398c0 4-3.3 7.2-7.4 7.2h-11.5l-10.9 10.7-10.9-10.7H366c-4 0-7.4-3.2-7.4-7.2v-45.3c0-4 3.3-7.2 7.4-7.2h44.8z" fill="#AFAFAF"/><path opacity=".375" d="M410.8 345.7c3.9 0 7.1 3.1 7.1 7V398c0 3.8-3.1 7-7.1 7h-11.6l-10.8 10.6-10.8-10.6H366c-3.9 0-7.1-3.1-7.1-7v-45.4c0-3.8 3.1-7 7.1-7l44.8.1z" fill="#9F9F9F"/><path opacity=".438" d="M410.8 345.9c3.8 0 6.8 3 6.8 6.7v45.3c0 3.7-3.1 6.7-6.8 6.7H399L388.4 415l-10.7-10.5H366c-3.8 0-6.8-3-6.8-6.7v-45.3c0-3.7 3.1-6.7 6.8-6.7h44.8v.1z" fill="#8F8F8F"/><path opacity=".5" d="M410.8 346c3.6 0 6.5 2.9 6.5 6.4v45.3c0 3.6-3 6.4-6.5 6.4H399l-10.6 10.4-10.6-10.4H366c-3.6 0-6.5-2.9-6.5-6.4v-45.3c0-3.6 3-6.4 6.5-6.4h44.8z" fill="gray"/><path opacity=".563" d="M410.8 346.2c3.5 0 6.2 2.8 6.2 6.1v45.3c0 3.4-2.8 6.1-6.2 6.1h-12L388.3 414l-10.5-10.3h-12c-3.5 0-6.2-2.8-6.2-6.1v-45.3c0-3.4 2.8-6.1 6.2-6.1h45z" fill="#707070"/><path opacity=".625" d="M410.8 346.4c3.3 0 6 2.6 6 5.9v45.3c0 3.2-2.7 5.9-6 5.9h-12.1l-10.3 10.1-10.3-10.1H366c-3.3 0-6-2.6-6-5.9v-45.3c0-3.2 2.7-5.9 6-5.9h44.8z" fill="#606060"/><path opacity=".688" d="M410.8 346.6c3.1 0 5.7 2.5 5.7 5.6v45.3c0 3.1-2.5 5.6-5.7 5.6h-12.1l-10.3 10.1-10.3-10.1H366c-3.1 0-5.7-2.5-5.7-5.6v-45.3c0-3.1 2.5-5.6 5.7-5.6h44.8z" fill="#505050"/><path opacity=".75" d="M410.8 346.8c3 0 5.4 2.4 5.4 5.3v45.3c0 3-2.4 5.3-5.4 5.3h-12.3l-10.1 10-10.1-10H366c-3 0-5.4-2.4-5.4-5.3v-45.3c0-3 2.4-5.3 5.4-5.3h44.8z" fill="#404040"/><path opacity=".813" d="M410.8 346.9c2.9 0 5.2 2.3 5.2 5.1v45.3c0 2.8-2.4 5.1-5.2 5.1h-12.4l-10 9.8-10-9.8H366c-2.9 0-5.2-2.3-5.2-5.1V352c0-2.8 2.4-5.1 5.2-5.1h44.8z" fill="#303030"/><path opacity=".875" d="M410.8 347.1c2.7 0 4.9 2.2 4.9 4.8v45.3c0 2.6-2.2 4.8-4.9 4.8h-12.5l-9.9 9.8-9.9-9.8H366c-2.7 0-4.9-2.2-4.9-4.8v-45.3c0-2.6 2.2-4.8 4.9-4.8h44.8z" fill="#202020"/><path opacity=".938" d="M410.8 347.3c2.5 0 4.6 2 4.6 4.5v45.3c0 2.5-2.1 4.5-4.6 4.5h-12.6l-9.8 9.6-9.8-9.6H366c-2.5 0-4.6-2-4.6-4.5v-45.3c0-2.5 2.1-4.5 4.6-4.5h44.8z" fill="#101010"/><path opacity=".1" d="M410.8 347.5H366c-2.4 0-4.4 1.9-4.4 4.3v45.3c0 2.4 2 4.3 4.4 4.3h12.8l9.7 9.5 9.7-9.5H411c2.4 0 4.4-1.9 4.4-4.3v-45.3c-.2-2.4-2.2-4.3-4.6-4.3z" fill="#000"/></g><path d="M411.6 346.3h-46.5c-2.5 0-4.5 2-4.5 4.4v46.9c0 2.4 2 4.4 4.5 4.4h13.2l10 9.8 10-9.8h13.2c2.5 0 4.5-2 4.5-4.4v-46.9c.1-2.4-1.9-4.4-4.4-4.4z" fill="#fff"/><path d="M401.8 361.7l-13.1-3.9c-.2-.1-.4-.1-.5 0l-13.1 3.9c-.4.1-.7.5-.7.9v14.2c0 1.9.7 3.8 2.3 5.6 1.1 1.5 2.8 2.9 4.7 4.3 3.4 2.4 6.6 3.8 6.7 3.9.1.1.3.1.4.1.1 0 .3 0 .4-.1.1-.1 3.4-1.5 6.7-3.9 2-1.4 3.6-2.8 4.7-4.3 1.5-1.9 2.3-3.8 2.3-5.6v-14.2c-.1-.4-.4-.8-.8-.9zm-14.7 16.7l-5.4-5.1 2.1-2 3.3 3.1 7-6.7 2.1 2-9.1 8.7z" fill="url(#paint83_linear_5464_182615)"/></g><defs><linearGradient id="paint42_linear_5464_182615" x1="479.76" y1="427.166" x2="493.202" y2="410.353" gradientUnits="userSpaceOnUse"><stop offset=".001" stop-color="#77A7FF"/><stop offset=".999" stop-color="#BDD4FF"/></linearGradient><linearGradient id="paint44_linear_5464_182615" x1="456.656" y1="427.819" x2="455.141" y2="439.886" gradientUnits="userSpaceOnUse"><stop offset=".001" stop-color="#77A7FF"/><stop offset=".999" stop-color="#BDD4FF"/></linearGradient><linearGradient id="paint3_linear_5464_182615" x1="92.56" y1="242.026" x2="92.56" y2="146.845" gradientUnits="userSpaceOnUse"><stop stop-color="#EDF3FF"/><stop offset="1" stop-color="#BDD4FF"/></linearGradient><linearGradient id="paint4_linear_5464_182615" x1="87.531" y1="249.781" x2="89.07" y2="238.423" gradientUnits="userSpaceOnUse"><stop offset=".001" stop-color="#BDD4FF"/><stop offset=".999" stop-color="#EDF3FF"/></linearGradient><linearGradient id="paint5_linear_5464_182615" x1="85.971" y1="249.57" x2="87.509" y2="238.212" gradientUnits="userSpaceOnUse"><stop offset=".001" stop-color="#BDD4FF"/><stop offset=".999" stop-color="#EDF3FF"/></linearGradient><linearGradient id="paint6_linear_5464_182615" x1="84.401" y1="249.357" x2="85.94" y2="237.998" gradientUnits="userSpaceOnUse"><stop offset=".001" stop-color="#BDD4FF"/><stop offset=".999" stop-color="#EDF3FF"/></linearGradient><linearGradient id="paint7_linear_5464_182615" x1="82.841" y1="249.146" x2="84.38" y2="237.788" gradientUnits="userSpaceOnUse"><stop offset=".001" stop-color="#BDD4FF"/><stop offset=".999" stop-color="#EDF3FF"/></linearGradient><linearGradient id="paint8_linear_5464_182615" x1="81.281" y1="248.934" x2="82.82" y2="237.576" gradientUnits="userSpaceOnUse"><stop offset=".001" stop-color="#BDD4FF"/><stop offset=".999" stop-color="#EDF3FF"/></linearGradient><linearGradient id="paint9_linear_5464_182615" x1="79.713" y1="248.722" x2="81.251" y2="237.363" gradientUnits="userSpaceOnUse"><stop offset=".001" stop-color="#BDD4FF"/><stop offset=".999" stop-color="#EDF3FF"/></linearGradient><linearGradient id="paint10_linear_5464_182615" x1="78.151" y1="248.51" x2="79.69" y2="237.152" gradientUnits="userSpaceOnUse"><stop offset=".001" stop-color="#BDD4FF"/><stop offset=".999" stop-color="#EDF3FF"/></linearGradient><linearGradient id="paint11_linear_5464_182615" x1="76.582" y1="248.298" x2="78.12" y2="236.94" gradientUnits="userSpaceOnUse"><stop offset=".001" stop-color="#BDD4FF"/><stop offset=".999" stop-color="#EDF3FF"/></linearGradient><linearGradient id="paint12_linear_5464_182615" x1="75.022" y1="248.086" x2="76.56" y2="236.728" gradientUnits="userSpaceOnUse"><stop offset=".001" stop-color="#BDD4FF"/><stop offset=".999" stop-color="#EDF3FF"/></linearGradient><linearGradient id="paint13_linear_5464_182615" x1="73.462" y1="247.875" x2="75" y2="236.517" gradientUnits="userSpaceOnUse"><stop offset=".001" stop-color="#BDD4FF"/><stop offset=".999" stop-color="#EDF3FF"/></linearGradient><linearGradient id="paint14_linear_5464_182615" x1="71.894" y1="247.663" x2="73.432" y2="236.304" gradientUnits="userSpaceOnUse"><stop offset=".001" stop-color="#BDD4FF"/><stop offset=".999" stop-color="#EDF3FF"/></linearGradient><linearGradient id="paint15_linear_5464_182615" x1="70.332" y1="247.451" x2="71.87" y2="236.093" gradientUnits="userSpaceOnUse"><stop offset=".001" stop-color="#BDD4FF"/><stop offset=".999" stop-color="#EDF3FF"/></linearGradient><linearGradient id="paint16_linear_5464_182615" x1="254.836" y1="110.352" x2="254.247" y2="122.652" gradientUnits="userSpaceOnUse"><stop offset=".001" stop-color="#BDD4FF"/><stop offset=".999" stop-color="#EDF3FF"/></linearGradient><linearGradient id="paint17_linear_5464_182615" x1="255.625" y1="-6.694" x2="254.33" y2="54.87" gradientUnits="userSpaceOnUse"><stop offset=".131" stop-color="#fff" stop-opacity="0"/><stop offset=".413" stop-color="#fff"/><stop offset="1" stop-color="#BDD4FF"/></linearGradient><linearGradient id="paint18_linear_5464_182615" x1="253.65" y1="85.654" x2="254.821" y2="70.157" gradientUnits="userSpaceOnUse"><stop offset=".001" stop-color="#77A7FF"/><stop offset=".999" stop-color="#BDD4FF"/></linearGradient><linearGradient id="paint19_linear_5464_182615" x1="255.881" y1="68.533" x2="254.711" y2="110.643" gradientUnits="userSpaceOnUse"><stop stop-color="#F8F8FE"/><stop offset="1" stop-color="#BDD4FF"/></linearGradient><linearGradient id="paint20_linear_5464_182615" x1="414.082" y1="135.698" x2="436.317" y2="200.556" gradientUnits="userSpaceOnUse"><stop stop-color="#F8F8FE"/><stop offset="1" stop-color="#BDD4FF"/></linearGradient><linearGradient id="paint21_linear_5464_182615" x1="424.633" y1="138.085" x2="428.037" y2="284.042" gradientUnits="userSpaceOnUse"><stop stop-color="#EDF3FF"/><stop offset="1" stop-color="#BDD4FF"/></linearGradient><linearGradient id="paint22_linear_5464_182615" x1="455.282" y1="241.778" x2="477.094" y2="270.733" gradientUnits="userSpaceOnUse"><stop stop-color="#EDF3FF"/><stop offset="1" stop-color="#BDD4FF"/></linearGradient><linearGradient id="paint23_linear_5464_182615" x1="490.244" y1="215.44" x2="512.056" y2="244.396" gradientUnits="userSpaceOnUse"><stop stop-color="#EDF3FF"/><stop offset="1" stop-color="#BDD4FF"/></linearGradient><linearGradient id="paint24_linear_5464_182615" x1="476.563" y1="225.746" x2="498.375" y2="254.702" gradientUnits="userSpaceOnUse"><stop stop-color="#EDF3FF"/><stop offset="1" stop-color="#BDD4FF"/></linearGradient><linearGradient id="paint25_linear_5464_182615" x1="435.706" y1="256.523" x2="457.518" y2="285.479" gradientUnits="userSpaceOnUse"><stop stop-color="#EDF3FF"/><stop offset="1" stop-color="#BDD4FF"/></linearGradient><linearGradient id="paint26_linear_5464_182615" x1="442.684" y1="251.266" x2="464.496" y2="280.221" gradientUnits="userSpaceOnUse"><stop stop-color="#EDF3FF"/><stop offset="1" stop-color="#BDD4FF"/></linearGradient><linearGradient id="paint27_linear_5464_182615" x1="472.974" y1="228.449" x2="494.786" y2="257.405" gradientUnits="userSpaceOnUse"><stop stop-color="#EDF3FF"/><stop offset="1" stop-color="#BDD4FF"/></linearGradient><linearGradient id="paint28_linear_5464_182615" x1="459.296" y1="238.754" x2="481.109" y2="267.71" gradientUnits="userSpaceOnUse"><stop stop-color="#EDF3FF"/><stop offset="1" stop-color="#BDD4FF"/></linearGradient><linearGradient id="paint29_linear_5464_182615" x1="423.112" y1="266.011" x2="444.925" y2="294.966" gradientUnits="userSpaceOnUse"><stop stop-color="#EDF3FF"/><stop offset="1" stop-color="#BDD4FF"/></linearGradient><linearGradient id="paint30_linear_5464_182615" x1="429.635" y1="261.095" x2="451.447" y2="290.051" gradientUnits="userSpaceOnUse"><stop stop-color="#EDF3FF"/><stop offset="1" stop-color="#BDD4FF"/></linearGradient><linearGradient id="paint31_linear_5464_182615" x1="439.426" y1="253.719" x2="461.238" y2="282.674" gradientUnits="userSpaceOnUse"><stop stop-color="#EDF3FF"/><stop offset="1" stop-color="#BDD4FF"/></linearGradient><linearGradient id="paint32_linear_5464_182615" x1="456.038" y1="241.207" x2="477.85" y2="270.163" gradientUnits="userSpaceOnUse"><stop stop-color="#EDF3FF"/><stop offset="1" stop-color="#BDD4FF"/></linearGradient><linearGradient id="paint33_linear_5464_182615" x1="403.844" y1="459.728" x2="403.844" y2="514.866" gradientUnits="userSpaceOnUse"><stop stop-color="#BDD4FF"/><stop offset="1" stop-color="#EDF3FF"/></linearGradient><linearGradient id="paint34_linear_5464_182615" x1="465.046" y1="459.728" x2="465.046" y2="514.866" gradientUnits="userSpaceOnUse"><stop stop-color="#BDD4FF"/><stop offset="1" stop-color="#EDF3FF"/></linearGradient><linearGradient id="paint35_linear_5464_182615" x1="435.12" y1="459.728" x2="435.12" y2="514.866" gradientUnits="userSpaceOnUse"><stop stop-color="#BDD4FF"/><stop offset="1" stop-color="#EDF3FF"/></linearGradient><linearGradient id="paint36_linear_5464_182615" x1="437.119" y1="457.252" x2="441.319" y2="488.544" gradientUnits="userSpaceOnUse"><stop stop-color="#EDF3FF"/><stop offset="1" stop-color="#BDD4FF"/></linearGradient><linearGradient id="paint37_linear_5464_182615" x1="434.44" y1="406.657" x2="434.44" y2="434.554" gradientUnits="userSpaceOnUse"><stop stop-color="#EDF3FF"/><stop offset="1" stop-color="#BDD4FF"/></linearGradient><linearGradient id="paint38_linear_5464_182615" x1="388.251" y1="439.846" x2="388.635" y2="422.918" gradientUnits="userSpaceOnUse"><stop offset=".001" stop-color="#77A7FF"/><stop offset=".999" stop-color="#BDD4FF"/></linearGradient><linearGradient id="paint39_linear_5464_182615" x1="275.9" y1="205.549" x2="280.084" y2="178.481" gradientUnits="userSpaceOnUse"><stop stop-color="#27AE56"/><stop offset=".999" stop-color="#9ED9B0"/></linearGradient><linearGradient id="paint40_linear_5464_182615" x1="420.821" y1="93.707" x2="425.005" y2="66.639" gradientUnits="userSpaceOnUse"><stop stop-color="#27AE56"/><stop offset=".999" stop-color="#9ED9B0"/></linearGradient><linearGradient id="paint41_linear_5464_182615" x1="471.311" y1="357.08" x2="475.495" y2="330.012" gradientUnits="userSpaceOnUse"><stop stop-color="#27AE56"/><stop offset=".999" stop-color="#9ED9B0"/></linearGradient><linearGradient id="paint2_linear_5464_182615" x1="92.752" y1="228.899" x2="93.329" y2="319.9" gradientUnits="userSpaceOnUse"><stop stop-color="#EDF3FF"/><stop offset="1" stop-color="#BDD4FF"/></linearGradient><linearGradient id="paint43_linear_5464_182615" x1="474.827" y1="427.237" x2="461.385" y2="410.424" gradientUnits="userSpaceOnUse"><stop offset=".001" stop-color="#77A7FF"/><stop offset=".999" stop-color="#BDD4FF"/></linearGradient><linearGradient id="paint45_linear_5464_182615" x1="499.279" y1="430.981" x2="497.765" y2="443.049" gradientUnits="userSpaceOnUse"><stop offset=".001" stop-color="#77A7FF"/><stop offset=".999" stop-color="#BDD4FF"/></linearGradient><linearGradient id="paint46_linear_5464_182615" x1="478.121" y1="455.126" x2="476.931" y2="411.208" gradientUnits="userSpaceOnUse"><stop offset=".001" stop-color="#77A7FF"/><stop offset=".999" stop-color="#BDD4FF"/></linearGradient><linearGradient id="paint47_linear_5464_182615" x1="496.456" y1="426.808" x2="497.837" y2="425.049" gradientUnits="userSpaceOnUse"><stop stop-color="#4687FF"/><stop offset=".999" stop-color="#77A7FF"/></linearGradient><linearGradient id="paint48_linear_5464_182615" x1="502.152" y1="426.825" x2="503.534" y2="425.066" gradientUnits="userSpaceOnUse"><stop stop-color="#4687FF"/><stop offset=".999" stop-color="#77A7FF"/></linearGradient><linearGradient id="paint49_linear_5464_182615" x1="148.804" y1="261.439" x2="193.566" y2="261.439" gradientUnits="userSpaceOnUse"><stop stop-color="#F6CFBE"/><stop offset="1" stop-color="#FFE8E1"/></linearGradient><linearGradient id="paint50_linear_5464_182615" x1="152.127" y1="249.299" x2="201.854" y2="249.299" gradientUnits="userSpaceOnUse"><stop stop-color="#0E1B33"/><stop offset=".94" stop-color="#233B67"/></linearGradient><linearGradient id="paint51_linear_5464_182615" x1="261.5" y1="247" x2="252" y2="353" gradientUnits="userSpaceOnUse"><stop offset=".217" stop-color="#BDD4FF"/><stop offset=".912" stop-color="#77A7FF"/></linearGradient><linearGradient id="paint52_linear_5464_182615" x1="251.006" y1="240.093" x2="258.125" y2="335.965" gradientUnits="userSpaceOnUse"><stop stop-color="#CFD3DB"/><stop offset=".61" stop-color="#E8E9EB"/><stop offset="1" stop-color="#F2F2F2"/></linearGradient><linearGradient id="paint53_linear_5464_182615" x1="186.021" y1="355.307" x2="186.021" y2="372.105" gradientUnits="userSpaceOnUse"><stop stop-color="#BDD4FF"/><stop offset=".69" stop-color="#8DB5FF"/><stop offset="1" stop-color="#77A7FF"/></linearGradient><linearGradient id="paint54_linear_5464_182615" x1="304.595" y1="364.838" x2="304.595" y2="440.97" gradientUnits="userSpaceOnUse"><stop stop-color="#BDD4FF"/><stop offset="1" stop-color="#EDF3FF"/></linearGradient><linearGradient id="paint55_linear_5464_182615" x1="288.093" y1="374.89" x2="288.093" y2="515.487" gradientUnits="userSpaceOnUse"><stop stop-color="#BDD4FF"/><stop offset="1" stop-color="#EDF3FF"/></linearGradient><linearGradient id="paint56_linear_5464_182615" x1="321.095" y1="374.89" x2="321.095" y2="515.487" gradientUnits="userSpaceOnUse"><stop stop-color="#C0D6FF"/><stop offset="1" stop-color="#ECF2FF"/></linearGradient><linearGradient id="paint57_linear_5464_182615" x1="69.693" y1="364.838" x2="69.693" y2="529.641" gradientUnits="userSpaceOnUse"><stop stop-color="#BDD4FF"/><stop offset=".64" stop-color="#EDF3FF"/></linearGradient><linearGradient id="paint58_linear_5464_182615" x1="53.196" y1="374.89" x2="53.196" y2="515.487" gradientUnits="userSpaceOnUse"><stop stop-color="#C1D7FF"/><stop offset="1" stop-color="#ECF2FF"/></linearGradient><linearGradient id="paint59_linear_5464_182615" x1="86.199" y1="374.89" x2="86.199" y2="515.487" gradientUnits="userSpaceOnUse"><stop stop-color="#C0D6FF"/><stop offset="1" stop-color="#ECF2FF"/></linearGradient><linearGradient id="paint60_linear_5464_182615" x1="6080.71" y1="5150.5" x2="7092.84" y2="5150.5" gradientUnits="userSpaceOnUse"><stop stop-color="#F6CFBE"/><stop offset="1" stop-color="#FFE8E1"/></linearGradient><linearGradient id="paint61_linear_5464_182615" x1="150.864" y1="354.1" x2="193.047" y2="334.378" gradientUnits="userSpaceOnUse"><stop stop-color="#F86E80"/><stop offset="1" stop-color="#FFD4D8"/></linearGradient><linearGradient id="paint62_linear_5464_182615" x1="146.54" y1="348.457" x2="183.107" y2="348.457" gradientUnits="userSpaceOnUse"><stop offset=".51" stop-color="#4687FF"/><stop offset="1" stop-color="#77A7FF"/></linearGradient><linearGradient id="paint63_linear_5464_182615" x1="1704.2" y1="49090.4" x2="1704.2" y2="39273.8" gradientUnits="userSpaceOnUse"><stop stop-color="#B7D1FF"/><stop offset="1" stop-color="#80AEFF"/></linearGradient><linearGradient id="paint64_linear_5464_182615" x1="146.502" y1="486.429" x2="169.788" y2="486.429" gradientUnits="userSpaceOnUse"><stop stop-color="#F6CFBE"/><stop offset="1" stop-color="#FFE8E1"/></linearGradient><linearGradient id="paint65_linear_5464_182615" x1="168" y1="482.5" x2="136.5" y2="520" gradientUnits="userSpaceOnUse"><stop offset=".116" stop-color="#fff"/><stop offset=".903" stop-color="#E7EFFF"/></linearGradient><linearGradient id="paint66_linear_5464_182615" x1="88.886" y1="427.559" x2="211.33" y2="427.559" gradientUnits="userSpaceOnUse"><stop stop-color="#0E1B33"/><stop offset="1" stop-color="#233B67"/></linearGradient><linearGradient id="paint67_linear_5464_182615" x1="199.965" y1="421.295" x2="199.965" y2="503.459" gradientUnits="userSpaceOnUse"><stop stop-color="#7FACFF"/><stop offset="1" stop-color="#B7D1FF"/></linearGradient><linearGradient id="paint68_linear_5464_182615" x1="198.476" y1="483.644" x2="221.762" y2="483.644" gradientUnits="userSpaceOnUse"><stop stop-color="#F6CFBE"/><stop offset="1" stop-color="#FFE8E1"/></linearGradient><linearGradient id="paint69_linear_5464_182615" x1="215.729" y1="485.205" x2="216" y2="567.5" gradientUnits="userSpaceOnUse"><stop stop-color="#fff"/><stop offset=".64" stop-color="#E7EFFF"/></linearGradient><linearGradient id="paint70_linear_5464_182615" x1="160.424" y1="422.093" x2="157.64" y2="529.752" gradientUnits="userSpaceOnUse"><stop stop-color="#7FADFF"/><stop offset="1" stop-color="#B9D2FF"/></linearGradient><linearGradient id="paint71_linear_5464_182615" x1="112.803" y1="412.654" x2="112.803" y2="517.77" gradientUnits="userSpaceOnUse"><stop stop-color="#78A8FF"/><stop offset="1" stop-color="#BBD3FF"/></linearGradient><linearGradient id="paint72_linear_5464_182615" x1="10477.9" y1="6928.65" x2="14306.8" y2="6928.65" gradientUnits="userSpaceOnUse"><stop offset=".51" stop-color="#4687FF"/><stop offset="1" stop-color="#77A7FF"/></linearGradient><linearGradient id="paint73_linear_5464_182615" x1="242.096" y1="348.332" x2="272.752" y2="348.332" gradientUnits="userSpaceOnUse"><stop stop-color="#F6CFBE"/><stop offset="1" stop-color="#FFE8E1"/></linearGradient><linearGradient id="paint74_linear_5464_182615" x1="127.931" y1="427.828" x2="248.77" y2="427.828" gradientUnits="userSpaceOnUse"><stop stop-color="#0E1B33"/><stop offset="1" stop-color="#233B67"/></linearGradient><linearGradient id="paint75_linear_5464_182615" x1="202.662" y1="371.975" x2="213.474" y2="304.011" gradientUnits="userSpaceOnUse"><stop stop-color="#4687FF"/><stop offset="1" stop-color="#77A7FF"/></linearGradient><linearGradient id="paint76_linear_5464_182615" x1="144.182" y1="315.361" x2="189.195" y2="291.695" gradientUnits="userSpaceOnUse"><stop stop-color="#5390FF"/><stop offset=".817" stop-color="#73A4FF"/></linearGradient><linearGradient id="paint77_linear_5464_182615" x1="116.107" y1="311.677" x2="136.256" y2="311.677" gradientUnits="userSpaceOnUse"><stop offset=".24" stop-color="#4687FF"/><stop offset=".63" stop-color="#4888FF"/><stop offset=".78" stop-color="#4F8DFF"/><stop offset=".88" stop-color="#5A94FF"/><stop offset=".96" stop-color="#6B9FFF"/><stop offset="1" stop-color="#77A7FF"/></linearGradient><linearGradient id="paint78_linear_5464_182615" x1="138.27" y1="319.1" x2="138.27" y2="423.84" gradientUnits="userSpaceOnUse"><stop stop-color="#BCD3FF"/><stop offset="1" stop-color="#7BA9FF"/></linearGradient><linearGradient id="paint79_linear_5464_182615" x1="177.055" y1="327.668" x2="189.028" y2="327.668" gradientUnits="userSpaceOnUse"><stop offset=".13" stop-color="#4687FF"/><stop offset=".58" stop-color="#4888FF"/><stop offset=".74" stop-color="#4F8DFF"/><stop offset=".86" stop-color="#5A94FF"/><stop offset=".95" stop-color="#6B9FFF"/><stop offset="1" stop-color="#77A7FF"/></linearGradient><linearGradient id="paint80_linear_5464_182615" x1="230.026" y1="252.383" x2="231.975" y2="252.383" gradientUnits="userSpaceOnUse"><stop stop-color="#77A7FF"/><stop offset="1" stop-color="#BDD4FF"/></linearGradient><linearGradient id="paint81_linear_5464_182615" x1="763.606" y1="663.16" x2="768.05" y2="663.16" gradientUnits="userSpaceOnUse"><stop stop-color="#77A7FF"/><stop offset="1" stop-color="#BDD4FF"/></linearGradient><linearGradient id="paint82_linear_5464_182615" x1="772.015" y1="663.167" x2="776.458" y2="663.167" gradientUnits="userSpaceOnUse"><stop stop-color="#77A7FF"/><stop offset="1" stop-color="#BDD4FF"/></linearGradient><linearGradient id="paint83_linear_5464_182615" x1="385.269" y1="390.238" x2="389.453" y2="363.17" gradientUnits="userSpaceOnUse"><stop stop-color="#27AE56"/><stop offset=".999" stop-color="#9ED9B0"/></linearGradient><radialGradient id="paint1_radial_5464_182615" cx="0" cy="0" r="1" gradientUnits="userSpaceOnUse" gradientTransform="matrix(144.479 0 0 30.7442 435.507 528.578)"><stop stop-color="#305EB1" stop-opacity=".3"/><stop offset=".149" stop-color="#3461B2" stop-opacity=".255"/><stop offset=".289" stop-color="#3F6AB7" stop-opacity=".213"/><stop offset=".425" stop-color="#5279BE" stop-opacity=".172"/><stop offset=".56" stop-color="#6D8DC8" stop-opacity=".132"/><stop offset=".692" stop-color="#8FA8D5" stop-opacity=".092"/><stop offset=".824" stop-color="#B9C9E5" stop-opacity=".053"/><stop offset=".952" stop-color="#EBEFF7" stop-opacity=".015"/><stop offset="1" stop-color="#fff" stop-opacity="0"/></radialGradient><radialGradient id="paint0_radial_5464_182615" cx="0" cy="0" r="1" gradientUnits="userSpaceOnUse" gradientTransform="matrix(121.982 0 0 22.6231 198.006 519.557)"><stop stop-color="#305EB1" stop-opacity=".3"/><stop offset=".149" stop-color="#3461B2" stop-opacity=".255"/><stop offset=".289" stop-color="#3F6AB7" stop-opacity=".213"/><stop offset=".425" stop-color="#5279BE" stop-opacity=".172"/><stop offset=".56" stop-color="#6D8DC8" stop-opacity=".132"/><stop offset=".692" stop-color="#8FA8D5" stop-opacity=".092"/><stop offset=".824" stop-color="#B9C9E5" stop-opacity=".053"/><stop offset=".952" stop-color="#EBEFF7" stop-opacity=".015"/><stop offset="1" stop-color="#fff" stop-opacity="0"/></radialGradient><clipPath id="clip0_5464_182615"><path fill="#fff" d="M0 0h555v555H0z"/></clipPath></defs></svg>