<svg width="556" height="555" viewBox="0 0 556 555" fill="none" xmlns="http://www.w3.org/2000/svg"><g clip-path="url(#clip0_20084_25275)"><path opacity=".6" d="M397.602 270.1h137.7c9.3 0 17.5-6.5 19.3-15.7.6-2.7.9-5.6.9-8.6 0-19-12.3-35.1-29.4-40.9 0-.7.1-1.5.1-2.2 0-27.7-22.5-50.1-50.2-50.1-19.9 0-37.1 11.6-45.2 28.5-4-.9-8.1-1.2-12.4-1.1-27.5 1.1-49.4 23.8-49.3 51.3 0 10.2 3 19.8 8.2 27.8 4.4 6.9 12.2 11 20.3 11z" fill="url(#paint0_radial_20084_25275)"/><path opacity=".4" d="M303.1 56h65.6c4.4 0 8.3-3.1 9.2-7.4.3-1.3.4-2.7.4-4.1 0-9.1-5.9-16.7-14-19.5v-1c0-13.2-10.7-23.9-23.9-23.9-9.5 0-17.7 5.6-21.6 13.6-1.9-.4-3.9-.6-5.9-.5-13 .5-23.4 11.3-23.4 24.5 0 4.9 1.4 9.4 3.9 13.2 2.1 3.2 5.8 5.1 9.7 5.1z" fill="url(#paint1_radial_20084_25275)"/><path opacity=".6" d="M129.998 183.9h-113c-7.6 0-14.4-5.4-15.9-12.9-.5-2.3-.7-4.6-.7-7.1 0-15.6 10.1-28.9 24.1-33.6 0-.6-.1-1.2-.1-1.8 0-22.7 18.4-41.1 41.1-41.1 16.4 0 30.5 9.5 37.2 23.4 3.3-.7 6.7-1 10.2-.9 22.5.9 40.5 19.6 40.4 42.1 0 8.4-2.5 16.2-6.7 22.8-3.6 5.8-9.8 9.1-16.6 9.1z" fill="url(#paint2_radial_20084_25275)"/><path d="M146.098 457h302.8c20.5 0 38.4-14.4 42.5-34.5 1.2-6.1 1.9-12.4 1.9-18.9 0-41.8-27-77.3-64.6-89.9.1-1.6.1-3.3.1-4.9 0-60.9-49.4-110.3-110.3-110.3-43.9 0-81.8 25.6-99.5 62.7-8.8-1.8-17.9-2.6-27.2-2.2-60.4 2.3-108.4 52.4-108.4 112.8.1 22.5 6.7 43.4 18 61.1 9.8 15.1 26.7 24.1 44.7 24.1z" fill="url(#paint3_radial_20084_25275)"/><path opacity=".5" d="M237.401 277.8c55.9 0 101.1-6.9 101.1-15.3 0-8.5-45.3-15.3-101.1-15.3s-101.1 6.9-101.1 15.3c0 8.5 45.2 15.3 101.1 15.3z" fill="url(#paint4_radial_20084_25275)"/><path d="M345.999 380.8l37.1 5.9c1.4.3 2.5 1.5 2.3 2.9l-4 24.7c-.2 1.4-1.6 2.3-3.1 2l-13.2-2.1-14.8 6.2c-1.2.5-2.4-.5-2.2-1.8l1.1-7-8-1.3c-1.4-.3-2.5-1.5-2.3-2.9l4-24.7c.2-1.2 1.6-2.1 3.1-1.9zm5.3 18.6c1.6.3 3.1-.9 3.3-2.4.3-1.6-.8-3.1-2.4-3.3-1.6-.3-3.1.9-3.3 2.4-.2 1.5.9 3 2.4 3.3zm10 1.6c1.6.3 3.1-.9 3.3-2.4.3-1.6-.8-3.1-2.4-3.3-1.6-.3-3.1.9-3.3 2.4-.3 1.6.9 3.1 2.4 3.3zm10 1.6c1.6.3 3.1-.9 3.3-2.4.3-1.6-.8-3.1-2.4-3.3-1.6-.3-3.1.9-3.3 2.4-.3 1.5.8 3 2.4 3.3z" fill="url(#paint5_linear_20084_25275)"/><path d="M170.299 256.6l-17.1 5.3 1.8 12.8 19.4-7.4-4.1-10.7z" fill="url(#paint6_linear_20084_25275)"/><path d="M197.601 365l-3.4 14.4-11.9 1 2-19.9 13.3 4.5z" fill="url(#paint7_linear_20084_25275)"/><path opacity=".7" d="M243.499 253.3l-22.3 5.7 20.4 3.5 1.9-9.2z" fill="url(#paint8_linear_20084_25275)"/><path d="M324.398 215.9h-20.5l1.9 22.7h16.8l1.8-22.7z" fill="url(#paint9_linear_20084_25275)"/><path d="M325.101 209.9h-21.9c-.9 0-1.5.6-1.6 1.4l-.4 2.8c-.1 1 .6 1.9 1.6 1.9h22.8c1.1 0 1.8-.9 1.6-1.9l-.4-2.8c-.2-.9-.8-1.4-1.7-1.4z" fill="url(#paint10_linear_20084_25275)"/><path d="M309.599 197.2c1.2-6.1 8.1-5.6 4.1-14.6 6.3 2.4 5.5 7 4.6 9.2-.9 2.1-3.2 2.5-4.1 5.4-.8 2.6 2.9 4.8 1.2 7.9 0-.1-7-1.9-5.8-7.9z" fill="url(#paint11_linear_20084_25275)"/><path d="M308.998 185.1s2 2.9.9 4.7c-1.2 1.8-3.5 4.2-3.5 5.4.1 1.3-1.7-3.9 1-5.9 2.7-2 1.6-4.2 1.6-4.2z" fill="url(#paint12_linear_20084_25275)"/><path d="M320.499 193.8s-1.6.9-2.2 2.5c-.5 1.3-.2 3.5.1 4 0 0-.1-1.4 1-3.2.4-.8 1.5-1.5 1.1-3.3z" fill="url(#paint13_linear_20084_25275)"/><path opacity=".5" d="M278 555c153.3 0 277.5-10.1 277.5-22.7 0-12.5-124.2-22.7-277.5-22.7S.5 519.8.5 532.3 124.7 555 278 555z" fill="url(#paint14_radial_20084_25275)"/><path d="M383.499 296.3l-1.1 7.9c-.1 1.2.7 2.3 1.9 2.5l7.9 1-8.7-11.4z" fill="url(#paint15_linear_20084_25275)"/><path d="M383.099 308.8c-2-.3-3.301-2-3.101-4l1.201-8.9-15.201-2c-1.2-.1-2.3.6-2.5 1.9l-4.7 35.2c-.1 1.2.601 2.3 1.901 2.5l25.5 3.4c1.2.1 2.3-.7 2.5-1.9l3.299-25-8.899-1.2zm-9.201 17.2c-.1.7-.8 1.3-1.6 1.2l-3.3-.5c-.7-.1-1.3-.8-1.2-1.6.1-.7.8-1.3 1.6-1.2l3.301.5c.8.1 1.299.8 1.199 1.6zm.6-4.3c-.1.7-.8 1.3-1.6 1.2l-3.299-.5c-.7-.1-1.301-.8-1.201-1.6.1-.7.8-1.3 1.6-1.2l3.3.5c.8.2 1.3.8 1.2 1.6zm-1-3.1l-3.299-.5c-.7-.1-1.301-.8-1.201-1.6.1-.7.801-1.3 1.601-1.2l3.299.5c.7.1 1.301.8 1.201 1.6-.1.8-.901 1.4-1.601 1.2zm7.9 8.3c-.1.7-.8 1.3-1.6 1.2l-3.3-.5c-.7-.1-1.3-.8-1.2-1.6.1-.7.8-1.3 1.6-1.2l3.301.5c.8.2 1.399.9 1.199 1.6zm.6-4.2c-.1.7-.8 1.3-1.6 1.2l-3.299-.5c-.7-.1-1.301-.8-1.201-1.6.1-.7.8-1.3 1.6-1.2l3.3.5c.8.1 1.3.9 1.2 1.6zm-1-3.1l-3.299-.5c-.7-.1-1.301-.8-1.201-1.6.1-.7.801-1.3 1.601-1.2l3.299.5c.7.1 1.301.8 1.201 1.6-.1.8-.801 1.3-1.601 1.2z" fill="url(#paint16_linear_20084_25275)"/><path d="M245.902 408l-34.2 4.4c-2.1.3-3.6 2.2-3.3 4.3l2 15.2c.3 2.1 2.2 3.6 4.3 3.3l34.2-4.4c2.1-.3 3.6-2.2 3.3-4.3l-2-15.2c-.3-2.2-2.2-3.6-4.3-3.3zm-17.3 15.7l-5.7.7.7 5.7-3.8.5-.7-5.7-5.7.7-.5-3.8 5.7-.7-.7-5.7 3.8-.5.7 5.7 5.7-.7.5 3.8zm9.1 2.7c-1.6.2-3-.9-3.2-2.5-.2-1.6.9-3 2.5-3.2 1.6-.2 3 .9 3.2 2.5.2 1.5-.9 3-2.5 3.2zm6.9-6.7c-1.6.2-3-.9-3.2-2.5-.2-1.6.9-3 2.5-3.2 1.6-.2 3 .9 3.2 2.5.2 1.6-1 3-2.5 3.2z" fill="url(#paint17_linear_20084_25275)"/><path d="M282.299 384.5c-1.8.3-3.1 2-2.9 3.8.3 1.8 2 3.1 3.8 2.9 1.8-.3 3.1-2 2.9-3.8-.3-1.9-2-3.2-3.8-2.9zm-13.6-25.6l.5 3.3 3.3-.5 7.8 11.9-1.7 4.4c-.2.5-.3 1.1-.2 1.7.3 1.8 2 3.1 3.8 2.9l20.2-2.7-.5-3.3-19.5 2.6c-.3 0-.5-.1-.5-.4v-.2l1.2-2.9 12.5-1.6c1.2-.2 2.3-1 2.7-2.1l4.6-11.7c.1-.3.1-.5.1-.9-.1-.9-1-1.6-1.9-1.4l-24.8 3.3-2-3.1-5.6.7zm30.4 23.3c-1.8.3-3.1 2-2.9 3.8.3 1.8 2 3.1 3.8 2.9 1.8-.3 3.1-2 2.9-3.8-.2-1.8-2-3.1-3.8-2.9z" fill="url(#paint18_linear_20084_25275)"/><path d="M147.099 332.6l-24.5 3.5c-4.8.6-8.2 5.2-7.5 9.9l1.7 12.3c.7 4.8 5.2 8.2 9.9 7.5l24.5-3.5c4.8-.6 8.2-5.2 7.5-9.9l-1.7-12.3c-.6-4.8-5.1-8.1-9.9-7.5zm-3.7 16.3l-10.7 7.1c-.3.2-.6 0-.7-.3l-1.6-11.3c-.1-.3.3-.6.6-.5l12.3 4.2c.3.1.4.6.1.8z" fill="url(#paint19_linear_20084_25275)"/><path d="M465.8 372.8l-24.2-6.7c-2.5-.7-5 .8-5.7 3.2l-6.7 24.2c-.7 2.5.8 5 3.2 5.7l12 3.3 3.3-11.8-3.1-.9c-.4-.1-.7-.5-.5-.9l1-3.9c.1-.4.5-.6.9-.5l3.1.8 1-3.7c1.2-4.3 4.4-5.9 8.3-4.8l3.1.9c.4.1.6.5.5.9l-.9 3.2c-.1.4-.5.7-.9.5l-1.9-.5c-2.1-.6-2.7.3-3.1 1.8l-.9 3.2 4.6 1.2c.5.1.6.6.5 1l-1.5 3.7c-.1.3-.5.5-.9.5l-4.1-1.1-3.3 11.8 7.1 2c2.5.7 5-.8 5.7-3.2l6.7-24.2c.6-2.5-.8-5-3.3-5.7z" fill="url(#paint20_linear_20084_25275)"/><path d="M136.401 395.2v17.4c-.9-.6-2-.9-3.1-.9-3.3 0-6 2.7-6 6s2.7 6 6 6 6-2.7 6-6v-16.2l15.3-4.4v10.3c-.9-.6-2-.9-3.1-.9-3.3 0-6 2.7-6 6s2.7 6 6 6c3.1 0 5.7-2.4 6-5.4v-24l-21.1 6.1z" fill="url(#paint21_linear_20084_25275)"/><path d="M203.3 389.1c-.2.9-14.4 6.3-14.4 6.3-24.5 9.5-27 8.3-27 8.3-3.8-6.6-1.3-7.5-1.3-7.5 8.8-4.4 20.7-20.7 20.7-20.7 2.4.2 3.6.6 4.1 1.8.5 1.2.1 1.8 3 2.1 3 .3 4.1-1.9 5-3.8.7-1.4 1.7-2 2.2-2.2.1-.1.3 0 .4.1 3.8 6.3 7.7 14.7 7.3 15.6z" fill="url(#paint22_linear_20084_25275)"/><path d="M158.899 259c.2 0 .3.1.3.3.1.5.2 1.7-.6 3.1-1.1 1.8-2.4 3.9-.5 6.4 1.9 2.4 2.3 1.7 3.5 1.5 1.3-.2 2.3.6 3.8 2.6 0 0-7.4 19-6.4 29 0 0 1.1 3.8-6.7 4.1 0 0-2.9-2.7-8.3-29.2 0 0-3.2-15.2-2.6-15.9.8-.8 10.2-1.8 17.5-1.9z" fill="url(#paint23_linear_20084_25275)"/><path d="M181.3 366.1l-.3-68.8c0-5.6 1.2-11 3.6-16l22.5-46.3 49.5 3.9-43.9 41.4c-6 7.7-9.6 17-10.3 26.8l-4.4 63.2-16.7-4.2z" fill="url(#paint24_linear_20084_25275)"/><path d="M164.101 176.2c4-1.9 8.1-13.4 6-13.6-2.2-.1-4.3 3.5-5.8 7.4-1.5 3.8-.6 6-.6 6l.4.2z" fill="#4687FF"/><path d="M168.798 169.6l.5.9-3.8 5.4s-3-5.6-4-6.4c-.7-.5 1.5-3.3 2.6-4.8l-4.2-7.1s1 .6 1.5.7c.5.2 1.6-5.6 2.7-7.8 1.2-2.3 2.8-1.4 2.6-1.1-.2.2-.5 8.7.6 10.6 1 1.9 4.5 5 4.5 5-.8 1.6-2.3 3.7-3 4.6z" fill="url(#paint25_linear_20084_25275)"/><path d="M165.499 164l-15.6-22.6c-.7-1-2-1.2-3-.5s-1.2 2-.5 3l15.6 22.6c.7 1 2 1.2 3 .5s1.3-2 .5-3z" fill="url(#paint26_radial_20084_25275)"/><path d="M154.999 168.2c-1.7-1.2-.9-3.1-2.4-4.1-1.4-1-1.9-4.1-1.9-4.1l-1.4-2.2c-1.4-2.3.2-3.5.7-3.9.5-.4 6.6 1.5 7.1 2.1.5.7 6.3 8.9 6.8 10.9.5 2.1-2.2 3.2-2.2 3.2-4.4.5-5-.9-6.7-1.9z" fill="url(#paint27_linear_20084_25275)"/><path d="M214.902 186c-6.4 12.2-16.2 19.6-19.3 18.9-.6-.1-2.2-.1-7.6-4.5-4.8-4-24.4-24.4-24.4-24.4.4.1.6 0 .7-.2 8.3-9.8 5.7-13.2 5.7-13.2l24.1 17.9s3.8-1.9 9.3-15.4c3-7.3 5.6-15.3 7.9-19.3 4.3-7.6 7.1-7.7 7.1-7.7s4 33.7-3.5 47.9z" fill="url(#paint28_linear_20084_25275)"/><path d="M196.102 178.6c-.3.5-2 1.9-2 1.9l5.4 5.4s-3.2-7.7-3.4-7.3z" fill="#4687FF"/><path d="M272.7 225.6c6-37.6 4.8-78.2-3.7-85.2-5.1-4.3-20.5-6.6-20.5-6.6s-12.5 9-18.2 1.5l-10.9 2.2c-5.3 2.2-6.6 5.1-6.8 8.9 0 1.3 0 2.7.1 4.1.3 5.8.4 8.2.8 12.9 1.1 10.8.2 19.5.2 27.4 0 12.6-8.7 46.3-8.7 46.3s6.8-2.2 30.3 3.7c10.3 2.6 20.4-2.8 25.9-3.2.8-.1 8.7-2.7 8.7-3.4.1-3.3 0-1.8.7-6.4.6-3.8 1.8-.8 2.1-2.2z" fill="url(#paint29_linear_20084_25275)"/><path d="M245.699 119.9c.8 11.1 3 14 3 14s-2.4 3.4-7.9 5.1c-3.8 1.1-11 2.2-10.4-1.7 1.6-9.3.1-14.4.1-14.4s14.4-14 15.2-3z" fill="url(#paint30_linear_20084_25275)"/><path d="M210.6 100.1c.9.6 1.9 1.1 2.9 1.3 1.8.4 3.6.3 5.4-.1l16.7-3.9s1.4 8.1 4.6 11l2.2-.5s-.7 3.2-.3 4.2l5.4 1.8s2.6-6.2 3.4-7.7c3.4-7.1.1-32.9-20.8-25.6-20.9 7.3-25.1 6.2-25.1 6.2s-.1 9.1 5.6 13.3z" fill="url(#paint31_linear_20084_25275)"/><path d="M219.002 101.2c-1.7.4-3.7.5-5.4.1 1 6.3 4.4 26 11.9 31.1 2.4 1.6 7.6-.9 11.9-4.6 1.6-1.5 3.1-2.7 4.5-4.1 1-.9 1.4-2.1 1.5-3.4v-2.6c.3 0 1.7.6 2.7.2.4-.1.9-.6 1.4-1.2 1.1-1.8 1.6-4 1.1-6.2l-.4-2s-.8-2.6-2.1-3c-3.8-1.2-4.8 2.6-4.8 2.6l-.9.2c-3.3-2.9-4.6-11-4.6-11l-16.8 3.9z" fill="url(#paint32_linear_20084_25275)"/><path d="M232.101 138.9c-1.5-1-1.2-4.7-1.2-4.7s-1.2 1.3-2.8 4.9c-1.5 3.6 3.1 6.4 3.1 6.4l3.4-5.7c-.6 0-1.5-.2-2.5-.9z" fill="url(#paint33_linear_20084_25275)"/><path d="M246.302 133.5c2.1-1.7.8-4.2.8-4.2s2 .8 4.7 3.4c3.5 3.4-15.8 14.7-15.8 14.7l-1.2-7.5c-.1 0 7.5-3 11.5-6.4z" fill="url(#paint34_linear_20084_25275)"/><path d="M239.499 148.7l-7.3 4.3s-2.2-3.9-3.6-4.4c-1.4-.5-5.3-3.2-6.9-3.9-1.6-.7-1.1-1.6-1-2.3.1-.7.3-1.2.2-2.2-.1-1 .1-1.2.8-2 .7-.8.1-1.3.1-2.2.1-1 1.6-2 1.6-2.2 0-.3-6.5-7.4-6.8-7.8-.2-.4.1-1.5 1.4-1.4 1.3.1 4.4 3 8.2 6.6 3.8 3.6 5.4 4.3 6 4.4.6.1 1.9-5.8 2.5-7.2.5-1.4 1.7-1.8 2.3-1.4.6.4 0 2.6-.3 4.1-.3 1.5-.3 5.3-.5 6.5-.1 1.3.5 4.3.7 5.8.2 1.5.4 2.4.4 2.4l2.2 2.9z" fill="url(#paint35_linear_20084_25275)"/><path d="M259 180.2l-3.5-5.3c1.3-3.8 2-14.6 2-14.6" fill="#4687FF"/><path d="M276.199 186.3c-.7 3.8-4.4 6.9-5.3 8-8.8 10.4-13.4 10.2-18.9 5.8-10.7-8.6-21.8-47.4-21.8-47.4 1-3.2 8.9-5.7 8.9-5.7s12.2 20.9 20.2 31.2" fill="url(#paint36_linear_20084_25275)"/><path d="M166.199 255.9l95.2-34.8c6.5-2.2 13.7.6 16.7 6.6 2.4 4.9 1.5 10.6-2.4 14.6l-14.1 14.3c-3.7 3.8-8.9 6-14.3 6l-23.4-.3-52.8 7.2-4.9-13.6z" fill="url(#paint37_linear_20084_25275)"/><path d="M283.8 243c-29.1-4.4-33.9 7.9-46.9 17.1-5.9 4.2-.3 12.9-5.7 14.6-6.3 2-33.8 65.7 22.3 50.9 56-14.8 98.3-36.4 98.3-36.4l27.8-15.7s.8-19.9-13.5-29.8c-14.3-9.9-33.8-10.7-33.8-10.7-2.1.8-14.2-2.7-24.1 4.3-5.7 3.9-21 6.3-24.4 5.7z" fill="url(#paint38_linear_20084_25275)"/><path d="M284.7 312.9c0-6 4.9-10.9 10.9-10.9.9 0 1.8.1 2.6.3-.1-10.5-8.6-18.9-19.1-18.9-10.6 0-19.1 8.5-19.1 19.1 0 10.6 8.5 19.1 19.1 19.1 2.9 0 5.7-.7 8.2-1.8-1.6-1.9-2.6-4.4-2.6-6.9zm-8.7-3.3c-.2.1-.4.2-.6.2-.2 0-.4-.1-.6-.1-.4-.2-.6-.6-.6-1.1v-11.9c0-.5.3-.9.6-1.1.4-.2.9-.2 1.2 0l9.6 6c.3.2.6.6.6 1s-.2.8-.6 1l-9.6 6z" fill="url(#paint39_linear_20084_25275)"/><path d="M295.498 305.5c-4.2 0-7.6 3.4-7.6 7.6 0 5.9 7.6 10.2 7.6 10.2s7.6-4.2 7.6-10.2c0-4.2-3.4-7.6-7.6-7.6zm0 9.9c-1.3 0-2.4-1-2.4-2.4 0-1.3 1.1-2.4 2.4-2.4 1.3 0 2.4 1 2.4 2.4s-1.1 2.4-2.4 2.4z" fill="url(#paint40_linear_20084_25275)"/></g><defs><linearGradient id="paint28_linear_20084_25275" x1="212.514" y1="214.608" x2="192.985" y2="162.386" gradientUnits="userSpaceOnUse"><stop stop-color="#4687FF"/><stop offset=".999" stop-color="#77A7FF"/></linearGradient><linearGradient id="paint23_linear_20084_25275" x1="159.359" y1="282.061" x2="147.332" y2="283.073" gradientUnits="userSpaceOnUse"><stop stop-color="#0E1B33"/><stop offset="1" stop-color="#233B67"/></linearGradient><linearGradient id="paint6_linear_20084_25275" x1="174.358" y1="265.655" x2="153.218" y2="265.655" gradientUnits="userSpaceOnUse"><stop stop-color="#F6CFBE"/><stop offset="1" stop-color="#FFE8E1"/></linearGradient><linearGradient id="paint7_linear_20084_25275" x1="183.398" y1="381.033" x2="193.28" y2="362.699" gradientUnits="userSpaceOnUse"><stop stop-color="#F6CFBE"/><stop offset="1" stop-color="#FFE8E1"/></linearGradient><linearGradient id="paint8_linear_20084_25275" x1="239.233" y1="264.391" x2="229.064" y2="252.272" gradientUnits="userSpaceOnUse"><stop offset=".298" stop-color="#545175" stop-opacity="0"/><stop offset="1" stop-color="#565378" stop-opacity=".8"/></linearGradient><linearGradient id="paint9_linear_20084_25275" x1="314.441" y1="244.011" x2="314.17" y2="215.887" gradientUnits="userSpaceOnUse"><stop offset=".287" stop-color="#BCD3FF"/><stop offset=".584" stop-color="#98BCFF"/><stop offset=".842" stop-color="#80ACFF"/><stop offset="1" stop-color="#77A6FF"/></linearGradient><linearGradient id="paint10_linear_20084_25275" x1="314.276" y1="208.376" x2="314.14" y2="221.221" gradientUnits="userSpaceOnUse"><stop stop-color="#BCD3FF"/><stop offset=".416" stop-color="#98BCFF"/><stop offset=".778" stop-color="#80ACFF"/><stop offset="1" stop-color="#77A6FF"/></linearGradient><linearGradient id="paint11_linear_20084_25275" x1="315.636" y1="175.572" x2="313.743" y2="199.098" gradientUnits="userSpaceOnUse"><stop stop-color="#FF7E23"/><stop offset="1" stop-color="#FFE2D9"/></linearGradient><linearGradient id="paint12_linear_20084_25275" x1="309.327" y1="175.064" x2="307.434" y2="198.59" gradientUnits="userSpaceOnUse"><stop stop-color="#FF7E23"/><stop offset="1" stop-color="#FFE2D9"/></linearGradient><linearGradient id="paint13_linear_20084_25275" x1="320.925" y1="175.997" x2="319.032" y2="199.524" gradientUnits="userSpaceOnUse"><stop stop-color="#FF7E23"/><stop offset="1" stop-color="#FFE2D9"/></linearGradient><linearGradient id="paint15_linear_20084_25275" x1="401.963" y1="283.193" x2="434.423" y2="240.008" gradientUnits="userSpaceOnUse"><stop offset=".001" stop-color="#BDD4FF"/><stop offset=".999" stop-color="#EDF3FF"/></linearGradient><linearGradient id="paint16_linear_20084_25275" x1="400.885" y1="282.381" x2="433.346" y2="239.196" gradientUnits="userSpaceOnUse"><stop offset=".001" stop-color="#BDD4FF"/><stop offset=".999" stop-color="#EDF3FF"/></linearGradient><linearGradient id="paint17_linear_20084_25275" x1="231.924" y1="389.668" x2="235.907" y2="311.013" gradientUnits="userSpaceOnUse"><stop offset=".001" stop-color="#BDD4FF"/><stop offset=".999" stop-color="#EDF3FF"/></linearGradient><linearGradient id="paint18_linear_20084_25275" x1="293.734" y1="322.196" x2="303.402" y2="260.966" gradientUnits="userSpaceOnUse"><stop offset=".001" stop-color="#BDD4FF"/><stop offset=".999" stop-color="#EDF3FF"/></linearGradient><linearGradient id="paint19_linear_20084_25275" x1="146" y1="379.415" x2="167.542" y2="450.875" gradientUnits="userSpaceOnUse"><stop offset=".001" stop-color="#BDD4FF"/><stop offset=".999" stop-color="#EDF3FF"/></linearGradient><linearGradient id="paint20_linear_20084_25275" x1="409.443" y1="431.978" x2="373.03" y2="474.257" gradientUnits="userSpaceOnUse"><stop offset=".001" stop-color="#BDD4FF"/><stop offset=".999" stop-color="#EDF3FF"/></linearGradient><linearGradient id="paint22_linear_20084_25275" x1="179.327" y1="389.127" x2="183.791" y2="395.873" gradientUnits="userSpaceOnUse"><stop stop-color="#0E1B33"/><stop offset="1" stop-color="#233B67"/></linearGradient><linearGradient id="paint5_linear_20084_25275" x1="355.001" y1="421.646" x2="343.713" y2="458.064" gradientUnits="userSpaceOnUse"><stop offset=".001" stop-color="#BDD4FF"/><stop offset=".999" stop-color="#EDF3FF"/></linearGradient><linearGradient id="paint24_linear_20084_25275" x1="203.522" y1="371.124" x2="223.579" y2="234.062" gradientUnits="userSpaceOnUse"><stop stop-color="#0E1B33"/><stop offset="1" stop-color="#233B67"/></linearGradient><linearGradient id="paint25_linear_20084_25275" x1="172.078" y1="151.822" x2="162.995" y2="166.418" gradientUnits="userSpaceOnUse"><stop stop-color="#F6CFBE"/><stop offset="1" stop-color="#FFE8E1"/></linearGradient><linearGradient id="paint27_linear_20084_25275" x1="150.533" y1="163.382" x2="167.228" y2="159.039" gradientUnits="userSpaceOnUse"><stop stop-color="#F6CFBE"/><stop offset="1" stop-color="#FFE8E1"/></linearGradient><linearGradient id="paint21_linear_20084_25275" x1="136.613" y1="443.236" x2="128.094" y2="485.219" gradientUnits="userSpaceOnUse"><stop offset=".001" stop-color="#BDD4FF"/><stop offset=".999" stop-color="#EDF3FF"/></linearGradient><linearGradient id="paint29_linear_20084_25275" x1="273.689" y1="233.145" x2="209.91" y2="155.6" gradientUnits="userSpaceOnUse"><stop stop-color="#4687FF"/><stop offset=".999" stop-color="#77A7FF"/></linearGradient><linearGradient id="paint30_linear_20084_25275" x1="233.773" y1="121.127" x2="243.202" y2="136.928" gradientUnits="userSpaceOnUse"><stop stop-color="#F6CFBE"/><stop offset="1" stop-color="#FFE8E1"/></linearGradient><linearGradient id="paint31_linear_20084_25275" x1="251.85" y1="94.824" x2="207.36" y2="102.138" gradientUnits="userSpaceOnUse"><stop stop-color="#0E1B33"/><stop offset="1" stop-color="#233B67"/></linearGradient><linearGradient id="paint32_linear_20084_25275" x1="223.085" y1="75.424" x2="233.278" y2="115.69" gradientUnits="userSpaceOnUse"><stop stop-color="#F6CFBE"/><stop offset="1" stop-color="#FFE8E1"/></linearGradient><linearGradient id="paint33_linear_20084_25275" x1="231.045" y1="128.391" x2="231.159" y2="137.692" gradientUnits="userSpaceOnUse"><stop stop-color="#BDD4FF"/><stop offset="1" stop-color="#fff"/></linearGradient><linearGradient id="paint34_linear_20084_25275" x1="258.075" y1="119.495" x2="248.343" y2="131.331" gradientUnits="userSpaceOnUse"><stop stop-color="#BDD4FF"/><stop offset="1" stop-color="#fff"/></linearGradient><linearGradient id="paint35_linear_20084_25275" x1="240.034" y1="153.17" x2="227.885" y2="133.797" gradientUnits="userSpaceOnUse"><stop stop-color="#F6CFBE"/><stop offset="1" stop-color="#FFE8E1"/></linearGradient><linearGradient id="paint36_linear_20084_25275" x1="234.838" y1="197.088" x2="270.554" y2="144.529" gradientUnits="userSpaceOnUse"><stop stop-color="#4687FF"/><stop offset=".999" stop-color="#77A7FF"/></linearGradient><linearGradient id="paint37_linear_20084_25275" x1="279.353" y1="244.824" x2="166.159" y2="244.824" gradientUnits="userSpaceOnUse"><stop stop-color="#0E1B33"/><stop offset="1" stop-color="#233B67"/></linearGradient><linearGradient id="paint38_linear_20084_25275" x1="300.991" y1="303.014" x2="291.246" y2="233.175" gradientUnits="userSpaceOnUse"><stop stop-color="#E6EEFF"/><stop offset=".362" stop-color="#E3ECFF"/><stop offset=".626" stop-color="#DAE6FF"/><stop offset=".858" stop-color="#CADCFF"/><stop offset="1" stop-color="#BCD3FF"/></linearGradient><linearGradient id="paint39_linear_20084_25275" x1="301.753" y1="262.947" x2="337.519" y2="205.089" gradientUnits="userSpaceOnUse"><stop offset=".001" stop-color="#BDD4FF"/><stop offset=".999" stop-color="#EDF3FF"/></linearGradient><linearGradient id="paint40_linear_20084_25275" x1="319.661" y1="274.019" x2="355.428" y2="216.161" gradientUnits="userSpaceOnUse"><stop offset=".001" stop-color="#BDD4FF"/><stop offset=".999" stop-color="#EDF3FF"/></linearGradient><radialGradient id="paint2_radial_20084_25275" cx="0" cy="0" r="1" gradientUnits="userSpaceOnUse" gradientTransform="translate(64.95 123.684) scale(80.2375)"><stop stop-color="#E6EEFF"/><stop offset=".362" stop-color="#E3ECFF"/><stop offset=".626" stop-color="#DAE6FF"/><stop offset=".858" stop-color="#CADCFF"/><stop offset="1" stop-color="#BCD3FF"/></radialGradient><radialGradient id="paint1_radial_20084_25275" cx="0" cy="0" r="1" gradientUnits="userSpaceOnUse" gradientTransform="translate(334.993 18.557) scale(46.9697)"><stop stop-color="#E6EEFF"/><stop offset=".362" stop-color="#E3ECFF"/><stop offset=".626" stop-color="#DAE6FF"/><stop offset=".858" stop-color="#CADCFF"/><stop offset="1" stop-color="#BCD3FF"/></radialGradient><radialGradient id="paint3_radial_20084_25275" cx="0" cy="0" r="1" gradientUnits="userSpaceOnUse" gradientTransform="translate(315.002 253.536) scale(261.85)"><stop stop-color="#E6EEFF"/><stop offset=".362" stop-color="#E3ECFF"/><stop offset=".626" stop-color="#DAE6FF"/><stop offset=".858" stop-color="#CADCFF"/><stop offset="1" stop-color="#BCD3FF"/></radialGradient><radialGradient id="paint4_radial_20084_25275" cx="0" cy="0" r="1" gradientUnits="userSpaceOnUse" gradientTransform="matrix(-101.128 0 0 -17.8317 237.393 262.444)"><stop stop-color="#305EB1" stop-opacity=".3"/><stop offset=".149" stop-color="#3461B2" stop-opacity=".255"/><stop offset=".289" stop-color="#3F6AB7" stop-opacity=".213"/><stop offset=".425" stop-color="#5279BE" stop-opacity=".172"/><stop offset=".56" stop-color="#6D8DC8" stop-opacity=".132"/><stop offset=".692" stop-color="#8FA8D5" stop-opacity=".092"/><stop offset=".824" stop-color="#B9C9E5" stop-opacity=".053"/><stop offset=".952" stop-color="#EBEFF7" stop-opacity=".015"/><stop offset="1" stop-color="#fff" stop-opacity="0"/></radialGradient><radialGradient id="paint0_radial_20084_25275" cx="0" cy="0" r="1" gradientUnits="userSpaceOnUse" gradientTransform="translate(497.829 190.511) scale(90.6637)"><stop stop-color="#E6EEFF"/><stop offset=".362" stop-color="#E3ECFF"/><stop offset=".626" stop-color="#DAE6FF"/><stop offset=".858" stop-color="#CADCFF"/><stop offset="1" stop-color="#BCD3FF"/></radialGradient><radialGradient id="paint14_radial_20084_25275" cx="0" cy="0" r="1" gradientUnits="userSpaceOnUse" gradientTransform="matrix(277.493 0 0 26.366 278 532.529)"><stop stop-color="#305EB1" stop-opacity=".3"/><stop offset=".149" stop-color="#3461B2" stop-opacity=".255"/><stop offset=".289" stop-color="#3F6AB7" stop-opacity=".213"/><stop offset=".425" stop-color="#5279BE" stop-opacity=".172"/><stop offset=".56" stop-color="#6D8DC8" stop-opacity=".132"/><stop offset=".692" stop-color="#8FA8D5" stop-opacity=".092"/><stop offset=".824" stop-color="#B9C9E5" stop-opacity=".053"/><stop offset=".952" stop-color="#EBEFF7" stop-opacity=".015"/><stop offset="1" stop-color="#fff" stop-opacity="0"/></radialGradient><radialGradient id="paint26_radial_20084_25275" cx="0" cy="0" r="1" gradientUnits="userSpaceOnUse" gradientTransform="rotate(16.361 -457.303 619.128) scale(11.8514)"><stop offset=".091" stop-color="#77A7FF"/><stop offset="1" stop-color="#4687FF"/></radialGradient><clipPath id="clip0_20084_25275"><path fill="#fff" transform="translate(.5)" d="M0 0h555v555H0z"/></clipPath></defs></svg>